%TF.GenerationSoftware,KiCad,Pcbnew,7.0.2*%
%TF.CreationDate,2023-06-07T16:09:15+09:00*%
%TF.ProjectId,JinBoard,4a696e42-6f61-4726-942e-6b696361645f,rev?*%
%TF.SameCoordinates,Original*%
%TF.FileFunction,Soldermask,Top*%
%TF.FilePolarity,Negative*%
%FSLAX46Y46*%
G04 Gerber Fmt 4.6, Leading zero omitted, Abs format (unit mm)*
G04 Created by KiCad (PCBNEW 7.0.2) date 2023-06-07 16:09:15*
%MOMM*%
%LPD*%
G01*
G04 APERTURE LIST*
G04 Aperture macros list*
%AMRoundRect*
0 Rectangle with rounded corners*
0 $1 Rounding radius*
0 $2 $3 $4 $5 $6 $7 $8 $9 X,Y pos of 4 corners*
0 Add a 4 corners polygon primitive as box body*
4,1,4,$2,$3,$4,$5,$6,$7,$8,$9,$2,$3,0*
0 Add four circle primitives for the rounded corners*
1,1,$1+$1,$2,$3*
1,1,$1+$1,$4,$5*
1,1,$1+$1,$6,$7*
1,1,$1+$1,$8,$9*
0 Add four rect primitives between the rounded corners*
20,1,$1+$1,$2,$3,$4,$5,0*
20,1,$1+$1,$4,$5,$6,$7,0*
20,1,$1+$1,$6,$7,$8,$9,0*
20,1,$1+$1,$8,$9,$2,$3,0*%
%AMOutline4P*
0 Free polygon, 4 corners , with rotation*
0 The origin of the aperture is its center*
0 number of corners: always 4*
0 $1 to $8 corner X, Y*
0 $9 Rotation angle, in degrees counterclockwise*
0 create outline with 4 corners*
4,1,4,$1,$2,$3,$4,$5,$6,$7,$8,$1,$2,$9*%
G04 Aperture macros list end*
%ADD10C,0.084381*%
%ADD11Outline4P,-1.270000X0.000000X0.000000X1.270000X1.270000X0.000000X0.000000X-1.270000X180.000000*%
%ADD12RoundRect,0.218750X0.256250X-0.218750X0.256250X0.218750X-0.256250X0.218750X-0.256250X-0.218750X0*%
%ADD13R,0.650000X1.500000*%
%ADD14R,1.600000X1.600000*%
%ADD15C,1.600000*%
%ADD16RoundRect,0.200000X-0.275000X0.200000X-0.275000X-0.200000X0.275000X-0.200000X0.275000X0.200000X0*%
%ADD17RoundRect,0.218750X-0.218750X-0.256250X0.218750X-0.256250X0.218750X0.256250X-0.218750X0.256250X0*%
%ADD18RoundRect,0.225000X0.225000X0.250000X-0.225000X0.250000X-0.225000X-0.250000X0.225000X-0.250000X0*%
%ADD19RoundRect,0.200000X0.275000X-0.200000X0.275000X0.200000X-0.275000X0.200000X-0.275000X-0.200000X0*%
%ADD20RoundRect,0.200000X-0.200000X-0.275000X0.200000X-0.275000X0.200000X0.275000X-0.200000X0.275000X0*%
%ADD21RoundRect,0.200000X0.200000X0.275000X-0.200000X0.275000X-0.200000X-0.275000X0.200000X-0.275000X0*%
%ADD22R,1.200000X0.700000*%
%ADD23R,1.200000X0.760000*%
%ADD24R,1.200000X0.800000*%
%ADD25R,1.350000X1.800000*%
%ADD26R,1.500000X1.800000*%
%ADD27R,1.700000X1.700000*%
%ADD28O,1.700000X1.700000*%
G04 APERTURE END LIST*
%TO.C,REF\u002A\u002A*%
D10*
X168746495Y-103344919D02*
X168827222Y-103501644D01*
X168883038Y-105716660D01*
X168938855Y-107931675D01*
X168531209Y-107931675D01*
X168469067Y-106191029D01*
X168406918Y-104450396D01*
X168450696Y-103904942D01*
X168494473Y-103359490D01*
X168665768Y-103188191D01*
X168746495Y-103344919D01*
G36*
X168746495Y-103344919D02*
G01*
X168827222Y-103501644D01*
X168883038Y-105716660D01*
X168938855Y-107931675D01*
X168531209Y-107931675D01*
X168469067Y-106191029D01*
X168406918Y-104450396D01*
X168450696Y-103904942D01*
X168494473Y-103359490D01*
X168665768Y-103188191D01*
X168746495Y-103344919D01*
G37*
X163461564Y-104699423D02*
X163491963Y-105948698D01*
X163449773Y-106960386D01*
X163407593Y-107972073D01*
X163259667Y-108000292D01*
X163111748Y-108028511D01*
X163068307Y-107915348D01*
X163024876Y-107802181D01*
X163047467Y-105651905D01*
X163070065Y-103501627D01*
X163250611Y-103475887D01*
X163431164Y-103450148D01*
X163461564Y-104699423D01*
G36*
X163461564Y-104699423D02*
G01*
X163491963Y-105948698D01*
X163449773Y-106960386D01*
X163407593Y-107972073D01*
X163259667Y-108000292D01*
X163111748Y-108028511D01*
X163068307Y-107915348D01*
X163024876Y-107802181D01*
X163047467Y-105651905D01*
X163070065Y-103501627D01*
X163250611Y-103475887D01*
X163431164Y-103450148D01*
X163461564Y-104699423D01*
G37*
X172994511Y-83039653D02*
X173449269Y-83124402D01*
X173967068Y-83377617D01*
X174484860Y-83630831D01*
X175663602Y-84505713D01*
X176841824Y-85380078D01*
X177199429Y-85703056D01*
X177557027Y-86026034D01*
X177920827Y-86536596D01*
X178284116Y-87047160D01*
X178587453Y-87671411D01*
X178890279Y-88295662D01*
X179187421Y-89190181D01*
X179484555Y-90084700D01*
X179651471Y-90928577D01*
X179818387Y-91772453D01*
X179911961Y-94135122D01*
X180004979Y-96497769D01*
X179967259Y-98312128D01*
X179929539Y-100126488D01*
X179669087Y-100941942D01*
X179408635Y-101757914D01*
X179138882Y-102418854D01*
X178869130Y-103079796D01*
X178678960Y-103279783D01*
X178493962Y-103473053D01*
X177752408Y-103234823D01*
X177752408Y-103087027D01*
X177395840Y-102983673D01*
X177039273Y-102880837D01*
X176780377Y-102727873D01*
X176521992Y-102574911D01*
X176454816Y-102683432D01*
X176387639Y-102791952D01*
X175635747Y-102627621D01*
X174883336Y-102462773D01*
X173627080Y-102118090D01*
X172370824Y-101773409D01*
X171349179Y-101556885D01*
X170327016Y-101340878D01*
X169145695Y-101220472D01*
X167964375Y-101100067D01*
X167722531Y-101098467D01*
X167480168Y-101096968D01*
X167483769Y-101113508D01*
X167104466Y-101094908D01*
X167081219Y-101071657D01*
X164695836Y-101182760D01*
X162310967Y-101294382D01*
X161867585Y-101301083D01*
X161424718Y-101307783D01*
X161424718Y-101368242D01*
X161335839Y-101327932D01*
X161388028Y-101164118D01*
X161446938Y-100978600D01*
X161119309Y-100703165D01*
X160791680Y-100427729D01*
X160796967Y-99076950D01*
X161931111Y-99076950D01*
X162054101Y-99372023D01*
X162177609Y-99667095D01*
X162623578Y-99874836D01*
X163070061Y-100082575D01*
X163539284Y-100083574D01*
X164007989Y-100084091D01*
X164169221Y-99966786D01*
X164169221Y-99966269D01*
X164329934Y-99848963D01*
X163953213Y-99737341D01*
X163576493Y-99625202D01*
X163182721Y-99223677D01*
X162788430Y-98821634D01*
X162558469Y-98350346D01*
X162327992Y-97879572D01*
X162381734Y-96999006D01*
X162435475Y-96118441D01*
X162271657Y-96118441D01*
X162230836Y-96308125D01*
X162189496Y-96497778D01*
X162060303Y-97351990D01*
X161931111Y-98205685D01*
X161931111Y-99076950D01*
X160796967Y-99076950D01*
X160798379Y-98716206D01*
X160804578Y-97004166D01*
X160946172Y-96122566D01*
X161087765Y-95240450D01*
X161381287Y-94050343D01*
X161674809Y-92859718D01*
X162254620Y-91134761D01*
X162833913Y-89409801D01*
X163108830Y-88777282D01*
X163383748Y-88144245D01*
X163805943Y-87400623D01*
X164228139Y-86656482D01*
X164735085Y-85966085D01*
X165242032Y-85275170D01*
X165590329Y-84908785D01*
X165939145Y-84541883D01*
X166922024Y-83868022D01*
X167400029Y-83656665D01*
X167878033Y-83445309D01*
X168258893Y-83316118D01*
X168307371Y-83299585D01*
X171424069Y-83299585D01*
X171725339Y-83459265D01*
X172027135Y-83618429D01*
X172751637Y-83822551D01*
X173475621Y-84026673D01*
X173859578Y-84251465D01*
X174243535Y-84476774D01*
X174521550Y-84816805D01*
X174799054Y-85156319D01*
X175371114Y-85718558D01*
X175943173Y-86280281D01*
X176208791Y-86706095D01*
X176474408Y-87131392D01*
X176829427Y-87680199D01*
X177183926Y-88228486D01*
X177397870Y-88654817D01*
X177611813Y-89081664D01*
X177920323Y-89962748D01*
X178228314Y-90844348D01*
X178637593Y-92025671D01*
X179046872Y-93206993D01*
X179177098Y-93843130D01*
X179307843Y-94479784D01*
X179394147Y-95235809D01*
X179480969Y-95991835D01*
X179481488Y-96399561D01*
X179482487Y-96807289D01*
X179587910Y-96771629D01*
X179693333Y-96736490D01*
X179665425Y-95014115D01*
X179664906Y-95014115D01*
X179636998Y-93291222D01*
X179513493Y-92236508D01*
X179389989Y-91181791D01*
X179174496Y-90299158D01*
X178958493Y-89416524D01*
X178712514Y-88749381D01*
X178466534Y-88082239D01*
X177874325Y-86901949D01*
X177624730Y-86539181D01*
X177374615Y-86175896D01*
X176930714Y-85799691D01*
X176486813Y-85422970D01*
X175473958Y-84693815D01*
X174461613Y-83964144D01*
X173955182Y-83712997D01*
X173448750Y-83461849D01*
X172994511Y-83377100D01*
X172539761Y-83292351D01*
X171981656Y-83295968D01*
X171424069Y-83299585D01*
X168307371Y-83299585D01*
X168639233Y-83186410D01*
X169272267Y-83073755D01*
X169905301Y-82960584D01*
X171222531Y-82957484D01*
X172540280Y-82954904D01*
X172994511Y-83039653D01*
G36*
X172994511Y-83039653D02*
G01*
X173449269Y-83124402D01*
X173967068Y-83377617D01*
X174484860Y-83630831D01*
X175663602Y-84505713D01*
X176841824Y-85380078D01*
X177199429Y-85703056D01*
X177557027Y-86026034D01*
X177920827Y-86536596D01*
X178284116Y-87047160D01*
X178587453Y-87671411D01*
X178890279Y-88295662D01*
X179187421Y-89190181D01*
X179484555Y-90084700D01*
X179651471Y-90928577D01*
X179818387Y-91772453D01*
X179911961Y-94135122D01*
X180004979Y-96497769D01*
X179967259Y-98312128D01*
X179929539Y-100126488D01*
X179669087Y-100941942D01*
X179408635Y-101757914D01*
X179138882Y-102418854D01*
X178869130Y-103079796D01*
X178678960Y-103279783D01*
X178493962Y-103473053D01*
X177752408Y-103234823D01*
X177752408Y-103087027D01*
X177395840Y-102983673D01*
X177039273Y-102880837D01*
X176780377Y-102727873D01*
X176521992Y-102574911D01*
X176454816Y-102683432D01*
X176387639Y-102791952D01*
X175635747Y-102627621D01*
X174883336Y-102462773D01*
X173627080Y-102118090D01*
X172370824Y-101773409D01*
X171349179Y-101556885D01*
X170327016Y-101340878D01*
X169145695Y-101220472D01*
X167964375Y-101100067D01*
X167722531Y-101098467D01*
X167480168Y-101096968D01*
X167483769Y-101113508D01*
X167104466Y-101094908D01*
X167081219Y-101071657D01*
X164695836Y-101182760D01*
X162310967Y-101294382D01*
X161867585Y-101301083D01*
X161424718Y-101307783D01*
X161424718Y-101368242D01*
X161335839Y-101327932D01*
X161388028Y-101164118D01*
X161446938Y-100978600D01*
X161119309Y-100703165D01*
X160791680Y-100427729D01*
X160796967Y-99076950D01*
X161931111Y-99076950D01*
X162054101Y-99372023D01*
X162177609Y-99667095D01*
X162623578Y-99874836D01*
X163070061Y-100082575D01*
X163539284Y-100083574D01*
X164007989Y-100084091D01*
X164169221Y-99966786D01*
X164169221Y-99966269D01*
X164329934Y-99848963D01*
X163953213Y-99737341D01*
X163576493Y-99625202D01*
X163182721Y-99223677D01*
X162788430Y-98821634D01*
X162558469Y-98350346D01*
X162327992Y-97879572D01*
X162381734Y-96999006D01*
X162435475Y-96118441D01*
X162271657Y-96118441D01*
X162230836Y-96308125D01*
X162189496Y-96497778D01*
X162060303Y-97351990D01*
X161931111Y-98205685D01*
X161931111Y-99076950D01*
X160796967Y-99076950D01*
X160798379Y-98716206D01*
X160804578Y-97004166D01*
X160946172Y-96122566D01*
X161087765Y-95240450D01*
X161381287Y-94050343D01*
X161674809Y-92859718D01*
X162254620Y-91134761D01*
X162833913Y-89409801D01*
X163108830Y-88777282D01*
X163383748Y-88144245D01*
X163805943Y-87400623D01*
X164228139Y-86656482D01*
X164735085Y-85966085D01*
X165242032Y-85275170D01*
X165590329Y-84908785D01*
X165939145Y-84541883D01*
X166922024Y-83868022D01*
X167400029Y-83656665D01*
X167878033Y-83445309D01*
X168258893Y-83316118D01*
X168307371Y-83299585D01*
X171424069Y-83299585D01*
X171725339Y-83459265D01*
X172027135Y-83618429D01*
X172751637Y-83822551D01*
X173475621Y-84026673D01*
X173859578Y-84251465D01*
X174243535Y-84476774D01*
X174521550Y-84816805D01*
X174799054Y-85156319D01*
X175371114Y-85718558D01*
X175943173Y-86280281D01*
X176208791Y-86706095D01*
X176474408Y-87131392D01*
X176829427Y-87680199D01*
X177183926Y-88228486D01*
X177397870Y-88654817D01*
X177611813Y-89081664D01*
X177920323Y-89962748D01*
X178228314Y-90844348D01*
X178637593Y-92025671D01*
X179046872Y-93206993D01*
X179177098Y-93843130D01*
X179307843Y-94479784D01*
X179394147Y-95235809D01*
X179480969Y-95991835D01*
X179481488Y-96399561D01*
X179482487Y-96807289D01*
X179587910Y-96771629D01*
X179693333Y-96736490D01*
X179665425Y-95014115D01*
X179664906Y-95014115D01*
X179636998Y-93291222D01*
X179513493Y-92236508D01*
X179389989Y-91181791D01*
X179174496Y-90299158D01*
X178958493Y-89416524D01*
X178712514Y-88749381D01*
X178466534Y-88082239D01*
X177874325Y-86901949D01*
X177624730Y-86539181D01*
X177374615Y-86175896D01*
X176930714Y-85799691D01*
X176486813Y-85422970D01*
X175473958Y-84693815D01*
X174461613Y-83964144D01*
X173955182Y-83712997D01*
X173448750Y-83461849D01*
X172994511Y-83377100D01*
X172539761Y-83292351D01*
X171981656Y-83295968D01*
X171424069Y-83299585D01*
X168307371Y-83299585D01*
X168639233Y-83186410D01*
X169272267Y-83073755D01*
X169905301Y-82960584D01*
X171222531Y-82957484D01*
X172540280Y-82954904D01*
X172994511Y-83039653D01*
G37*
%TD*%
D11*
%TO.C,REF\u002A\u002A*%
X138888002Y-87714107D03*
X138863002Y-120889107D03*
%TD*%
D12*
%TO.C,D3*%
X140970000Y-104673500D03*
X140970000Y-103098500D03*
%TD*%
%TO.C,D1*%
X116078000Y-104902000D03*
X116078000Y-103327000D03*
%TD*%
D13*
%TO.C,IC1*%
X140716000Y-126652000D03*
X141986000Y-126652000D03*
X143256000Y-126652000D03*
X144526000Y-126652000D03*
X145796000Y-126652000D03*
X147066000Y-126652000D03*
X148336000Y-126652000D03*
X148336000Y-121252000D03*
X147066000Y-121252000D03*
X145796000Y-121252000D03*
X144526000Y-121252000D03*
X143256000Y-121252000D03*
X141986000Y-121252000D03*
X140716000Y-121252000D03*
%TD*%
D14*
%TO.C,C2*%
X184110000Y-109855000D03*
D15*
X181610000Y-109855000D03*
%TD*%
D16*
%TO.C,R6*%
X140970000Y-106363000D03*
X140970000Y-108013000D03*
%TD*%
D17*
%TO.C,D4*%
X158724500Y-111760000D03*
X160299500Y-111760000D03*
%TD*%
D16*
%TO.C,R7*%
X157861000Y-113221000D03*
X157861000Y-114871000D03*
%TD*%
D18*
%TO.C,C1*%
X140729000Y-128524000D03*
X139179000Y-128524000D03*
%TD*%
D17*
%TO.C,D5*%
X171805500Y-108204000D03*
X173380500Y-108204000D03*
%TD*%
D19*
%TO.C,R1*%
X183118500Y-119380000D03*
X183118500Y-117730000D03*
%TD*%
D20*
%TO.C,R3*%
X153607000Y-84074000D03*
X155257000Y-84074000D03*
%TD*%
D21*
%TO.C,R8*%
X171767000Y-110871000D03*
X170117000Y-110871000D03*
%TD*%
D12*
%TO.C,D2*%
X128524000Y-104648000D03*
X128524000Y-103073000D03*
%TD*%
D22*
%TO.C,J2*%
X185928000Y-120388000D03*
D23*
X185928000Y-118368000D03*
D24*
X185928000Y-117138000D03*
D22*
X185928000Y-119388000D03*
D23*
X185928000Y-121408000D03*
D24*
X185928000Y-122638000D03*
D25*
X185983000Y-125013000D03*
D26*
X189563000Y-125013000D03*
D25*
X185983000Y-114763000D03*
D26*
X189563000Y-114763000D03*
%TD*%
D16*
%TO.C,R4*%
X116078000Y-106617000D03*
X116078000Y-108267000D03*
%TD*%
%TO.C,R2*%
X183118500Y-120904000D03*
X183118500Y-122554000D03*
%TD*%
%TO.C,R5*%
X128524000Y-106363000D03*
X128524000Y-108013000D03*
%TD*%
D27*
%TO.C,J1*%
X156195000Y-81280000D03*
D28*
X153655000Y-81280000D03*
X151115000Y-81280000D03*
X148575000Y-81280000D03*
X146035000Y-81280000D03*
X143495000Y-81280000D03*
X140955000Y-81280000D03*
X138415000Y-81280000D03*
%TD*%
D27*
%TO.C,J3*%
X180340000Y-127000000D03*
D28*
X177800000Y-127000000D03*
X175260000Y-127000000D03*
X172720000Y-127000000D03*
X170180000Y-127000000D03*
X167640000Y-127000000D03*
X165100000Y-127000000D03*
%TD*%
D27*
%TO.C,J4*%
X129540000Y-127000000D03*
D28*
X127000000Y-127000000D03*
X124460000Y-127000000D03*
X121920000Y-127000000D03*
X119380000Y-127000000D03*
X116840000Y-127000000D03*
X114300000Y-127000000D03*
%TD*%
M02*
