M48
; DRILL file {KiCad 7.0.2} date Wed Jun  7 16:09:17 2023
; FORMAT={-:-/ absolute / inch / decimal}
; #@! TF.CreationDate,2023-06-07T16:09:17+09:00
; #@! TF.GenerationSoftware,Kicad,Pcbnew,7.0.2
; #@! TF.FileFunction,Plated,1,2,PTH
FMAT,2
INCH
; #@! TA.AperFunction,Plated,PTH,ViaDrill
T1C0.0157
; #@! TA.AperFunction,Plated,PTH,ComponentDrill
T2C0.0300
; #@! TA.AperFunction,Plated,PTH,ComponentDrill
T3C0.0315
; #@! TA.AperFunction,Plated,PTH,ComponentDrill
T4C0.0394
%
G90
G05
T1
X4.69Y-4.07
X5.22Y-4.05
X5.35Y-4.6
X5.35Y-4.8
X5.55Y-5.125
X5.64Y-4.05
X7.39Y-4.88
X7.39Y-4.97
T2
X5.467Y-4.7594
X5.468Y-3.4533
T3
X7.15Y-4.325
X7.2484Y-4.325
T4
X4.5Y-5.0
X4.6Y-5.0
X4.7Y-5.0
X4.8Y-5.0
X4.9Y-5.0
X5.0Y-5.0
X5.1Y-5.0
X5.4494Y-3.2
X5.5494Y-3.2
X5.6494Y-3.2
X5.7494Y-3.2
X5.8494Y-3.2
X5.9494Y-3.2
X6.0494Y-3.2
X6.1494Y-3.2
X6.5Y-5.0
X6.6Y-5.0
X6.7Y-5.0
X6.8Y-5.0
X6.9Y-5.0
X7.0Y-5.0
X7.1Y-5.0
T0
M30
