%TF.GenerationSoftware,KiCad,Pcbnew,7.0.2*%
%TF.CreationDate,2023-06-07T16:09:15+09:00*%
%TF.ProjectId,JinBoard,4a696e42-6f61-4726-942e-6b696361645f,rev?*%
%TF.SameCoordinates,Original*%
%TF.FileFunction,Legend,Bot*%
%TF.FilePolarity,Positive*%
%FSLAX46Y46*%
G04 Gerber Fmt 4.6, Leading zero omitted, Abs format (unit mm)*
G04 Created by KiCad (PCBNEW 7.0.2) date 2023-06-07 16:09:15*
%MOMM*%
%LPD*%
G01*
G04 APERTURE LIST*
%ADD10C,0.150000*%
%ADD11C,0.084730*%
%ADD12C,0.120000*%
G04 APERTURE END LIST*
D10*
%TO.C,J1*%
X157813333Y-83282619D02*
X157813333Y-83996904D01*
X157813333Y-83996904D02*
X157860952Y-84139761D01*
X157860952Y-84139761D02*
X157956190Y-84235000D01*
X157956190Y-84235000D02*
X158099047Y-84282619D01*
X158099047Y-84282619D02*
X158194285Y-84282619D01*
X156813333Y-84282619D02*
X157384761Y-84282619D01*
X157099047Y-84282619D02*
X157099047Y-83282619D01*
X157099047Y-83282619D02*
X157194285Y-83425476D01*
X157194285Y-83425476D02*
X157289523Y-83520714D01*
X157289523Y-83520714D02*
X157384761Y-83568333D01*
X146374762Y-84187380D02*
X146422381Y-84235000D01*
X146422381Y-84235000D02*
X146565238Y-84282619D01*
X146565238Y-84282619D02*
X146660476Y-84282619D01*
X146660476Y-84282619D02*
X146803333Y-84235000D01*
X146803333Y-84235000D02*
X146898571Y-84139761D01*
X146898571Y-84139761D02*
X146946190Y-84044523D01*
X146946190Y-84044523D02*
X146993809Y-83854047D01*
X146993809Y-83854047D02*
X146993809Y-83711190D01*
X146993809Y-83711190D02*
X146946190Y-83520714D01*
X146946190Y-83520714D02*
X146898571Y-83425476D01*
X146898571Y-83425476D02*
X146803333Y-83330238D01*
X146803333Y-83330238D02*
X146660476Y-83282619D01*
X146660476Y-83282619D02*
X146565238Y-83282619D01*
X146565238Y-83282619D02*
X146422381Y-83330238D01*
X146422381Y-83330238D02*
X146374762Y-83377857D01*
X145803333Y-84282619D02*
X145898571Y-84235000D01*
X145898571Y-84235000D02*
X145946190Y-84187380D01*
X145946190Y-84187380D02*
X145993809Y-84092142D01*
X145993809Y-84092142D02*
X145993809Y-83806428D01*
X145993809Y-83806428D02*
X145946190Y-83711190D01*
X145946190Y-83711190D02*
X145898571Y-83663571D01*
X145898571Y-83663571D02*
X145803333Y-83615952D01*
X145803333Y-83615952D02*
X145660476Y-83615952D01*
X145660476Y-83615952D02*
X145565238Y-83663571D01*
X145565238Y-83663571D02*
X145517619Y-83711190D01*
X145517619Y-83711190D02*
X145470000Y-83806428D01*
X145470000Y-83806428D02*
X145470000Y-84092142D01*
X145470000Y-84092142D02*
X145517619Y-84187380D01*
X145517619Y-84187380D02*
X145565238Y-84235000D01*
X145565238Y-84235000D02*
X145660476Y-84282619D01*
X145660476Y-84282619D02*
X145803333Y-84282619D01*
X145041428Y-83615952D02*
X145041428Y-84282619D01*
X145041428Y-83711190D02*
X144993809Y-83663571D01*
X144993809Y-83663571D02*
X144898571Y-83615952D01*
X144898571Y-83615952D02*
X144755714Y-83615952D01*
X144755714Y-83615952D02*
X144660476Y-83663571D01*
X144660476Y-83663571D02*
X144612857Y-83758809D01*
X144612857Y-83758809D02*
X144612857Y-84282619D01*
X144136666Y-83615952D02*
X144136666Y-84282619D01*
X144136666Y-83711190D02*
X144089047Y-83663571D01*
X144089047Y-83663571D02*
X143993809Y-83615952D01*
X143993809Y-83615952D02*
X143850952Y-83615952D01*
X143850952Y-83615952D02*
X143755714Y-83663571D01*
X143755714Y-83663571D02*
X143708095Y-83758809D01*
X143708095Y-83758809D02*
X143708095Y-84282619D01*
X143470000Y-84377857D02*
X142708095Y-84377857D01*
X142469999Y-84282619D02*
X142469999Y-83282619D01*
X142469999Y-83282619D02*
X142089047Y-83282619D01*
X142089047Y-83282619D02*
X141993809Y-83330238D01*
X141993809Y-83330238D02*
X141946190Y-83377857D01*
X141946190Y-83377857D02*
X141898571Y-83473095D01*
X141898571Y-83473095D02*
X141898571Y-83615952D01*
X141898571Y-83615952D02*
X141946190Y-83711190D01*
X141946190Y-83711190D02*
X141993809Y-83758809D01*
X141993809Y-83758809D02*
X142089047Y-83806428D01*
X142089047Y-83806428D02*
X142469999Y-83806428D01*
X141469999Y-84282619D02*
X141469999Y-83282619D01*
X140422381Y-84187380D02*
X140470000Y-84235000D01*
X140470000Y-84235000D02*
X140612857Y-84282619D01*
X140612857Y-84282619D02*
X140708095Y-84282619D01*
X140708095Y-84282619D02*
X140850952Y-84235000D01*
X140850952Y-84235000D02*
X140946190Y-84139761D01*
X140946190Y-84139761D02*
X140993809Y-84044523D01*
X140993809Y-84044523D02*
X141041428Y-83854047D01*
X141041428Y-83854047D02*
X141041428Y-83711190D01*
X141041428Y-83711190D02*
X140993809Y-83520714D01*
X140993809Y-83520714D02*
X140946190Y-83425476D01*
X140946190Y-83425476D02*
X140850952Y-83330238D01*
X140850952Y-83330238D02*
X140708095Y-83282619D01*
X140708095Y-83282619D02*
X140612857Y-83282619D01*
X140612857Y-83282619D02*
X140470000Y-83330238D01*
X140470000Y-83330238D02*
X140422381Y-83377857D01*
X139993809Y-84282619D02*
X139993809Y-83282619D01*
X139422381Y-84282619D02*
X139850952Y-83711190D01*
X139422381Y-83282619D02*
X139993809Y-83854047D01*
X138993809Y-84282619D02*
X138993809Y-83615952D01*
X138993809Y-83282619D02*
X139041428Y-83330238D01*
X139041428Y-83330238D02*
X138993809Y-83377857D01*
X138993809Y-83377857D02*
X138946190Y-83330238D01*
X138946190Y-83330238D02*
X138993809Y-83282619D01*
X138993809Y-83282619D02*
X138993809Y-83377857D01*
X138660476Y-83615952D02*
X138279524Y-83615952D01*
X138517619Y-83282619D02*
X138517619Y-84139761D01*
X138517619Y-84139761D02*
X138470000Y-84235000D01*
X138470000Y-84235000D02*
X138374762Y-84282619D01*
X138374762Y-84282619D02*
X138279524Y-84282619D01*
X137517619Y-83615952D02*
X137517619Y-84282619D01*
X137755714Y-83235000D02*
X137993809Y-83949285D01*
X137993809Y-83949285D02*
X137374762Y-83949285D01*
X136850952Y-84282619D02*
X136946190Y-84235000D01*
X136946190Y-84235000D02*
X136993809Y-84187380D01*
X136993809Y-84187380D02*
X137041428Y-84092142D01*
X137041428Y-84092142D02*
X137041428Y-83806428D01*
X137041428Y-83806428D02*
X136993809Y-83711190D01*
X136993809Y-83711190D02*
X136946190Y-83663571D01*
X136946190Y-83663571D02*
X136850952Y-83615952D01*
X136850952Y-83615952D02*
X136708095Y-83615952D01*
X136708095Y-83615952D02*
X136612857Y-83663571D01*
X136612857Y-83663571D02*
X136565238Y-83711190D01*
X136565238Y-83711190D02*
X136517619Y-83806428D01*
X136517619Y-83806428D02*
X136517619Y-84092142D01*
X136517619Y-84092142D02*
X136565238Y-84187380D01*
X136565238Y-84187380D02*
X136612857Y-84235000D01*
X136612857Y-84235000D02*
X136708095Y-84282619D01*
X136708095Y-84282619D02*
X136850952Y-84282619D01*
X136089047Y-84282619D02*
X136089047Y-83615952D01*
X136089047Y-83806428D02*
X136041428Y-83711190D01*
X136041428Y-83711190D02*
X135993809Y-83663571D01*
X135993809Y-83663571D02*
X135898571Y-83615952D01*
X135898571Y-83615952D02*
X135803333Y-83615952D01*
X135565237Y-83282619D02*
X134946190Y-83282619D01*
X134946190Y-83282619D02*
X135279523Y-83663571D01*
X135279523Y-83663571D02*
X135136666Y-83663571D01*
X135136666Y-83663571D02*
X135041428Y-83711190D01*
X135041428Y-83711190D02*
X134993809Y-83758809D01*
X134993809Y-83758809D02*
X134946190Y-83854047D01*
X134946190Y-83854047D02*
X134946190Y-84092142D01*
X134946190Y-84092142D02*
X134993809Y-84187380D01*
X134993809Y-84187380D02*
X135041428Y-84235000D01*
X135041428Y-84235000D02*
X135136666Y-84282619D01*
X135136666Y-84282619D02*
X135422380Y-84282619D01*
X135422380Y-84282619D02*
X135517618Y-84235000D01*
X135517618Y-84235000D02*
X135565237Y-84187380D01*
%TO.C,J3*%
X183213333Y-125192619D02*
X183213333Y-125906904D01*
X183213333Y-125906904D02*
X183260952Y-126049761D01*
X183260952Y-126049761D02*
X183356190Y-126145000D01*
X183356190Y-126145000D02*
X183499047Y-126192619D01*
X183499047Y-126192619D02*
X183594285Y-126192619D01*
X182832380Y-125192619D02*
X182213333Y-125192619D01*
X182213333Y-125192619D02*
X182546666Y-125573571D01*
X182546666Y-125573571D02*
X182403809Y-125573571D01*
X182403809Y-125573571D02*
X182308571Y-125621190D01*
X182308571Y-125621190D02*
X182260952Y-125668809D01*
X182260952Y-125668809D02*
X182213333Y-125764047D01*
X182213333Y-125764047D02*
X182213333Y-126002142D01*
X182213333Y-126002142D02*
X182260952Y-126097380D01*
X182260952Y-126097380D02*
X182308571Y-126145000D01*
X182308571Y-126145000D02*
X182403809Y-126192619D01*
X182403809Y-126192619D02*
X182689523Y-126192619D01*
X182689523Y-126192619D02*
X182784761Y-126145000D01*
X182784761Y-126145000D02*
X182832380Y-126097380D01*
X187777143Y-127367380D02*
X187824762Y-127415000D01*
X187824762Y-127415000D02*
X187967619Y-127462619D01*
X187967619Y-127462619D02*
X188062857Y-127462619D01*
X188062857Y-127462619D02*
X188205714Y-127415000D01*
X188205714Y-127415000D02*
X188300952Y-127319761D01*
X188300952Y-127319761D02*
X188348571Y-127224523D01*
X188348571Y-127224523D02*
X188396190Y-127034047D01*
X188396190Y-127034047D02*
X188396190Y-126891190D01*
X188396190Y-126891190D02*
X188348571Y-126700714D01*
X188348571Y-126700714D02*
X188300952Y-126605476D01*
X188300952Y-126605476D02*
X188205714Y-126510238D01*
X188205714Y-126510238D02*
X188062857Y-126462619D01*
X188062857Y-126462619D02*
X187967619Y-126462619D01*
X187967619Y-126462619D02*
X187824762Y-126510238D01*
X187824762Y-126510238D02*
X187777143Y-126557857D01*
X187205714Y-127462619D02*
X187300952Y-127415000D01*
X187300952Y-127415000D02*
X187348571Y-127367380D01*
X187348571Y-127367380D02*
X187396190Y-127272142D01*
X187396190Y-127272142D02*
X187396190Y-126986428D01*
X187396190Y-126986428D02*
X187348571Y-126891190D01*
X187348571Y-126891190D02*
X187300952Y-126843571D01*
X187300952Y-126843571D02*
X187205714Y-126795952D01*
X187205714Y-126795952D02*
X187062857Y-126795952D01*
X187062857Y-126795952D02*
X186967619Y-126843571D01*
X186967619Y-126843571D02*
X186920000Y-126891190D01*
X186920000Y-126891190D02*
X186872381Y-126986428D01*
X186872381Y-126986428D02*
X186872381Y-127272142D01*
X186872381Y-127272142D02*
X186920000Y-127367380D01*
X186920000Y-127367380D02*
X186967619Y-127415000D01*
X186967619Y-127415000D02*
X187062857Y-127462619D01*
X187062857Y-127462619D02*
X187205714Y-127462619D01*
X186443809Y-126795952D02*
X186443809Y-127462619D01*
X186443809Y-126891190D02*
X186396190Y-126843571D01*
X186396190Y-126843571D02*
X186300952Y-126795952D01*
X186300952Y-126795952D02*
X186158095Y-126795952D01*
X186158095Y-126795952D02*
X186062857Y-126843571D01*
X186062857Y-126843571D02*
X186015238Y-126938809D01*
X186015238Y-126938809D02*
X186015238Y-127462619D01*
X185539047Y-126795952D02*
X185539047Y-127462619D01*
X185539047Y-126891190D02*
X185491428Y-126843571D01*
X185491428Y-126843571D02*
X185396190Y-126795952D01*
X185396190Y-126795952D02*
X185253333Y-126795952D01*
X185253333Y-126795952D02*
X185158095Y-126843571D01*
X185158095Y-126843571D02*
X185110476Y-126938809D01*
X185110476Y-126938809D02*
X185110476Y-127462619D01*
X184872381Y-127557857D02*
X184110476Y-127557857D01*
X183300952Y-127462619D02*
X183634285Y-126986428D01*
X183872380Y-127462619D02*
X183872380Y-126462619D01*
X183872380Y-126462619D02*
X183491428Y-126462619D01*
X183491428Y-126462619D02*
X183396190Y-126510238D01*
X183396190Y-126510238D02*
X183348571Y-126557857D01*
X183348571Y-126557857D02*
X183300952Y-126653095D01*
X183300952Y-126653095D02*
X183300952Y-126795952D01*
X183300952Y-126795952D02*
X183348571Y-126891190D01*
X183348571Y-126891190D02*
X183396190Y-126938809D01*
X183396190Y-126938809D02*
X183491428Y-126986428D01*
X183491428Y-126986428D02*
X183872380Y-126986428D01*
X182919999Y-127176904D02*
X182443809Y-127176904D01*
X183015237Y-127462619D02*
X182681904Y-126462619D01*
X182681904Y-126462619D02*
X182348571Y-127462619D01*
%TO.C,J4*%
X132413333Y-124684619D02*
X132413333Y-125398904D01*
X132413333Y-125398904D02*
X132460952Y-125541761D01*
X132460952Y-125541761D02*
X132556190Y-125637000D01*
X132556190Y-125637000D02*
X132699047Y-125684619D01*
X132699047Y-125684619D02*
X132794285Y-125684619D01*
X131508571Y-125017952D02*
X131508571Y-125684619D01*
X131746666Y-124637000D02*
X131984761Y-125351285D01*
X131984761Y-125351285D02*
X131365714Y-125351285D01*
X137048571Y-127367380D02*
X137096190Y-127415000D01*
X137096190Y-127415000D02*
X137239047Y-127462619D01*
X137239047Y-127462619D02*
X137334285Y-127462619D01*
X137334285Y-127462619D02*
X137477142Y-127415000D01*
X137477142Y-127415000D02*
X137572380Y-127319761D01*
X137572380Y-127319761D02*
X137619999Y-127224523D01*
X137619999Y-127224523D02*
X137667618Y-127034047D01*
X137667618Y-127034047D02*
X137667618Y-126891190D01*
X137667618Y-126891190D02*
X137619999Y-126700714D01*
X137619999Y-126700714D02*
X137572380Y-126605476D01*
X137572380Y-126605476D02*
X137477142Y-126510238D01*
X137477142Y-126510238D02*
X137334285Y-126462619D01*
X137334285Y-126462619D02*
X137239047Y-126462619D01*
X137239047Y-126462619D02*
X137096190Y-126510238D01*
X137096190Y-126510238D02*
X137048571Y-126557857D01*
X136477142Y-127462619D02*
X136572380Y-127415000D01*
X136572380Y-127415000D02*
X136619999Y-127367380D01*
X136619999Y-127367380D02*
X136667618Y-127272142D01*
X136667618Y-127272142D02*
X136667618Y-126986428D01*
X136667618Y-126986428D02*
X136619999Y-126891190D01*
X136619999Y-126891190D02*
X136572380Y-126843571D01*
X136572380Y-126843571D02*
X136477142Y-126795952D01*
X136477142Y-126795952D02*
X136334285Y-126795952D01*
X136334285Y-126795952D02*
X136239047Y-126843571D01*
X136239047Y-126843571D02*
X136191428Y-126891190D01*
X136191428Y-126891190D02*
X136143809Y-126986428D01*
X136143809Y-126986428D02*
X136143809Y-127272142D01*
X136143809Y-127272142D02*
X136191428Y-127367380D01*
X136191428Y-127367380D02*
X136239047Y-127415000D01*
X136239047Y-127415000D02*
X136334285Y-127462619D01*
X136334285Y-127462619D02*
X136477142Y-127462619D01*
X135715237Y-126795952D02*
X135715237Y-127462619D01*
X135715237Y-126891190D02*
X135667618Y-126843571D01*
X135667618Y-126843571D02*
X135572380Y-126795952D01*
X135572380Y-126795952D02*
X135429523Y-126795952D01*
X135429523Y-126795952D02*
X135334285Y-126843571D01*
X135334285Y-126843571D02*
X135286666Y-126938809D01*
X135286666Y-126938809D02*
X135286666Y-127462619D01*
X134810475Y-126795952D02*
X134810475Y-127462619D01*
X134810475Y-126891190D02*
X134762856Y-126843571D01*
X134762856Y-126843571D02*
X134667618Y-126795952D01*
X134667618Y-126795952D02*
X134524761Y-126795952D01*
X134524761Y-126795952D02*
X134429523Y-126843571D01*
X134429523Y-126843571D02*
X134381904Y-126938809D01*
X134381904Y-126938809D02*
X134381904Y-127462619D01*
X134143809Y-127557857D02*
X133381904Y-127557857D01*
X132572380Y-127462619D02*
X132905713Y-126986428D01*
X133143808Y-127462619D02*
X133143808Y-126462619D01*
X133143808Y-126462619D02*
X132762856Y-126462619D01*
X132762856Y-126462619D02*
X132667618Y-126510238D01*
X132667618Y-126510238D02*
X132619999Y-126557857D01*
X132619999Y-126557857D02*
X132572380Y-126653095D01*
X132572380Y-126653095D02*
X132572380Y-126795952D01*
X132572380Y-126795952D02*
X132619999Y-126891190D01*
X132619999Y-126891190D02*
X132667618Y-126938809D01*
X132667618Y-126938809D02*
X132762856Y-126986428D01*
X132762856Y-126986428D02*
X133143808Y-126986428D01*
X131572380Y-127367380D02*
X131619999Y-127415000D01*
X131619999Y-127415000D02*
X131762856Y-127462619D01*
X131762856Y-127462619D02*
X131858094Y-127462619D01*
X131858094Y-127462619D02*
X132000951Y-127415000D01*
X132000951Y-127415000D02*
X132096189Y-127319761D01*
X132096189Y-127319761D02*
X132143808Y-127224523D01*
X132143808Y-127224523D02*
X132191427Y-127034047D01*
X132191427Y-127034047D02*
X132191427Y-126891190D01*
X132191427Y-126891190D02*
X132143808Y-126700714D01*
X132143808Y-126700714D02*
X132096189Y-126605476D01*
X132096189Y-126605476D02*
X132000951Y-126510238D01*
X132000951Y-126510238D02*
X131858094Y-126462619D01*
X131858094Y-126462619D02*
X131762856Y-126462619D01*
X131762856Y-126462619D02*
X131619999Y-126510238D01*
X131619999Y-126510238D02*
X131572380Y-126557857D01*
%TO.C,REF\u002A\u002A*%
D11*
X192654494Y-78939107D02*
X191553002Y-78939107D01*
X191553002Y-77837615D01*
X192654494Y-77837615D01*
X192654494Y-78939107D01*
G36*
X192654494Y-78939107D02*
G01*
X191553002Y-78939107D01*
X191553002Y-77837615D01*
X192654494Y-77837615D01*
X192654494Y-78939107D01*
G37*
X192654494Y-130624507D02*
X191553002Y-130624507D01*
X191553002Y-129523013D01*
X192654494Y-129523013D01*
X192654494Y-130624507D01*
G36*
X192654494Y-130624507D02*
G01*
X191553002Y-130624507D01*
X191553002Y-129523013D01*
X192654494Y-129523013D01*
X192654494Y-130624507D01*
G37*
X190536240Y-78939107D02*
X189434748Y-78939107D01*
X189434748Y-77837615D01*
X190536240Y-77837615D01*
X190536240Y-78939107D01*
G36*
X190536240Y-78939107D02*
G01*
X189434748Y-78939107D01*
X189434748Y-77837615D01*
X190536240Y-77837615D01*
X190536240Y-78939107D01*
G37*
X190536240Y-130624507D02*
X189434748Y-130624507D01*
X189434748Y-129523013D01*
X190536240Y-129523013D01*
X190536240Y-130624507D01*
G36*
X190536240Y-130624507D02*
G01*
X189434748Y-130624507D01*
X189434748Y-129523013D01*
X190536240Y-129523013D01*
X190536240Y-130624507D01*
G37*
X188417986Y-78939107D02*
X187316494Y-78939107D01*
X187316494Y-77837615D01*
X188417986Y-77837615D01*
X188417986Y-78939107D01*
G36*
X188417986Y-78939107D02*
G01*
X187316494Y-78939107D01*
X187316494Y-77837615D01*
X188417986Y-77837615D01*
X188417986Y-78939107D01*
G37*
X188417986Y-130624507D02*
X187316494Y-130624507D01*
X187316494Y-129523013D01*
X188417986Y-129523013D01*
X188417986Y-130624507D01*
G36*
X188417986Y-130624507D02*
G01*
X187316494Y-130624507D01*
X187316494Y-129523013D01*
X188417986Y-129523013D01*
X188417986Y-130624507D01*
G37*
X186299731Y-78939107D02*
X185198240Y-78939107D01*
X185198240Y-77837615D01*
X186299731Y-77837615D01*
X186299731Y-78939107D01*
G36*
X186299731Y-78939107D02*
G01*
X185198240Y-78939107D01*
X185198240Y-77837615D01*
X186299731Y-77837615D01*
X186299731Y-78939107D01*
G37*
X186299731Y-130624507D02*
X185198240Y-130624507D01*
X185198240Y-129523013D01*
X186299731Y-129523013D01*
X186299731Y-130624507D01*
G36*
X186299731Y-130624507D02*
G01*
X185198240Y-130624507D01*
X185198240Y-129523013D01*
X186299731Y-129523013D01*
X186299731Y-130624507D01*
G37*
X184181478Y-78939107D02*
X183079986Y-78939107D01*
X183079986Y-77837615D01*
X184181478Y-77837615D01*
X184181478Y-78939107D01*
G36*
X184181478Y-78939107D02*
G01*
X183079986Y-78939107D01*
X183079986Y-77837615D01*
X184181478Y-77837615D01*
X184181478Y-78939107D01*
G37*
X184181478Y-130624507D02*
X183079986Y-130624507D01*
X183079986Y-129523013D01*
X184181478Y-129523013D01*
X184181478Y-130624507D01*
G36*
X184181478Y-130624507D02*
G01*
X183079986Y-130624507D01*
X183079986Y-129523013D01*
X184181478Y-129523013D01*
X184181478Y-130624507D01*
G37*
X182063223Y-78939107D02*
X180961731Y-78939107D01*
X180961731Y-77837615D01*
X182063223Y-77837615D01*
X182063223Y-78939107D01*
G36*
X182063223Y-78939107D02*
G01*
X180961731Y-78939107D01*
X180961731Y-77837615D01*
X182063223Y-77837615D01*
X182063223Y-78939107D01*
G37*
X178758747Y-93173773D02*
X178335096Y-93173773D01*
X178335096Y-92665393D01*
X178758747Y-92665393D01*
X178758747Y-93173773D01*
G36*
X178758747Y-93173773D02*
G01*
X178335096Y-93173773D01*
X178335096Y-92665393D01*
X178758747Y-92665393D01*
X178758747Y-93173773D01*
G37*
X177741985Y-93089043D02*
X177318333Y-93089043D01*
X177318333Y-92580662D01*
X177741985Y-92580662D01*
X177741985Y-93089043D01*
G36*
X177741985Y-93089043D02*
G01*
X177318333Y-93089043D01*
X177318333Y-92580662D01*
X177741985Y-92580662D01*
X177741985Y-93089043D01*
G37*
X177741985Y-95800410D02*
X177318333Y-95800410D01*
X177318333Y-93343236D01*
X177741985Y-93343236D01*
X177741985Y-95800410D01*
G36*
X177741985Y-95800410D02*
G01*
X177318333Y-95800410D01*
X177318333Y-93343236D01*
X177741985Y-93343236D01*
X177741985Y-95800410D01*
G37*
X177572524Y-103256663D02*
X177148874Y-103256663D01*
X177148874Y-102748282D01*
X177572524Y-102748282D01*
X177572524Y-103256663D01*
G36*
X177572524Y-103256663D02*
G01*
X177148874Y-103256663D01*
X177148874Y-102748282D01*
X177572524Y-102748282D01*
X177572524Y-103256663D01*
G37*
X177572524Y-105968030D02*
X177148874Y-105968030D01*
X177148874Y-103510855D01*
X177572524Y-103510855D01*
X177572524Y-105968030D01*
G36*
X177572524Y-105968030D02*
G01*
X177148874Y-105968030D01*
X177148874Y-103510855D01*
X177572524Y-103510855D01*
X177572524Y-105968030D01*
G37*
X175454271Y-113254824D02*
X175030620Y-113254824D01*
X175030620Y-112746443D01*
X175454271Y-112746443D01*
X175454271Y-113254824D01*
G36*
X175454271Y-113254824D02*
G01*
X175030620Y-113254824D01*
X175030620Y-112746443D01*
X175454271Y-112746443D01*
X175454271Y-113254824D01*
G37*
X175454271Y-115966189D02*
X175030620Y-115966189D01*
X175030620Y-113509013D01*
X175454271Y-113509013D01*
X175454271Y-115966189D01*
G36*
X175454271Y-115966189D02*
G01*
X175030620Y-115966189D01*
X175030620Y-113509013D01*
X175454271Y-113509013D01*
X175454271Y-115966189D01*
G37*
X175708461Y-130709231D02*
X174606967Y-130709231D01*
X174606967Y-129607737D01*
X175708461Y-129607737D01*
X175708461Y-130709231D01*
G36*
X175708461Y-130709231D02*
G01*
X174606967Y-130709231D01*
X174606967Y-129607737D01*
X175708461Y-129607737D01*
X175708461Y-130709231D01*
G37*
X173590207Y-130709231D02*
X172488713Y-130709231D01*
X172488713Y-129607737D01*
X173590207Y-129607737D01*
X173590207Y-130709231D01*
G36*
X173590207Y-130709231D02*
G01*
X172488713Y-130709231D01*
X172488713Y-129607737D01*
X173590207Y-129607737D01*
X173590207Y-130709231D01*
G37*
X172742906Y-116474570D02*
X170709382Y-116474570D01*
X170709382Y-116050917D01*
X172742906Y-116050917D01*
X172742906Y-116474570D01*
G36*
X172742906Y-116474570D02*
G01*
X170709382Y-116474570D01*
X170709382Y-116050917D01*
X172742906Y-116050917D01*
X172742906Y-116474570D01*
G37*
X171471952Y-79023837D02*
X170370458Y-79023837D01*
X170370458Y-77922345D01*
X171471952Y-77922345D01*
X171471952Y-79023837D01*
G36*
X171471952Y-79023837D02*
G01*
X170370458Y-79023837D01*
X170370458Y-77922345D01*
X171471952Y-77922345D01*
X171471952Y-79023837D01*
G37*
X171471952Y-130709231D02*
X170370458Y-130709231D01*
X170370458Y-129607737D01*
X171471952Y-129607737D01*
X171471952Y-130709231D01*
G36*
X171471952Y-130709231D02*
G01*
X170370458Y-130709231D01*
X170370458Y-129607737D01*
X171471952Y-129607737D01*
X171471952Y-130709231D01*
G37*
X170455190Y-95800412D02*
X170116269Y-95800412D01*
X170116269Y-93343237D01*
X170455190Y-93343237D01*
X170455190Y-95800412D01*
G36*
X170455190Y-95800412D02*
G01*
X170116269Y-95800412D01*
X170116269Y-93343237D01*
X170455190Y-93343237D01*
X170455190Y-95800412D01*
G37*
X169353698Y-79023837D02*
X168252204Y-79023837D01*
X168252204Y-77922345D01*
X169353698Y-77922345D01*
X169353698Y-79023837D01*
G36*
X169353698Y-79023837D02*
G01*
X168252204Y-79023837D01*
X168252204Y-77922345D01*
X169353698Y-77922345D01*
X169353698Y-79023837D01*
G37*
X169353698Y-130709231D02*
X168252204Y-130709231D01*
X168252204Y-129607737D01*
X169353698Y-129607737D01*
X169353698Y-130709231D01*
G36*
X169353698Y-130709231D02*
G01*
X168252204Y-130709231D01*
X168252204Y-129607737D01*
X169353698Y-129607737D01*
X169353698Y-130709231D01*
G37*
X167235444Y-79023837D02*
X166133950Y-79023837D01*
X166133950Y-77922345D01*
X167235444Y-77922345D01*
X167235444Y-79023837D01*
G36*
X167235444Y-79023837D02*
G01*
X166133950Y-79023837D01*
X166133950Y-77922345D01*
X167235444Y-77922345D01*
X167235444Y-79023837D01*
G37*
X167235444Y-130709231D02*
X166133950Y-130709231D01*
X166133950Y-129607737D01*
X167235444Y-129607737D01*
X167235444Y-130709231D01*
G36*
X167235444Y-130709231D02*
G01*
X166133950Y-130709231D01*
X166133950Y-129607737D01*
X167235444Y-129607737D01*
X167235444Y-130709231D01*
G37*
X165117191Y-79023838D02*
X164015697Y-79023838D01*
X164015697Y-77922345D01*
X165117191Y-77922345D01*
X165117191Y-79023838D01*
G36*
X165117191Y-79023838D02*
G01*
X164015697Y-79023838D01*
X164015697Y-77922345D01*
X165117191Y-77922345D01*
X165117191Y-79023838D01*
G37*
X165117191Y-130709231D02*
X164015697Y-130709231D01*
X164015697Y-129607737D01*
X165117191Y-129607737D01*
X165117191Y-130709231D01*
G36*
X165117191Y-130709231D02*
G01*
X164015697Y-130709231D01*
X164015697Y-129607737D01*
X165117191Y-129607737D01*
X165117191Y-130709231D01*
G37*
X162998937Y-79023838D02*
X161897443Y-79023838D01*
X161897443Y-77922345D01*
X162998937Y-77922345D01*
X162998937Y-79023838D01*
G36*
X162998937Y-79023838D02*
G01*
X161897443Y-79023838D01*
X161897443Y-77922345D01*
X162998937Y-77922345D01*
X162998937Y-79023838D01*
G37*
X162998937Y-130709231D02*
X161897443Y-130709231D01*
X161897443Y-129607737D01*
X162998937Y-129607737D01*
X162998937Y-130709231D01*
G36*
X162998937Y-130709231D02*
G01*
X161897443Y-130709231D01*
X161897443Y-129607737D01*
X162998937Y-129607737D01*
X162998937Y-130709231D01*
G37*
X158762428Y-79023837D02*
X157660934Y-79023837D01*
X157660934Y-77922345D01*
X158762428Y-77922345D01*
X158762428Y-79023837D01*
G36*
X158762428Y-79023837D02*
G01*
X157660934Y-79023837D01*
X157660934Y-77922345D01*
X158762428Y-77922345D01*
X158762428Y-79023837D01*
G37*
X157915126Y-105968030D02*
X157576205Y-105968030D01*
X157576205Y-103510855D01*
X157915126Y-103510855D01*
X157915126Y-105968030D01*
G36*
X157915126Y-105968030D02*
G01*
X157576205Y-105968030D01*
X157576205Y-103510855D01*
X157915126Y-103510855D01*
X157915126Y-105968030D01*
G37*
X154525920Y-93089043D02*
X154102267Y-93089043D01*
X154102267Y-92580662D01*
X154525920Y-92580662D01*
X154525920Y-93089043D01*
G36*
X154525920Y-93089043D02*
G01*
X154102267Y-93089043D01*
X154102267Y-92580662D01*
X154525920Y-92580662D01*
X154525920Y-93089043D01*
G37*
X154525920Y-95800412D02*
X154102267Y-95800412D01*
X154102267Y-93343237D01*
X154525920Y-93343237D01*
X154525920Y-95800412D01*
G36*
X154525920Y-95800412D02*
G01*
X154102267Y-95800412D01*
X154102267Y-93343237D01*
X154525920Y-93343237D01*
X154525920Y-95800412D01*
G37*
X152407665Y-130793959D02*
X151306171Y-130793959D01*
X151306171Y-129692465D01*
X152407665Y-129692465D01*
X152407665Y-130793959D01*
G36*
X152407665Y-130793959D02*
G01*
X151306171Y-130793959D01*
X151306171Y-129692465D01*
X152407665Y-129692465D01*
X152407665Y-130793959D01*
G37*
X150289413Y-79108568D02*
X149187919Y-79108568D01*
X149187919Y-78007076D01*
X150289413Y-78007076D01*
X150289413Y-79108568D01*
G36*
X150289413Y-79108568D02*
G01*
X149187919Y-79108568D01*
X149187919Y-78007076D01*
X150289413Y-78007076D01*
X150289413Y-79108568D01*
G37*
X150289413Y-130793959D02*
X149187919Y-130793959D01*
X149187919Y-129692465D01*
X150289413Y-129692465D01*
X150289413Y-130793959D01*
G36*
X150289413Y-130793959D02*
G01*
X149187919Y-130793959D01*
X149187919Y-129692465D01*
X150289413Y-129692465D01*
X150289413Y-130793959D01*
G37*
X148171157Y-79108568D02*
X147069663Y-79108568D01*
X147069663Y-78007076D01*
X148171157Y-78007076D01*
X148171157Y-79108568D01*
G36*
X148171157Y-79108568D02*
G01*
X147069663Y-79108568D01*
X147069663Y-78007076D01*
X148171157Y-78007076D01*
X148171157Y-79108568D01*
G37*
X148171157Y-130793959D02*
X147069663Y-130793959D01*
X147069663Y-129692465D01*
X148171157Y-129692465D01*
X148171157Y-130793959D01*
G36*
X148171157Y-130793959D02*
G01*
X147069663Y-130793959D01*
X147069663Y-129692465D01*
X148171157Y-129692465D01*
X148171157Y-130793959D01*
G37*
X146052901Y-79108568D02*
X144951408Y-79108568D01*
X144951408Y-78007076D01*
X146052901Y-78007076D01*
X146052901Y-79108568D01*
G36*
X146052901Y-79108568D02*
G01*
X144951408Y-79108568D01*
X144951408Y-78007076D01*
X146052901Y-78007076D01*
X146052901Y-79108568D01*
G37*
X146052901Y-130793959D02*
X144951408Y-130793959D01*
X144951408Y-129692465D01*
X146052901Y-129692465D01*
X146052901Y-130793959D01*
G36*
X146052901Y-130793959D02*
G01*
X144951408Y-130793959D01*
X144951408Y-129692465D01*
X146052901Y-129692465D01*
X146052901Y-130793959D01*
G37*
X143934650Y-79108568D02*
X142833156Y-79108568D01*
X142833156Y-78007076D01*
X143934650Y-78007076D01*
X143934650Y-79108568D01*
G36*
X143934650Y-79108568D02*
G01*
X142833156Y-79108568D01*
X142833156Y-78007076D01*
X143934650Y-78007076D01*
X143934650Y-79108568D01*
G37*
X143934650Y-130793959D02*
X142833156Y-130793959D01*
X142833156Y-129692465D01*
X143934650Y-129692465D01*
X143934650Y-130793959D01*
G36*
X143934650Y-130793959D02*
G01*
X142833156Y-130793959D01*
X142833156Y-129692465D01*
X143934650Y-129692465D01*
X143934650Y-130793959D01*
G37*
X141816394Y-79108568D02*
X140714900Y-79108568D01*
X140714900Y-78007076D01*
X141816394Y-78007076D01*
X141816394Y-79108568D01*
G36*
X141816394Y-79108568D02*
G01*
X140714900Y-79108568D01*
X140714900Y-78007076D01*
X141816394Y-78007076D01*
X141816394Y-79108568D01*
G37*
X141816394Y-130793959D02*
X140714900Y-130793959D01*
X140714900Y-129692465D01*
X141816394Y-129692465D01*
X141816394Y-130793959D01*
G36*
X141816394Y-130793959D02*
G01*
X140714900Y-130793959D01*
X140714900Y-129692465D01*
X141816394Y-129692465D01*
X141816394Y-130793959D01*
G37*
X139698138Y-79108568D02*
X138596645Y-79108568D01*
X138596645Y-78007076D01*
X139698138Y-78007076D01*
X139698138Y-79108568D01*
G36*
X139698138Y-79108568D02*
G01*
X138596645Y-79108568D01*
X138596645Y-78007076D01*
X139698138Y-78007076D01*
X139698138Y-79108568D01*
G37*
X139698138Y-130793959D02*
X138596645Y-130793959D01*
X138596645Y-129692465D01*
X139698138Y-129692465D01*
X139698138Y-130793959D01*
G36*
X139698138Y-130793959D02*
G01*
X138596645Y-130793959D01*
X138596645Y-129692465D01*
X139698138Y-129692465D01*
X139698138Y-130793959D01*
G37*
X137579887Y-79108568D02*
X136478393Y-79108568D01*
X136478393Y-78007076D01*
X137579887Y-78007076D01*
X137579887Y-79108568D01*
G36*
X137579887Y-79108568D02*
G01*
X136478393Y-79108568D01*
X136478393Y-78007076D01*
X137579887Y-78007076D01*
X137579887Y-79108568D01*
G37*
X135461631Y-79108568D02*
X134360137Y-79108568D01*
X134360137Y-78007076D01*
X135461631Y-78007076D01*
X135461631Y-79108568D01*
G36*
X135461631Y-79108568D02*
G01*
X134360137Y-79108568D01*
X134360137Y-78007076D01*
X135461631Y-78007076D01*
X135461631Y-79108568D01*
G37*
X132750266Y-101731520D02*
X131818237Y-101731520D01*
X131818237Y-100799489D01*
X132750266Y-100799489D01*
X132750266Y-101731520D01*
G36*
X132750266Y-101731520D02*
G01*
X131818237Y-101731520D01*
X131818237Y-100799489D01*
X132750266Y-100799489D01*
X132750266Y-101731520D01*
G37*
X130886199Y-104612351D02*
X129954170Y-104612351D01*
X129954170Y-103680319D01*
X130886199Y-103680319D01*
X130886199Y-104612351D01*
G36*
X130886199Y-104612351D02*
G01*
X129954170Y-104612351D01*
X129954170Y-103680319D01*
X130886199Y-103680319D01*
X130886199Y-104612351D01*
G37*
X130886203Y-95122567D02*
X128005378Y-95122567D01*
X128005378Y-92241743D01*
X130886203Y-92241743D01*
X130886203Y-95122567D01*
G36*
X130886203Y-95122567D02*
G01*
X128005378Y-95122567D01*
X128005378Y-92241743D01*
X130886203Y-92241743D01*
X130886203Y-95122567D01*
G37*
X130886203Y-112238066D02*
X128005378Y-112238066D01*
X128005378Y-109357237D01*
X130886203Y-109357237D01*
X130886203Y-112238066D01*
G36*
X130886203Y-112238066D02*
G01*
X128005378Y-112238066D01*
X128005378Y-109357237D01*
X130886203Y-109357237D01*
X130886203Y-112238066D01*
G37*
X129106868Y-130878695D02*
X128005378Y-130878695D01*
X128005378Y-129777201D01*
X129106868Y-129777201D01*
X129106868Y-130878695D01*
G36*
X129106868Y-130878695D02*
G01*
X128005378Y-130878695D01*
X128005378Y-129777201D01*
X129106868Y-129777201D01*
X129106868Y-130878695D01*
G37*
X128005378Y-106476414D02*
X126141319Y-106476414D01*
X126141319Y-105544381D01*
X128005378Y-105544381D01*
X128005378Y-106476414D01*
G36*
X128005378Y-106476414D02*
G01*
X126141319Y-106476414D01*
X126141319Y-105544381D01*
X128005378Y-105544381D01*
X128005378Y-106476414D01*
G37*
X126988616Y-79193298D02*
X125887122Y-79193298D01*
X125887122Y-78091806D01*
X126988616Y-78091806D01*
X126988616Y-79193298D01*
G36*
X126988616Y-79193298D02*
G01*
X125887122Y-79193298D01*
X125887122Y-78091806D01*
X126988616Y-78091806D01*
X126988616Y-79193298D01*
G37*
X126988616Y-130878695D02*
X125887122Y-130878695D01*
X125887122Y-129777201D01*
X126988616Y-129777201D01*
X126988616Y-130878695D01*
G36*
X126988616Y-130878695D02*
G01*
X125887122Y-130878695D01*
X125887122Y-129777201D01*
X126988616Y-129777201D01*
X126988616Y-130878695D01*
G37*
X125209281Y-114102126D02*
X124192512Y-114102126D01*
X124192512Y-113170096D01*
X125209281Y-113170096D01*
X125209281Y-114102126D01*
G36*
X125209281Y-114102126D02*
G01*
X124192512Y-114102126D01*
X124192512Y-113170096D01*
X125209281Y-113170096D01*
X125209281Y-114102126D01*
G37*
X124870361Y-79193298D02*
X123768874Y-79193298D01*
X123768874Y-78091806D01*
X124870361Y-78091806D01*
X124870361Y-79193298D01*
G36*
X124870361Y-79193298D02*
G01*
X123768874Y-79193298D01*
X123768874Y-78091806D01*
X124870361Y-78091806D01*
X124870361Y-79193298D01*
G37*
X124870361Y-130878695D02*
X123768874Y-130878695D01*
X123768874Y-129777201D01*
X124870361Y-129777201D01*
X124870361Y-130878695D01*
G36*
X124870361Y-130878695D02*
G01*
X123768874Y-130878695D01*
X123768874Y-129777201D01*
X124870361Y-129777201D01*
X124870361Y-130878695D01*
G37*
X122328452Y-107408442D02*
X122328437Y-107408442D01*
X122328437Y-107408438D01*
X122328452Y-107408438D01*
X122328452Y-107408442D01*
G36*
X122328452Y-107408442D02*
G01*
X122328437Y-107408442D01*
X122328437Y-107408438D01*
X122328452Y-107408438D01*
X122328452Y-107408442D01*
G37*
X122752105Y-79193298D02*
X121650619Y-79193298D01*
X121650619Y-78091806D01*
X122752105Y-78091806D01*
X122752105Y-79193298D01*
G36*
X122752105Y-79193298D02*
G01*
X121650619Y-79193298D01*
X121650619Y-78091806D01*
X122752105Y-78091806D01*
X122752105Y-79193298D01*
G37*
X122752105Y-130878695D02*
X121650619Y-130878695D01*
X121650619Y-129777201D01*
X122752105Y-129777201D01*
X122752105Y-130878695D01*
G36*
X122752105Y-130878695D02*
G01*
X121650619Y-130878695D01*
X121650619Y-129777201D01*
X122752105Y-129777201D01*
X122752105Y-130878695D01*
G37*
X120633849Y-79193298D02*
X119532363Y-79193298D01*
X119532363Y-78091806D01*
X120633849Y-78091806D01*
X120633849Y-79193298D01*
G36*
X120633849Y-79193298D02*
G01*
X119532363Y-79193298D01*
X119532363Y-78091806D01*
X120633849Y-78091806D01*
X120633849Y-79193298D01*
G37*
X120464393Y-91309711D02*
X119447623Y-91309711D01*
X119447623Y-90377679D01*
X120464393Y-90377679D01*
X120464393Y-91309711D01*
G36*
X120464393Y-91309711D02*
G01*
X119447623Y-91309711D01*
X119447623Y-90377679D01*
X120464393Y-90377679D01*
X120464393Y-91309711D01*
G37*
X120464393Y-108425202D02*
X119447623Y-108425202D01*
X119447623Y-107408440D01*
X120464393Y-107408440D01*
X120464393Y-108425202D01*
G36*
X120464393Y-108425202D02*
G01*
X119447623Y-108425202D01*
X119447623Y-107408440D01*
X120464393Y-107408440D01*
X120464393Y-108425202D01*
G37*
X117583564Y-97918664D02*
X116651527Y-97918664D01*
X116651527Y-96054600D01*
X117583564Y-96054600D01*
X117583564Y-97918664D01*
G36*
X117583564Y-97918664D02*
G01*
X116651527Y-97918664D01*
X116651527Y-96054600D01*
X117583564Y-96054600D01*
X117583564Y-97918664D01*
G37*
X115719505Y-108425202D02*
X114702735Y-108425202D01*
X114702735Y-107408440D01*
X115719505Y-107408440D01*
X115719505Y-108425202D01*
G36*
X115719505Y-108425202D02*
G01*
X114702735Y-108425202D01*
X114702735Y-107408440D01*
X115719505Y-107408440D01*
X115719505Y-108425202D01*
G37*
X113770721Y-99867459D02*
X113770690Y-99867459D01*
X113770690Y-99867457D01*
X113770721Y-99867457D01*
X113770721Y-99867459D01*
G36*
X113770721Y-99867459D02*
G01*
X113770690Y-99867459D01*
X113770690Y-99867457D01*
X113770721Y-99867457D01*
X113770721Y-99867459D01*
G37*
X113770736Y-102663560D02*
X113770690Y-102663560D01*
X113770690Y-102663556D01*
X113770736Y-102663556D01*
X113770736Y-102663560D01*
G36*
X113770736Y-102663560D02*
G01*
X113770690Y-102663560D01*
X113770690Y-102663556D01*
X113770736Y-102663556D01*
X113770736Y-102663560D01*
G37*
X111906661Y-102663554D02*
X111906646Y-102663554D01*
X111906646Y-102663550D01*
X111906661Y-102663550D01*
X111906661Y-102663554D01*
G36*
X111906661Y-102663554D02*
G01*
X111906646Y-102663554D01*
X111906646Y-102663550D01*
X111906661Y-102663550D01*
X111906661Y-102663554D01*
G37*
X111567725Y-121558379D02*
X111144080Y-121558379D01*
X111144080Y-121219458D01*
X111567725Y-121219458D01*
X111567725Y-121558379D01*
G36*
X111567725Y-121558379D02*
G01*
X111144080Y-121558379D01*
X111144080Y-121219458D01*
X111567725Y-121219458D01*
X111567725Y-121558379D01*
G37*
X111906661Y-106476409D02*
X110889892Y-106476409D01*
X110889892Y-105544375D01*
X111906661Y-105544375D01*
X111906661Y-106476409D01*
G36*
X111906661Y-106476409D02*
G01*
X110889892Y-106476409D01*
X110889892Y-105544375D01*
X111906661Y-105544375D01*
X111906661Y-106476409D01*
G37*
X113770705Y-95122567D02*
X110889877Y-95122567D01*
X110889877Y-92241743D01*
X113770705Y-92241743D01*
X113770705Y-95122567D01*
G36*
X113770705Y-95122567D02*
G01*
X110889877Y-95122567D01*
X110889877Y-92241743D01*
X113770705Y-92241743D01*
X113770705Y-95122567D01*
G37*
X111906646Y-108425202D02*
X109025832Y-108425202D01*
X109025832Y-107408440D01*
X111906646Y-107408440D01*
X111906646Y-108425202D01*
G36*
X111906646Y-108425202D02*
G01*
X109025832Y-108425202D01*
X109025832Y-107408440D01*
X111906646Y-107408440D01*
X111906646Y-108425202D01*
G37*
X160880681Y-78473091D02*
X160880679Y-79023837D01*
X159779186Y-79023837D01*
X159779186Y-77922345D01*
X160880681Y-77922345D01*
X160880681Y-78473091D01*
G36*
X160880681Y-78473091D02*
G01*
X160880679Y-79023837D01*
X159779186Y-79023837D01*
X159779186Y-77922345D01*
X160880681Y-77922345D01*
X160880681Y-78473091D01*
G37*
X160880681Y-130158484D02*
X160880679Y-130709231D01*
X159779186Y-130709231D01*
X159779186Y-129607737D01*
X160880681Y-129607737D01*
X160880681Y-130158484D01*
G36*
X160880681Y-130158484D02*
G01*
X160880679Y-130709231D01*
X159779186Y-130709231D01*
X159779186Y-129607737D01*
X160880681Y-129607737D01*
X160880681Y-130158484D01*
G37*
X158720065Y-129650103D02*
X158745116Y-130222033D01*
X158770171Y-130793948D01*
X157660938Y-130793948D01*
X157660938Y-129599642D01*
X158720065Y-129650103D01*
G36*
X158720065Y-129650103D02*
G01*
X158745116Y-130222033D01*
X158770171Y-130793948D01*
X157660938Y-130793948D01*
X157660938Y-129599642D01*
X158720065Y-129650103D01*
G37*
X157933200Y-103002472D02*
X157895900Y-103256663D01*
X157595451Y-103256663D01*
X157520828Y-102748282D01*
X157970512Y-102748282D01*
X157933200Y-103002472D01*
G36*
X157933200Y-103002472D02*
G01*
X157895900Y-103256663D01*
X157595451Y-103256663D01*
X157520828Y-102748282D01*
X157970512Y-102748282D01*
X157933200Y-103002472D01*
G37*
X156601810Y-129650103D02*
X156626861Y-130222033D01*
X156651920Y-130793948D01*
X155542682Y-130793948D01*
X155542682Y-129599642D01*
X156601810Y-129650103D01*
G36*
X156601810Y-129650103D02*
G01*
X156626861Y-130222033D01*
X156651920Y-130793948D01*
X155542682Y-130793948D01*
X155542682Y-129599642D01*
X156601810Y-129650103D01*
G37*
X132750266Y-119113001D02*
X132559623Y-119085921D01*
X132368980Y-119058840D01*
X132315360Y-118592822D01*
X132750266Y-118592822D01*
X132750266Y-119113001D01*
G36*
X132750266Y-119113001D02*
G01*
X132559623Y-119085921D01*
X132368980Y-119058840D01*
X132315360Y-118592822D01*
X132750266Y-118592822D01*
X132750266Y-119113001D01*
G37*
X131818233Y-119028273D02*
X131627589Y-119001193D01*
X131436946Y-118974112D01*
X131383327Y-118508093D01*
X131818233Y-118508093D01*
X131818233Y-119028273D01*
G36*
X131818233Y-119028273D02*
G01*
X131627589Y-119001193D01*
X131436946Y-118974112D01*
X131383327Y-118508093D01*
X131818233Y-118508093D01*
X131818233Y-119028273D01*
G37*
X129022140Y-119990870D02*
X129022144Y-120202696D01*
X127835922Y-120202696D01*
X127835922Y-119779044D01*
X129022140Y-119779044D01*
X129022140Y-119990870D01*
G36*
X129022140Y-119990870D02*
G01*
X129022144Y-120202696D01*
X127835922Y-120202696D01*
X127835922Y-119779044D01*
X129022140Y-119779044D01*
X129022140Y-119990870D01*
G37*
X119447631Y-119028273D02*
X119256988Y-119001193D01*
X119066344Y-118974112D01*
X119012725Y-118508093D01*
X119447631Y-118508093D01*
X119447631Y-119028273D01*
G36*
X119447631Y-119028273D02*
G01*
X119256988Y-119001193D01*
X119066344Y-118974112D01*
X119012725Y-118508093D01*
X119447631Y-118508093D01*
X119447631Y-119028273D01*
G37*
X182063223Y-130717322D02*
X181533660Y-130692103D01*
X181004096Y-130666873D01*
X181004096Y-129565379D01*
X181533660Y-129540148D01*
X182063223Y-129514929D01*
X182063223Y-130717322D01*
G36*
X182063223Y-130717322D02*
G01*
X181533660Y-130692103D01*
X181004096Y-130666873D01*
X181004096Y-129565379D01*
X181533660Y-129540148D01*
X182063223Y-129514929D01*
X182063223Y-130717322D01*
G37*
X179944969Y-130717322D02*
X179415406Y-130692103D01*
X178885843Y-130666873D01*
X178885843Y-129565379D01*
X179415406Y-129540148D01*
X179944969Y-129514929D01*
X179944969Y-130717322D01*
G36*
X179944969Y-130717322D02*
G01*
X179415406Y-130692103D01*
X178885843Y-130666873D01*
X178885843Y-129565379D01*
X179415406Y-129540148D01*
X179944969Y-129514929D01*
X179944969Y-130717322D01*
G37*
X177826715Y-79031925D02*
X177297151Y-79006698D01*
X176767588Y-78981472D01*
X176767588Y-77879980D01*
X177297151Y-77854755D01*
X177826715Y-77829529D01*
X177826715Y-79031925D01*
G36*
X177826715Y-79031925D02*
G01*
X177297151Y-79006698D01*
X176767588Y-78981472D01*
X176767588Y-77879980D01*
X177297151Y-77854755D01*
X177826715Y-77829529D01*
X177826715Y-79031925D01*
G37*
X177826715Y-130717322D02*
X177297151Y-130692103D01*
X176767588Y-130666873D01*
X176767588Y-129565379D01*
X177297151Y-129540148D01*
X177826715Y-129514929D01*
X177826715Y-130717322D01*
G36*
X177826715Y-130717322D02*
G01*
X177297151Y-130692103D01*
X176767588Y-130666873D01*
X176767588Y-129565379D01*
X177297151Y-129540148D01*
X177826715Y-129514929D01*
X177826715Y-130717322D01*
G37*
X175708461Y-79031925D02*
X175178897Y-79006698D01*
X174649333Y-78981472D01*
X174649333Y-77879980D01*
X175178897Y-77854755D01*
X175708461Y-77829529D01*
X175708461Y-79031925D01*
G36*
X175708461Y-79031925D02*
G01*
X175178897Y-79006698D01*
X174649333Y-78981472D01*
X174649333Y-77879980D01*
X175178897Y-77854755D01*
X175708461Y-77829529D01*
X175708461Y-79031925D01*
G37*
X171471952Y-93173773D02*
X171151162Y-93173773D01*
X171099733Y-93039748D01*
X171048303Y-92905724D01*
X171048303Y-92665393D01*
X171471952Y-92665393D01*
X171471952Y-93173773D01*
G36*
X171471952Y-93173773D02*
G01*
X171151162Y-93173773D01*
X171099733Y-93039748D01*
X171048303Y-92905724D01*
X171048303Y-92665393D01*
X171471952Y-92665393D01*
X171471952Y-93173773D01*
G37*
X170473264Y-92834854D02*
X170435956Y-93089043D01*
X170135513Y-93089043D01*
X170098203Y-92834854D01*
X170060893Y-92580662D01*
X170510574Y-92580662D01*
X170473264Y-92834854D01*
G36*
X170473264Y-92834854D02*
G01*
X170435956Y-93089043D01*
X170135513Y-93089043D01*
X170098203Y-92834854D01*
X170060893Y-92580662D01*
X170510574Y-92580662D01*
X170473264Y-92834854D01*
G37*
X169014777Y-105883298D02*
X169014776Y-106052758D01*
X168610889Y-106052758D01*
X168566579Y-105883298D01*
X168522260Y-105713837D01*
X169014777Y-105713837D01*
X169014777Y-105883298D01*
G36*
X169014777Y-105883298D02*
G01*
X169014776Y-106052758D01*
X168610889Y-106052758D01*
X168566579Y-105883298D01*
X168522260Y-105713837D01*
X169014777Y-105713837D01*
X169014777Y-105883298D01*
G37*
X154960502Y-104274943D02*
X154906963Y-104443644D01*
X154853420Y-104612345D01*
X153593887Y-104612345D01*
X153593887Y-104103964D01*
X154854842Y-104103964D01*
X154960502Y-104274943D01*
G36*
X154960502Y-104274943D02*
G01*
X154906963Y-104443644D01*
X154853420Y-104612345D01*
X153593887Y-104612345D01*
X153593887Y-104103964D01*
X154854842Y-104103964D01*
X154960502Y-104274943D01*
G37*
X153953994Y-77939485D02*
X154483558Y-77964711D01*
X154508609Y-78536639D01*
X154533668Y-79108568D01*
X153424430Y-79108568D01*
X153424430Y-77914259D01*
X153953994Y-77939485D01*
G36*
X153953994Y-77939485D02*
G01*
X154483558Y-77964711D01*
X154508609Y-78536639D01*
X154533668Y-79108568D01*
X153424430Y-79108568D01*
X153424430Y-77914259D01*
X153953994Y-77939485D01*
G37*
X149696300Y-95715676D02*
X149696292Y-95885136D01*
X149292407Y-95885136D01*
X149248096Y-95715676D01*
X149203784Y-95546216D01*
X149696300Y-95546216D01*
X149696300Y-95715676D01*
G36*
X149696300Y-95715676D02*
G01*
X149696292Y-95885136D01*
X149292407Y-95885136D01*
X149248096Y-95715676D01*
X149203784Y-95546216D01*
X149696300Y-95546216D01*
X149696300Y-95715676D01*
G37*
X131818233Y-120323897D02*
X131818237Y-121473658D01*
X131389667Y-121473658D01*
X131413306Y-120350981D01*
X131436946Y-119228308D01*
X131818233Y-119174147D01*
X131818233Y-120323897D01*
G36*
X131818233Y-120323897D02*
G01*
X131818237Y-121473658D01*
X131389667Y-121473658D01*
X131413306Y-120350981D01*
X131436946Y-119228308D01*
X131818233Y-119174147D01*
X131818233Y-120323897D01*
G37*
X119447631Y-120323897D02*
X119447623Y-121473658D01*
X119019058Y-121473658D01*
X119042701Y-120350981D01*
X119066344Y-119228308D01*
X119447631Y-119174147D01*
X119447631Y-120323897D01*
G36*
X119447631Y-120323897D02*
G01*
X119447623Y-121473658D01*
X119019058Y-121473658D01*
X119042701Y-120350981D01*
X119066344Y-119228308D01*
X119447631Y-119174147D01*
X119447631Y-120323897D01*
G37*
X116380203Y-130349127D02*
X116405410Y-130878691D01*
X115203017Y-130878691D01*
X115228248Y-130349127D01*
X115253478Y-129819563D01*
X116354972Y-129819563D01*
X116380203Y-130349127D01*
G36*
X116380203Y-130349127D02*
G01*
X116405410Y-130878691D01*
X115203017Y-130878691D01*
X115228248Y-130349127D01*
X115253478Y-129819563D01*
X116354972Y-129819563D01*
X116380203Y-130349127D01*
G37*
X114261947Y-78663736D02*
X114287162Y-79193300D01*
X113084769Y-79193300D01*
X113110000Y-78663736D01*
X113135230Y-78134173D01*
X114236716Y-78134173D01*
X114261947Y-78663736D01*
G36*
X114261947Y-78663736D02*
G01*
X114287162Y-79193300D01*
X113084769Y-79193300D01*
X113110000Y-78663736D01*
X113135230Y-78134173D01*
X114236716Y-78134173D01*
X114261947Y-78663736D01*
G37*
X113770690Y-102663556D02*
X112838699Y-102663556D01*
X112838699Y-100799492D01*
X111906661Y-100799492D01*
X111906661Y-99867459D01*
X113770690Y-99867459D01*
X113770690Y-102663556D01*
G36*
X113770690Y-102663556D02*
G01*
X112838699Y-102663556D01*
X112838699Y-100799492D01*
X111906661Y-100799492D01*
X111906661Y-99867459D01*
X113770690Y-99867459D01*
X113770690Y-102663556D01*
G37*
X112143699Y-78663736D02*
X112168922Y-79193300D01*
X110966529Y-79193300D01*
X110991752Y-78663736D01*
X111016982Y-78134173D01*
X112118469Y-78134173D01*
X112143699Y-78663736D01*
G36*
X112143699Y-78663736D02*
G01*
X112168922Y-79193300D01*
X110966529Y-79193300D01*
X110991752Y-78663736D01*
X111016982Y-78134173D01*
X112118469Y-78134173D01*
X112143699Y-78663736D01*
G37*
X110635696Y-118903494D02*
X110579208Y-118959986D01*
X110522720Y-119016467D01*
X110212051Y-119016467D01*
X110212051Y-118508086D01*
X110635696Y-118508086D01*
X110635696Y-118903494D01*
G36*
X110635696Y-118903494D02*
G01*
X110579208Y-118959986D01*
X110522720Y-119016467D01*
X110212051Y-119016467D01*
X110212051Y-118508086D01*
X110635696Y-118508086D01*
X110635696Y-118903494D01*
G37*
X110402679Y-119201220D02*
X110593322Y-119228301D01*
X110616966Y-120350974D01*
X110640609Y-121473639D01*
X110212035Y-121473639D01*
X110212035Y-119174140D01*
X110402679Y-119201220D01*
G36*
X110402679Y-119201220D02*
G01*
X110593322Y-119228301D01*
X110616966Y-120350974D01*
X110640609Y-121473639D01*
X110212035Y-121473639D01*
X110212035Y-119174140D01*
X110402679Y-119201220D01*
G37*
X173590207Y-78420135D02*
X173590209Y-79023837D01*
X172488715Y-79023837D01*
X172488715Y-77922345D01*
X173060643Y-77922345D01*
X173325425Y-77869389D01*
X173590207Y-77816433D01*
X173590207Y-78420135D01*
G36*
X173590207Y-78420135D02*
G01*
X173590209Y-79023837D01*
X172488715Y-79023837D01*
X172488715Y-77922345D01*
X173060643Y-77922345D01*
X173325425Y-77869389D01*
X173590207Y-77816433D01*
X173590207Y-78420135D01*
G37*
X156644172Y-79014553D02*
X156241706Y-79046288D01*
X155839236Y-79078023D01*
X155690959Y-79093295D01*
X155542678Y-79108568D01*
X155542678Y-77922345D01*
X156644172Y-77922345D01*
X156644172Y-79014553D01*
G36*
X156644172Y-79014553D02*
G01*
X156241706Y-79046288D01*
X155839236Y-79078023D01*
X155690959Y-79093295D01*
X155542678Y-79108568D01*
X155542678Y-77922345D01*
X156644172Y-77922345D01*
X156644172Y-79014553D01*
G37*
X137579887Y-130784682D02*
X137177417Y-130816413D01*
X136774947Y-130848151D01*
X136626670Y-130863421D01*
X136478393Y-130878691D01*
X136478393Y-129692473D01*
X137579887Y-129692473D01*
X137579887Y-130784682D01*
G36*
X137579887Y-130784682D02*
G01*
X137177417Y-130816413D01*
X136774947Y-130848151D01*
X136626670Y-130863421D01*
X136478393Y-130878691D01*
X136478393Y-129692473D01*
X137579887Y-129692473D01*
X137579887Y-130784682D01*
G37*
X131155814Y-129744372D02*
X131225124Y-129787203D01*
X131225124Y-130878695D01*
X130123630Y-130878695D01*
X130123630Y-129800913D01*
X130605067Y-129751223D01*
X131086505Y-129701533D01*
X131155814Y-129744372D01*
G36*
X131155814Y-129744372D02*
G01*
X131225124Y-129787203D01*
X131225124Y-130878695D01*
X130123630Y-130878695D01*
X130123630Y-129800913D01*
X130605067Y-129751223D01*
X131086505Y-129701533D01*
X131155814Y-129744372D01*
G37*
X122096671Y-121270106D02*
X122147323Y-121320757D01*
X122101730Y-121439570D01*
X122056121Y-121558375D01*
X121735336Y-121558375D01*
X121735336Y-121219454D01*
X122046020Y-121219454D01*
X122096671Y-121270106D01*
G36*
X122096671Y-121270106D02*
G01*
X122147323Y-121320757D01*
X122101730Y-121439570D01*
X122056121Y-121558375D01*
X121735336Y-121558375D01*
X121735336Y-121219454D01*
X122046020Y-121219454D01*
X122096671Y-121270106D01*
G37*
X120633849Y-130878695D02*
X119556075Y-130878695D01*
X119506385Y-130397257D01*
X119456695Y-129915820D01*
X119499526Y-129846510D01*
X119542358Y-129777201D01*
X120633849Y-129777201D01*
X120633849Y-130878695D01*
G36*
X120633849Y-130878695D02*
G01*
X119556075Y-130878695D01*
X119506385Y-130397257D01*
X119456695Y-129915820D01*
X119499526Y-129846510D01*
X119542358Y-129777201D01*
X120633849Y-129777201D01*
X120633849Y-130878695D01*
G37*
X110026206Y-78590087D02*
X110052207Y-79046003D01*
X110006126Y-79166087D01*
X109960052Y-79286171D01*
X108898727Y-79235663D01*
X108898727Y-78134171D01*
X110000213Y-78134171D01*
X110026206Y-78590087D01*
G36*
X110026206Y-78590087D02*
G01*
X110052207Y-79046003D01*
X110006126Y-79166087D01*
X109960052Y-79286171D01*
X108898727Y-79235663D01*
X108898727Y-78134171D01*
X110000213Y-78134171D01*
X110026206Y-78590087D01*
G37*
X105806068Y-130850451D02*
X105746001Y-130910521D01*
X105685928Y-130970591D01*
X105174064Y-130945822D01*
X104662208Y-130921061D01*
X104611762Y-129861933D01*
X105806068Y-129861933D01*
X105806068Y-130850451D01*
G36*
X105806068Y-130850451D02*
G01*
X105746001Y-130910521D01*
X105685928Y-130970591D01*
X105174064Y-130945822D01*
X104662208Y-130921061D01*
X104611762Y-129861933D01*
X105806068Y-129861933D01*
X105806068Y-130850451D01*
G37*
X103648322Y-130321536D02*
X103705741Y-130781142D01*
X103649421Y-130872283D01*
X103593093Y-130963423D01*
X102501601Y-130963423D01*
X102501601Y-129861929D01*
X103590904Y-129861929D01*
X103648322Y-130321536D01*
G36*
X103648322Y-130321536D02*
G01*
X103705741Y-130781142D01*
X103649421Y-130872283D01*
X103593093Y-130963423D01*
X102501601Y-130963423D01*
X102501601Y-129861929D01*
X103590904Y-129861929D01*
X103648322Y-130321536D01*
G37*
X151835738Y-77939484D02*
X152365302Y-77964710D01*
X152391303Y-78420627D01*
X152417293Y-78876543D01*
X152372771Y-78992555D01*
X152328254Y-79108568D01*
X151306175Y-79108568D01*
X151306175Y-77914258D01*
X151835738Y-77939484D01*
G36*
X151835738Y-77939484D02*
G01*
X152365302Y-77964710D01*
X152391303Y-78420627D01*
X152417293Y-78876543D01*
X152372771Y-78992555D01*
X152328254Y-79108568D01*
X151306175Y-79108568D01*
X151306175Y-77914258D01*
X151835738Y-77939484D01*
G37*
X134889705Y-129709605D02*
X135419269Y-129734835D01*
X135445270Y-130190753D01*
X135471259Y-130646670D01*
X135426738Y-130762683D01*
X135382220Y-130878691D01*
X134360141Y-130878691D01*
X134360141Y-129684386D01*
X134889705Y-129709605D01*
G36*
X134889705Y-129709605D02*
G01*
X135419269Y-129734835D01*
X135445270Y-130190753D01*
X135471259Y-130646670D01*
X135426738Y-130762683D01*
X135382220Y-130878691D01*
X134360141Y-130878691D01*
X134360141Y-129684386D01*
X134889705Y-129709605D01*
G37*
X132771449Y-78024215D02*
X133301013Y-78049441D01*
X133327014Y-78505357D01*
X133353004Y-78961273D01*
X133308482Y-79077286D01*
X133263965Y-79193297D01*
X132241885Y-79193297D01*
X132241885Y-77998989D01*
X132771449Y-78024215D01*
G36*
X132771449Y-78024215D02*
G01*
X133301013Y-78049441D01*
X133327014Y-78505357D01*
X133353004Y-78961273D01*
X133308482Y-79077286D01*
X133263965Y-79193297D01*
X132241885Y-79193297D01*
X132241885Y-77998989D01*
X132771449Y-78024215D01*
G37*
X132771449Y-129709605D02*
X133301013Y-129734835D01*
X133327014Y-130190753D01*
X133353004Y-130646670D01*
X133308482Y-130762683D01*
X133263965Y-130878691D01*
X132241885Y-130878691D01*
X132241885Y-129684386D01*
X132771449Y-129709605D01*
G36*
X132771449Y-129709605D02*
G01*
X133301013Y-129734835D01*
X133327014Y-130190753D01*
X133353004Y-130646670D01*
X133308482Y-130762683D01*
X133263965Y-130878691D01*
X132241885Y-130878691D01*
X132241885Y-129684386D01*
X132771449Y-129709605D01*
G37*
X130653198Y-78024215D02*
X131182761Y-78049441D01*
X131208762Y-78505357D01*
X131234752Y-78961273D01*
X131190231Y-79077286D01*
X131145713Y-79193297D01*
X130123634Y-79193297D01*
X130123634Y-77998989D01*
X130653198Y-78024215D01*
G36*
X130653198Y-78024215D02*
G01*
X131182761Y-78049441D01*
X131208762Y-78505357D01*
X131234752Y-78961273D01*
X131190231Y-79077286D01*
X131145713Y-79193297D01*
X130123634Y-79193297D01*
X130123634Y-77998989D01*
X130653198Y-78024215D01*
G37*
X128534942Y-78024215D02*
X129064506Y-78049441D01*
X129090507Y-78505357D01*
X129116496Y-78961273D01*
X129071975Y-79077286D01*
X129027457Y-79193297D01*
X128005378Y-79193297D01*
X128005378Y-77998989D01*
X128534942Y-78024215D01*
G36*
X128534942Y-78024215D02*
G01*
X129064506Y-78049441D01*
X129090507Y-78505357D01*
X129116496Y-78961273D01*
X129071975Y-79077286D01*
X129027457Y-79193297D01*
X128005378Y-79193297D01*
X128005378Y-77998989D01*
X128534942Y-78024215D01*
G37*
X118515601Y-78642552D02*
X118515594Y-79193299D01*
X117429786Y-79193299D01*
X117395705Y-78706100D01*
X117361625Y-78218902D01*
X117392867Y-78155354D01*
X117424110Y-78091806D01*
X118515601Y-78091806D01*
X118515601Y-78642552D01*
G36*
X118515601Y-78642552D02*
G01*
X118515594Y-79193299D01*
X117429786Y-79193299D01*
X117395705Y-78706100D01*
X117361625Y-78218902D01*
X117392867Y-78155354D01*
X117424110Y-78091806D01*
X118515601Y-78091806D01*
X118515601Y-78642552D01*
G37*
X118498458Y-130349127D02*
X118523689Y-130878687D01*
X117421790Y-130878687D01*
X117368667Y-130595515D01*
X117315543Y-130312342D01*
X117343642Y-130065951D01*
X117371742Y-129819563D01*
X118473228Y-129819563D01*
X118498458Y-130349127D01*
G36*
X118498458Y-130349127D02*
G01*
X118523689Y-130878687D01*
X117421790Y-130878687D01*
X117368667Y-130595515D01*
X117315543Y-130312342D01*
X117343642Y-130065951D01*
X117371742Y-129819563D01*
X118473228Y-129819563D01*
X118498458Y-130349127D01*
G37*
X112144469Y-130275481D02*
X112170463Y-130731398D01*
X112124381Y-130851481D01*
X112078307Y-130971568D01*
X111547645Y-130946307D01*
X111016982Y-130921057D01*
X111016982Y-129819563D01*
X112118469Y-129819563D01*
X112144469Y-130275481D01*
G36*
X112144469Y-130275481D02*
G01*
X112170463Y-130731398D01*
X112124381Y-130851481D01*
X112078307Y-130971568D01*
X111547645Y-130946307D01*
X111016982Y-130921057D01*
X111016982Y-129819563D01*
X112118469Y-129819563D01*
X112144469Y-130275481D01*
G37*
X115719512Y-98935425D02*
X114702743Y-98935425D01*
X114702743Y-99867457D01*
X113770721Y-99867457D01*
X113770721Y-98935425D01*
X110889892Y-98935425D01*
X110889892Y-97918664D01*
X115719512Y-97918664D01*
X115719512Y-98935425D01*
G36*
X115719512Y-98935425D02*
G01*
X114702743Y-98935425D01*
X114702743Y-99867457D01*
X113770721Y-99867457D01*
X113770721Y-98935425D01*
X110889892Y-98935425D01*
X110889892Y-97918664D01*
X115719512Y-97918664D01*
X115719512Y-98935425D01*
G37*
X110026206Y-130275481D02*
X110052207Y-130731398D01*
X110006126Y-130851481D01*
X109960052Y-130971568D01*
X109429389Y-130946307D01*
X108898727Y-130921057D01*
X108898727Y-129819563D01*
X110000213Y-129819563D01*
X110026206Y-130275481D01*
G36*
X110026206Y-130275481D02*
G01*
X110052207Y-130731398D01*
X110006126Y-130851481D01*
X109960052Y-130971568D01*
X109429389Y-130946307D01*
X108898727Y-130921057D01*
X108898727Y-129819563D01*
X110000213Y-129819563D01*
X110026206Y-130275481D01*
G37*
X107907958Y-78590087D02*
X107933952Y-79046003D01*
X107887870Y-79166087D01*
X107841789Y-79286171D01*
X107311126Y-79260917D01*
X106780471Y-79235663D01*
X106780471Y-78134171D01*
X107881957Y-78134171D01*
X107907958Y-78590087D01*
G36*
X107907958Y-78590087D02*
G01*
X107933952Y-79046003D01*
X107887870Y-79166087D01*
X107841789Y-79286171D01*
X107311126Y-79260917D01*
X106780471Y-79235663D01*
X106780471Y-78134171D01*
X107881957Y-78134171D01*
X107907958Y-78590087D01*
G37*
X107924316Y-130850451D02*
X107864249Y-130910521D01*
X107804183Y-130970591D01*
X107292320Y-130945822D01*
X106780463Y-130921061D01*
X106755233Y-130391497D01*
X106730010Y-129861933D01*
X107924316Y-129861933D01*
X107924316Y-130850451D01*
G36*
X107924316Y-130850451D02*
G01*
X107864249Y-130910521D01*
X107804183Y-130970591D01*
X107292320Y-130945822D01*
X106780463Y-130921061D01*
X106755233Y-130391497D01*
X106730010Y-129861933D01*
X107924316Y-129861933D01*
X107924316Y-130850451D01*
G37*
X103687812Y-79165055D02*
X103627746Y-79225125D01*
X103567672Y-79285195D01*
X103055808Y-79260429D01*
X102543952Y-79235663D01*
X102518729Y-78706099D01*
X102493507Y-78176536D01*
X103687812Y-78176536D01*
X103687812Y-79165055D01*
G36*
X103687812Y-79165055D02*
G01*
X103627746Y-79225125D01*
X103567672Y-79285195D01*
X103055808Y-79260429D01*
X102543952Y-79235663D01*
X102518729Y-78706099D01*
X102493507Y-78176536D01*
X103687812Y-78176536D01*
X103687812Y-79165055D01*
G37*
X179944969Y-78929364D02*
X179584866Y-78963219D01*
X179584859Y-78963218D01*
X179224756Y-78997073D01*
X179055295Y-78989272D01*
X178885835Y-78981472D01*
X178860785Y-78409544D01*
X178835735Y-77837615D01*
X179944969Y-77837615D01*
X179944969Y-78929364D01*
G36*
X179944969Y-78929364D02*
G01*
X179584866Y-78963219D01*
X179584859Y-78963218D01*
X179224756Y-78997073D01*
X179055295Y-78989272D01*
X178885835Y-78981472D01*
X178860785Y-78409544D01*
X178835735Y-77837615D01*
X179944969Y-77837615D01*
X179944969Y-78929364D01*
G37*
X154462375Y-129665717D02*
X154525924Y-129702468D01*
X154525924Y-130680983D01*
X154469432Y-130737475D01*
X154412948Y-130793952D01*
X153424430Y-130793952D01*
X153424430Y-129713446D01*
X153911628Y-129671206D01*
X154398826Y-129628966D01*
X154462375Y-129665717D01*
G36*
X154462375Y-129665717D02*
G01*
X154525924Y-129702468D01*
X154525924Y-130680983D01*
X154469432Y-130737475D01*
X154412948Y-130793952D01*
X153424430Y-130793952D01*
X153424430Y-129713446D01*
X153911628Y-129671206D01*
X154398826Y-129628966D01*
X154462375Y-129665717D01*
G37*
X116397346Y-78638682D02*
X116397338Y-79193298D01*
X115306228Y-79193298D01*
X115250549Y-78821961D01*
X115194862Y-78450624D01*
X115225051Y-78292397D01*
X115255241Y-78134171D01*
X115826293Y-78109117D01*
X116397346Y-78084063D01*
X116397346Y-78638682D01*
G36*
X116397346Y-78638682D02*
G01*
X116397338Y-79193298D01*
X115306228Y-79193298D01*
X115250549Y-78821961D01*
X115194862Y-78450624D01*
X115225051Y-78292397D01*
X115255241Y-78134171D01*
X115826293Y-78109117D01*
X116397346Y-78084063D01*
X116397346Y-78638682D01*
G37*
X114261825Y-130344332D02*
X114286926Y-130869093D01*
X113880538Y-130902403D01*
X113880546Y-130902358D01*
X113474159Y-130935668D01*
X113304694Y-130928366D01*
X113135238Y-130921065D01*
X113135238Y-129819571D01*
X114236724Y-129819571D01*
X114261825Y-130344332D01*
G36*
X114261825Y-130344332D02*
G01*
X114286926Y-130869093D01*
X113880538Y-130902403D01*
X113880546Y-130902358D01*
X113474159Y-130935668D01*
X113304694Y-130928366D01*
X113135238Y-130921065D01*
X113135238Y-129819571D01*
X114236724Y-129819571D01*
X114261825Y-130344332D01*
G37*
X178758747Y-95558405D02*
X178978624Y-95933598D01*
X179198501Y-96308789D01*
X179775509Y-96308789D01*
X179775509Y-96647708D01*
X178942792Y-96647708D01*
X178638944Y-96104378D01*
X178335096Y-95561047D01*
X178335096Y-93427962D01*
X178758747Y-93427962D01*
X178758747Y-95558405D01*
G36*
X178758747Y-95558405D02*
G01*
X178978624Y-95933598D01*
X179198501Y-96308789D01*
X179775509Y-96308789D01*
X179775509Y-96647708D01*
X178942792Y-96647708D01*
X178638944Y-96104378D01*
X178335096Y-95561047D01*
X178335096Y-93427962D01*
X178758747Y-93427962D01*
X178758747Y-95558405D01*
G37*
X125378738Y-118847010D02*
X125142684Y-118847010D01*
X125091254Y-118981036D01*
X125039825Y-119115061D01*
X125039825Y-120294356D01*
X125039832Y-121473647D01*
X124700912Y-121473647D01*
X124700912Y-118942774D01*
X124866164Y-118508090D01*
X125378738Y-118508090D01*
X125378738Y-118847010D01*
G36*
X125378738Y-118847010D02*
G01*
X125142684Y-118847010D01*
X125091254Y-118981036D01*
X125039825Y-119115061D01*
X125039825Y-120294356D01*
X125039832Y-121473647D01*
X124700912Y-121473647D01*
X124700912Y-118942774D01*
X124866164Y-118508090D01*
X125378738Y-118508090D01*
X125378738Y-118847010D01*
G37*
X171471950Y-95467120D02*
X171685205Y-95887953D01*
X171898456Y-96308789D01*
X172488713Y-96308789D01*
X172488713Y-96478249D01*
X172488710Y-96647706D01*
X171643848Y-96647706D01*
X171388438Y-96141741D01*
X171133029Y-95635777D01*
X171133029Y-93427960D01*
X171471950Y-93427960D01*
X171471950Y-95467120D01*
G36*
X171471950Y-95467120D02*
G01*
X171685205Y-95887953D01*
X171898456Y-96308789D01*
X172488713Y-96308789D01*
X172488713Y-96478249D01*
X172488710Y-96647706D01*
X171643848Y-96647706D01*
X171388438Y-96141741D01*
X171133029Y-95635777D01*
X171133029Y-93427960D01*
X171471950Y-93427960D01*
X171471950Y-95467120D01*
G37*
X164354621Y-115937934D02*
X164295202Y-115997355D01*
X164235799Y-116056754D01*
X164104572Y-116031775D01*
X163973346Y-116006796D01*
X163888606Y-114229209D01*
X163779714Y-114038565D01*
X163670820Y-113847922D01*
X163083671Y-113847922D01*
X163083671Y-113509001D01*
X164354621Y-113509001D01*
X164354621Y-115937934D01*
G36*
X164354621Y-115937934D02*
G01*
X164295202Y-115997355D01*
X164235799Y-116056754D01*
X164104572Y-116031775D01*
X163973346Y-116006796D01*
X163888606Y-114229209D01*
X163779714Y-114038565D01*
X163670820Y-113847922D01*
X163083671Y-113847922D01*
X163083671Y-113509001D01*
X164354621Y-113509001D01*
X164354621Y-115937934D01*
G37*
X150967250Y-103087203D02*
X150628330Y-103087203D01*
X150628330Y-104527615D01*
X150628421Y-105968035D01*
X150204768Y-105968035D01*
X150213168Y-104591170D01*
X150221568Y-103214305D01*
X150280017Y-103002480D01*
X150338466Y-102790654D01*
X150652858Y-102764353D01*
X150967250Y-102738053D01*
X150967250Y-103087203D01*
G36*
X150967250Y-103087203D02*
G01*
X150628330Y-103087203D01*
X150628330Y-104527615D01*
X150628421Y-105968035D01*
X150204768Y-105968035D01*
X150213168Y-104591170D01*
X150221568Y-103214305D01*
X150280017Y-103002480D01*
X150338466Y-102790654D01*
X150652858Y-102764353D01*
X150967250Y-102738053D01*
X150967250Y-103087203D01*
G37*
X132750266Y-96986630D02*
X126141311Y-96986630D01*
X126141311Y-96054598D01*
X127073348Y-96054598D01*
X131818237Y-96054598D01*
X131818237Y-91309710D01*
X127073348Y-91309710D01*
X127073348Y-96054598D01*
X126141311Y-96054598D01*
X126141311Y-90377678D01*
X132750266Y-90377678D01*
X132750266Y-91309710D01*
X132750266Y-96986630D01*
G36*
X132750266Y-96986630D02*
G01*
X126141311Y-96986630D01*
X126141311Y-96054598D01*
X127073348Y-96054598D01*
X131818237Y-96054598D01*
X131818237Y-91309710D01*
X127073348Y-91309710D01*
X127073348Y-96054598D01*
X126141311Y-96054598D01*
X126141311Y-90377678D01*
X132750266Y-90377678D01*
X132750266Y-91309710D01*
X132750266Y-96986630D01*
G37*
X132750266Y-114102126D02*
X126141311Y-114102126D01*
X126141311Y-113170096D01*
X127073348Y-113170096D01*
X131818237Y-113170096D01*
X131818237Y-108425210D01*
X127073348Y-108425210D01*
X127073348Y-113170096D01*
X126141311Y-113170096D01*
X126141311Y-107408440D01*
X132750266Y-107408440D01*
X132750266Y-108425210D01*
X132750266Y-114102126D01*
G36*
X132750266Y-114102126D02*
G01*
X126141311Y-114102126D01*
X126141311Y-113170096D01*
X127073348Y-113170096D01*
X131818237Y-113170096D01*
X131818237Y-108425210D01*
X127073348Y-108425210D01*
X127073348Y-113170096D01*
X126141311Y-113170096D01*
X126141311Y-107408440D01*
X132750266Y-107408440D01*
X132750266Y-108425210D01*
X132750266Y-114102126D01*
G37*
X115719505Y-96986630D02*
X109025825Y-96986630D01*
X109025825Y-96054600D01*
X109957854Y-96054600D01*
X114702743Y-96054600D01*
X114702743Y-91309711D01*
X109957854Y-91309711D01*
X109957854Y-96054600D01*
X109025825Y-96054600D01*
X109025825Y-90377678D01*
X115719505Y-90377678D01*
X115719505Y-91309711D01*
X115719505Y-96986630D01*
G36*
X115719505Y-96986630D02*
G01*
X109025825Y-96986630D01*
X109025825Y-96054600D01*
X109957854Y-96054600D01*
X114702743Y-96054600D01*
X114702743Y-91309711D01*
X109957854Y-91309711D01*
X109957854Y-96054600D01*
X109025825Y-96054600D01*
X109025825Y-90377678D01*
X115719505Y-90377678D01*
X115719505Y-91309711D01*
X115719505Y-96986630D01*
G37*
X105739730Y-78145538D02*
X105806068Y-78186537D01*
X105806068Y-79165055D01*
X105746001Y-79225125D01*
X105685935Y-79285194D01*
X105174072Y-79260428D01*
X104662215Y-79235662D01*
X104637305Y-78718204D01*
X104612396Y-78200747D01*
X105142898Y-78152643D01*
X105673400Y-78104539D01*
X105739730Y-78145538D01*
G36*
X105739730Y-78145538D02*
G01*
X105806068Y-78186537D01*
X105806068Y-79165055D01*
X105746001Y-79225125D01*
X105685935Y-79285194D01*
X105174072Y-79260428D01*
X104662215Y-79235662D01*
X104637305Y-78718204D01*
X104612396Y-78200747D01*
X105142898Y-78152643D01*
X105673400Y-78104539D01*
X105739730Y-78145538D01*
G37*
X176471040Y-115192587D02*
X176554940Y-115413264D01*
X176638840Y-115633940D01*
X177106514Y-115584899D01*
X177133584Y-115775542D01*
X177133677Y-115775549D01*
X177160747Y-115966193D01*
X176378104Y-115966193D01*
X176051189Y-115245986D01*
X176049289Y-113996214D01*
X176047389Y-112746443D01*
X176471040Y-112746443D01*
X176471040Y-115192587D01*
G36*
X176471040Y-115192587D02*
G01*
X176554940Y-115413264D01*
X176638840Y-115633940D01*
X177106514Y-115584899D01*
X177133584Y-115775542D01*
X177133677Y-115775549D01*
X177160747Y-115966193D01*
X176378104Y-115966193D01*
X176051189Y-115245986D01*
X176049289Y-113996214D01*
X176047389Y-112746443D01*
X176471040Y-112746443D01*
X176471040Y-115192587D01*
G37*
X160152595Y-102690541D02*
X160229446Y-102714781D01*
X160923824Y-104235308D01*
X161618203Y-105755835D01*
X161482583Y-105855006D01*
X161346965Y-105954173D01*
X161329684Y-105936883D01*
X161312394Y-105919592D01*
X160587524Y-104360507D01*
X159862651Y-102801421D01*
X159969196Y-102733861D01*
X160075744Y-102666300D01*
X160152595Y-102690541D01*
G36*
X160152595Y-102690541D02*
G01*
X160229446Y-102714781D01*
X160923824Y-104235308D01*
X161618203Y-105755835D01*
X161482583Y-105855006D01*
X161346965Y-105954173D01*
X161329684Y-105936883D01*
X161312394Y-105919592D01*
X160587524Y-104360507D01*
X159862651Y-102801421D01*
X159969196Y-102733861D01*
X160075744Y-102666300D01*
X160152595Y-102690541D01*
G37*
X132750270Y-121226206D02*
X132921451Y-121561751D01*
X133092635Y-121897296D01*
X133682304Y-121897296D01*
X133682304Y-122207972D01*
X133625812Y-122264464D01*
X133569324Y-122320948D01*
X132928020Y-122320948D01*
X132627319Y-121783244D01*
X132326617Y-121245535D01*
X132326617Y-119270663D01*
X132750270Y-119270663D01*
X132750270Y-121226206D01*
G36*
X132750270Y-121226206D02*
G01*
X132921451Y-121561751D01*
X133092635Y-121897296D01*
X133682304Y-121897296D01*
X133682304Y-122207972D01*
X133625812Y-122264464D01*
X133569324Y-122320948D01*
X132928020Y-122320948D01*
X132627319Y-121783244D01*
X132326617Y-121245535D01*
X132326617Y-119270663D01*
X132750270Y-119270663D01*
X132750270Y-121226206D01*
G37*
X158931880Y-105197491D02*
X159030669Y-105414307D01*
X159129459Y-105631123D01*
X159348411Y-105608933D01*
X159567359Y-105586743D01*
X159594440Y-105777386D01*
X159621505Y-105968037D01*
X158872886Y-105968037D01*
X158736739Y-105650300D01*
X158600597Y-105332560D01*
X158575015Y-104040425D01*
X158549434Y-102748290D01*
X158931880Y-102748290D01*
X158931880Y-105197491D01*
G36*
X158931880Y-105197491D02*
G01*
X159030669Y-105414307D01*
X159129459Y-105631123D01*
X159348411Y-105608933D01*
X159567359Y-105586743D01*
X159594440Y-105777386D01*
X159621505Y-105968037D01*
X158872886Y-105968037D01*
X158736739Y-105650300D01*
X158600597Y-105332560D01*
X158575015Y-104040425D01*
X158549434Y-102748290D01*
X158931880Y-102748290D01*
X158931880Y-105197491D01*
G37*
X169190917Y-113826743D02*
X169197618Y-114907054D01*
X169257577Y-114737597D01*
X169562743Y-113742018D01*
X169867910Y-112746440D01*
X170455190Y-112746440D01*
X170455190Y-115966181D01*
X170116206Y-115966181D01*
X170107106Y-114631682D01*
X170098006Y-113297183D01*
X169666848Y-114631682D01*
X169235687Y-115966181D01*
X168760566Y-115966181D01*
X168760566Y-112746432D01*
X169184217Y-112746432D01*
X169190917Y-113826743D01*
G36*
X169190917Y-113826743D02*
G01*
X169197618Y-114907054D01*
X169257577Y-114737597D01*
X169562743Y-113742018D01*
X169867910Y-112746440D01*
X170455190Y-112746440D01*
X170455190Y-115966181D01*
X170116206Y-115966181D01*
X170107106Y-114631682D01*
X170098006Y-113297183D01*
X169666848Y-114631682D01*
X169235687Y-115966181D01*
X168760566Y-115966181D01*
X168760566Y-112746432D01*
X169184217Y-112746432D01*
X169190917Y-113826743D01*
G37*
X165371383Y-95772172D02*
X165311963Y-95831582D01*
X165252551Y-95891003D01*
X165121324Y-95866023D01*
X164990098Y-95841042D01*
X164947728Y-94952246D01*
X164905359Y-94063450D01*
X164796466Y-93872807D01*
X164687572Y-93682166D01*
X164203284Y-93682166D01*
X164157695Y-93563353D01*
X164112106Y-93444541D01*
X164162755Y-93393891D01*
X164213405Y-93343241D01*
X165371383Y-93343241D01*
X165371383Y-95772172D01*
G36*
X165371383Y-95772172D02*
G01*
X165311963Y-95831582D01*
X165252551Y-95891003D01*
X165121324Y-95866023D01*
X164990098Y-95841042D01*
X164947728Y-94952246D01*
X164905359Y-94063450D01*
X164796466Y-93872807D01*
X164687572Y-93682166D01*
X164203284Y-93682166D01*
X164157695Y-93563353D01*
X164112106Y-93444541D01*
X164162755Y-93393891D01*
X164213405Y-93343241D01*
X165371383Y-93343241D01*
X165371383Y-95772172D01*
G37*
X157936729Y-93884970D02*
X157921340Y-94645409D01*
X157905952Y-95405848D01*
X157732372Y-95649621D01*
X157558799Y-95893403D01*
X156686546Y-95842782D01*
X156659477Y-95652138D01*
X156632396Y-95461495D01*
X157400790Y-95461495D01*
X157576213Y-95133713D01*
X157576213Y-94009940D01*
X157400790Y-93682158D01*
X156644172Y-93682158D01*
X156644172Y-93343237D01*
X157656585Y-93343237D01*
X157936729Y-93884970D01*
G36*
X157936729Y-93884970D02*
G01*
X157921340Y-94645409D01*
X157905952Y-95405848D01*
X157732372Y-95649621D01*
X157558799Y-95893403D01*
X156686546Y-95842782D01*
X156659477Y-95652138D01*
X156632396Y-95461495D01*
X157400790Y-95461495D01*
X157576213Y-95133713D01*
X157576213Y-94009940D01*
X157400790Y-93682158D01*
X156644172Y-93682158D01*
X156644172Y-93343237D01*
X157656585Y-93343237D01*
X157936729Y-93884970D01*
G37*
X155966331Y-93258505D02*
X156220519Y-93258505D01*
X156220519Y-93597426D01*
X155966331Y-93597426D01*
X155966331Y-95490511D01*
X155685874Y-95800410D01*
X155034297Y-95800410D01*
X155034297Y-95461489D01*
X155542678Y-95461489D01*
X155542678Y-93597426D01*
X155119025Y-93597426D01*
X155119025Y-93258505D01*
X155542678Y-93258505D01*
X155542678Y-92580665D01*
X155966331Y-92580665D01*
X155966331Y-93258505D01*
G36*
X155966331Y-93258505D02*
G01*
X156220519Y-93258505D01*
X156220519Y-93597426D01*
X155966331Y-93597426D01*
X155966331Y-95490511D01*
X155685874Y-95800410D01*
X155034297Y-95800410D01*
X155034297Y-95461489D01*
X155542678Y-95461489D01*
X155542678Y-93597426D01*
X155119025Y-93597426D01*
X155119025Y-93258505D01*
X155542678Y-93258505D01*
X155542678Y-92580665D01*
X155966331Y-92580665D01*
X155966331Y-93258505D01*
G37*
X144188842Y-95772170D02*
X144129421Y-95831580D01*
X144070003Y-95890999D01*
X143938773Y-95866019D01*
X143807548Y-95841038D01*
X143765189Y-94952242D01*
X143722820Y-94063447D01*
X143613925Y-93872803D01*
X143505031Y-93682162D01*
X143020736Y-93682162D01*
X142975147Y-93563349D01*
X142929557Y-93444537D01*
X142980209Y-93393887D01*
X143030860Y-93343237D01*
X144188842Y-93343237D01*
X144188842Y-95772170D01*
G36*
X144188842Y-95772170D02*
G01*
X144129421Y-95831580D01*
X144070003Y-95890999D01*
X143938773Y-95866019D01*
X143807548Y-95841038D01*
X143765189Y-94952242D01*
X143722820Y-94063447D01*
X143613925Y-93872803D01*
X143505031Y-93682162D01*
X143020736Y-93682162D01*
X142975147Y-93563349D01*
X142929557Y-93444537D01*
X142980209Y-93393887D01*
X143030860Y-93343237D01*
X144188842Y-93343237D01*
X144188842Y-95772170D01*
G37*
X123091041Y-120117964D02*
X123599418Y-120117964D01*
X123599418Y-118508093D01*
X123938331Y-118508093D01*
X123938331Y-120456885D01*
X123091026Y-120456885D01*
X123091026Y-120965266D01*
X123091041Y-121473647D01*
X122752120Y-121473647D01*
X122752120Y-120456885D01*
X122497924Y-120456885D01*
X122497924Y-120117964D01*
X122752120Y-120117964D01*
X122752120Y-118508093D01*
X123091041Y-118508093D01*
X123091041Y-120117964D01*
G36*
X123091041Y-120117964D02*
G01*
X123599418Y-120117964D01*
X123599418Y-118508093D01*
X123938331Y-118508093D01*
X123938331Y-120456885D01*
X123091026Y-120456885D01*
X123091026Y-120965266D01*
X123091041Y-121473647D01*
X122752120Y-121473647D01*
X122752120Y-120456885D01*
X122497924Y-120456885D01*
X122497924Y-120117964D01*
X122752120Y-120117964D01*
X122752120Y-118508093D01*
X123091041Y-118508093D01*
X123091041Y-120117964D01*
G37*
X176301572Y-103426123D02*
X176555761Y-103426123D01*
X176555761Y-103765044D01*
X176301572Y-103765044D01*
X176301572Y-105658129D01*
X176161344Y-105813078D01*
X176021117Y-105968028D01*
X175369540Y-105968028D01*
X175369540Y-105629107D01*
X175877921Y-105629107D01*
X175877921Y-103765044D01*
X175454271Y-103765044D01*
X175454271Y-103426123D01*
X175877921Y-103426123D01*
X175877921Y-102748282D01*
X176301572Y-102748282D01*
X176301572Y-103426123D01*
G36*
X176301572Y-103426123D02*
G01*
X176555761Y-103426123D01*
X176555761Y-103765044D01*
X176301572Y-103765044D01*
X176301572Y-105658129D01*
X176161344Y-105813078D01*
X176021117Y-105968028D01*
X175369540Y-105968028D01*
X175369540Y-105629107D01*
X175877921Y-105629107D01*
X175877921Y-103765044D01*
X175454271Y-103765044D01*
X175454271Y-103426123D01*
X175877921Y-103426123D01*
X175877921Y-102748282D01*
X176301572Y-102748282D01*
X176301572Y-103426123D01*
G37*
X171810876Y-105030240D02*
X171955386Y-105333281D01*
X172099897Y-105636323D01*
X172273124Y-105611533D01*
X172446351Y-105586743D01*
X172493932Y-103510853D01*
X172827638Y-103510853D01*
X172827638Y-105640248D01*
X172736737Y-105810093D01*
X172645837Y-105979937D01*
X171814824Y-105935835D01*
X171756364Y-105994296D01*
X171697900Y-106052750D01*
X171387225Y-106052750D01*
X171387225Y-103510846D01*
X171810876Y-103510846D01*
X171810876Y-105030240D01*
G36*
X171810876Y-105030240D02*
G01*
X171955386Y-105333281D01*
X172099897Y-105636323D01*
X172273124Y-105611533D01*
X172446351Y-105586743D01*
X172493932Y-103510853D01*
X172827638Y-103510853D01*
X172827638Y-105640248D01*
X172736737Y-105810093D01*
X172645837Y-105979937D01*
X171814824Y-105935835D01*
X171756364Y-105994296D01*
X171697900Y-106052750D01*
X171387225Y-106052750D01*
X171387225Y-103510846D01*
X171810876Y-103510846D01*
X171810876Y-105030240D01*
G37*
X118261405Y-119101203D02*
X118515601Y-119101203D01*
X118515601Y-119440123D01*
X118261405Y-119440123D01*
X118261405Y-121137026D01*
X118156295Y-121305335D01*
X118051193Y-121473647D01*
X117414115Y-121473647D01*
X117414115Y-121134726D01*
X117922492Y-121134726D01*
X117922492Y-119440123D01*
X117414115Y-119440123D01*
X117414115Y-119101203D01*
X117922492Y-119101203D01*
X117922492Y-118508093D01*
X118261405Y-118508093D01*
X118261405Y-119101203D01*
G36*
X118261405Y-119101203D02*
G01*
X118515601Y-119101203D01*
X118515601Y-119440123D01*
X118261405Y-119440123D01*
X118261405Y-121137026D01*
X118156295Y-121305335D01*
X118051193Y-121473647D01*
X117414115Y-121473647D01*
X117414115Y-121134726D01*
X117922492Y-121134726D01*
X117922492Y-119440123D01*
X117414115Y-119440123D01*
X117414115Y-119101203D01*
X117922492Y-119101203D01*
X117922492Y-118508093D01*
X118261405Y-118508093D01*
X118261405Y-119101203D01*
G37*
X148425342Y-104442883D02*
X148933723Y-104442883D01*
X148933723Y-102748280D01*
X149357375Y-102748280D01*
X149357375Y-104866536D01*
X148425346Y-104866536D01*
X148425346Y-105417283D01*
X148425342Y-105968028D01*
X148001689Y-105968028D01*
X148001689Y-104884665D01*
X147874595Y-104835894D01*
X147747501Y-104787123D01*
X147747501Y-104522296D01*
X147874595Y-104473525D01*
X148001689Y-104424754D01*
X148001689Y-102748280D01*
X148425342Y-102748280D01*
X148425342Y-104442883D01*
G36*
X148425342Y-104442883D02*
G01*
X148933723Y-104442883D01*
X148933723Y-102748280D01*
X149357375Y-102748280D01*
X149357375Y-104866536D01*
X148425346Y-104866536D01*
X148425346Y-105417283D01*
X148425342Y-105968028D01*
X148001689Y-105968028D01*
X148001689Y-104884665D01*
X147874595Y-104835894D01*
X147747501Y-104787123D01*
X147747501Y-104522296D01*
X147874595Y-104473525D01*
X148001689Y-104424754D01*
X148001689Y-102748280D01*
X148425342Y-102748280D01*
X148425342Y-104442883D01*
G37*
X127242805Y-118847014D02*
X126300040Y-118847014D01*
X126353141Y-119397757D01*
X126755607Y-119423586D01*
X127158073Y-119449408D01*
X127158073Y-119779044D01*
X126310767Y-119779044D01*
X126310767Y-121134726D01*
X127242805Y-121134726D01*
X127242805Y-121473654D01*
X125971854Y-121473654D01*
X125971854Y-119694319D01*
X126175208Y-119694319D01*
X126073531Y-119592642D01*
X125971854Y-119490965D01*
X125971854Y-118508093D01*
X127242805Y-118508093D01*
X127242805Y-118847014D01*
G36*
X127242805Y-118847014D02*
G01*
X126300040Y-118847014D01*
X126353141Y-119397757D01*
X126755607Y-119423586D01*
X127158073Y-119449408D01*
X127158073Y-119779044D01*
X126310767Y-119779044D01*
X126310767Y-121134726D01*
X127242805Y-121134726D01*
X127242805Y-121473654D01*
X125971854Y-121473654D01*
X125971854Y-119694319D01*
X126175208Y-119694319D01*
X126073531Y-119592642D01*
X125971854Y-119490965D01*
X125971854Y-118508093D01*
X127242805Y-118508093D01*
X127242805Y-118847014D01*
G37*
X116990455Y-121473643D02*
X116651534Y-121473643D01*
X116651534Y-120195941D01*
X116480354Y-119860396D01*
X116309173Y-119524851D01*
X116177047Y-119524851D01*
X116075370Y-119626528D01*
X115973685Y-119728205D01*
X115973685Y-121473647D01*
X115634765Y-121473647D01*
X115634765Y-119632437D01*
X115810378Y-119409186D01*
X115985992Y-119185935D01*
X116323760Y-119185935D01*
X116651534Y-119361357D01*
X116651534Y-118508093D01*
X116990455Y-118508093D01*
X116990455Y-121473643D01*
G36*
X116990455Y-121473643D02*
G01*
X116651534Y-121473643D01*
X116651534Y-120195941D01*
X116480354Y-119860396D01*
X116309173Y-119524851D01*
X116177047Y-119524851D01*
X116075370Y-119626528D01*
X115973685Y-119728205D01*
X115973685Y-121473647D01*
X115634765Y-121473647D01*
X115634765Y-119632437D01*
X115810378Y-119409186D01*
X115985992Y-119185935D01*
X116323760Y-119185935D01*
X116651534Y-119361357D01*
X116651534Y-118508093D01*
X116990455Y-118508093D01*
X116990455Y-121473643D01*
G37*
X176725223Y-94553664D02*
X176725218Y-95848830D01*
X176386297Y-95848830D01*
X176386297Y-94354558D01*
X176263526Y-94060723D01*
X176140754Y-93766888D01*
X175799150Y-93766888D01*
X175711440Y-93930779D01*
X175623731Y-94094670D01*
X175623731Y-95885144D01*
X175284810Y-95885144D01*
X175284810Y-93942099D01*
X175431560Y-93634362D01*
X175578311Y-93326623D01*
X175982307Y-93380213D01*
X176386302Y-93433804D01*
X176386302Y-93258504D01*
X176725223Y-93258504D01*
X176725223Y-94553664D01*
G36*
X176725223Y-94553664D02*
G01*
X176725218Y-95848830D01*
X176386297Y-95848830D01*
X176386297Y-94354558D01*
X176263526Y-94060723D01*
X176140754Y-93766888D01*
X175799150Y-93766888D01*
X175711440Y-93930779D01*
X175623731Y-94094670D01*
X175623731Y-95885144D01*
X175284810Y-95885144D01*
X175284810Y-93942099D01*
X175431560Y-93634362D01*
X175578311Y-93326623D01*
X175982307Y-93380213D01*
X176386302Y-93433804D01*
X176386302Y-93258504D01*
X176725223Y-93258504D01*
X176725223Y-94553664D01*
G37*
X174437509Y-114719443D02*
X174437503Y-116014613D01*
X174098582Y-116014613D01*
X174098582Y-114520342D01*
X173975810Y-114226508D01*
X173853038Y-113932673D01*
X173511434Y-113932673D01*
X173423724Y-114096564D01*
X173336015Y-114260455D01*
X173336015Y-116050929D01*
X172997094Y-116050929D01*
X172997094Y-114107882D01*
X173143846Y-113800143D01*
X173290597Y-113492404D01*
X173694593Y-113545992D01*
X174098588Y-113599581D01*
X174098588Y-113424281D01*
X174437509Y-113424281D01*
X174437509Y-114719443D01*
G36*
X174437509Y-114719443D02*
G01*
X174437503Y-116014613D01*
X174098582Y-116014613D01*
X174098582Y-114520342D01*
X173975810Y-114226508D01*
X173853038Y-113932673D01*
X173511434Y-113932673D01*
X173423724Y-114096564D01*
X173336015Y-114260455D01*
X173336015Y-116050929D01*
X172997094Y-116050929D01*
X172997094Y-114107882D01*
X173143846Y-113800143D01*
X173290597Y-113492404D01*
X173694593Y-113545992D01*
X174098588Y-113599581D01*
X174098588Y-113424281D01*
X174437509Y-113424281D01*
X174437509Y-114719443D01*
G37*
X167855226Y-103810284D02*
X167998016Y-104109715D01*
X167998016Y-105482010D01*
X167821645Y-105767386D01*
X167821634Y-105767384D01*
X167645263Y-106052758D01*
X166727052Y-106052758D01*
X166727052Y-105629107D01*
X167428575Y-105629107D01*
X167541133Y-105480830D01*
X167653692Y-105332553D01*
X167656392Y-104806975D01*
X167659093Y-104281399D01*
X167560764Y-104065587D01*
X167462434Y-103849774D01*
X166727063Y-103849774D01*
X166727063Y-103510853D01*
X167712438Y-103510853D01*
X167855226Y-103810284D01*
G36*
X167855226Y-103810284D02*
G01*
X167998016Y-104109715D01*
X167998016Y-105482010D01*
X167821645Y-105767386D01*
X167821634Y-105767384D01*
X167645263Y-106052758D01*
X166727052Y-106052758D01*
X166727052Y-105629107D01*
X167428575Y-105629107D01*
X167541133Y-105480830D01*
X167653692Y-105332553D01*
X167656392Y-104806975D01*
X167659093Y-104281399D01*
X167560764Y-104065587D01*
X167462434Y-103849774D01*
X166727063Y-103849774D01*
X166727063Y-103510853D01*
X167712438Y-103510853D01*
X167855226Y-103810284D01*
G37*
X151560363Y-94553662D02*
X151560359Y-95848828D01*
X151221442Y-95848828D01*
X151221442Y-94354556D01*
X151098670Y-94060721D01*
X150975898Y-93766886D01*
X150634292Y-93766886D01*
X150546581Y-93930777D01*
X150458869Y-94094668D01*
X150458869Y-95885142D01*
X150119949Y-95885142D01*
X150119949Y-93942097D01*
X150266700Y-93634360D01*
X150413451Y-93326621D01*
X150817447Y-93380211D01*
X151221442Y-93433802D01*
X151221442Y-93258502D01*
X151560363Y-93258502D01*
X151560363Y-94553662D01*
G36*
X151560363Y-94553662D02*
G01*
X151560359Y-95848828D01*
X151221442Y-95848828D01*
X151221442Y-94354556D01*
X151098670Y-94060721D01*
X150975898Y-93766886D01*
X150634292Y-93766886D01*
X150546581Y-93930777D01*
X150458869Y-94094668D01*
X150458869Y-95885142D01*
X150119949Y-95885142D01*
X150119949Y-93942097D01*
X150266700Y-93634360D01*
X150413451Y-93326621D01*
X150817447Y-93380211D01*
X151221442Y-93433802D01*
X151221442Y-93258502D01*
X151560363Y-93258502D01*
X151560363Y-94553662D01*
G37*
X110889892Y-100799489D02*
X109957855Y-100799489D01*
X109957855Y-101731520D01*
X111906646Y-101731520D01*
X111906646Y-102663550D01*
X110889892Y-102663550D01*
X110889892Y-104612345D01*
X109957855Y-104612345D01*
X109957855Y-105544379D01*
X109025817Y-105544379D01*
X109025817Y-103680316D01*
X109957855Y-103680316D01*
X109957855Y-102663554D01*
X109025817Y-102663554D01*
X109025817Y-99867459D01*
X109957855Y-99867459D01*
X109957855Y-98935425D01*
X110889892Y-98935425D01*
X110889892Y-100799489D01*
G36*
X110889892Y-100799489D02*
G01*
X109957855Y-100799489D01*
X109957855Y-101731520D01*
X111906646Y-101731520D01*
X111906646Y-102663550D01*
X110889892Y-102663550D01*
X110889892Y-104612345D01*
X109957855Y-104612345D01*
X109957855Y-105544379D01*
X109025817Y-105544379D01*
X109025817Y-103680316D01*
X109957855Y-103680316D01*
X109957855Y-102663554D01*
X109025817Y-102663554D01*
X109025817Y-99867459D01*
X109957855Y-99867459D01*
X109957855Y-98935425D01*
X110889892Y-98935425D01*
X110889892Y-100799489D01*
G37*
X130886211Y-121445399D02*
X130829719Y-121501891D01*
X130829765Y-121501887D01*
X130773273Y-121558379D01*
X130547332Y-121558379D01*
X130547332Y-120172362D01*
X130445583Y-119890975D01*
X130343829Y-119609587D01*
X129972354Y-119609587D01*
X129920924Y-119743613D01*
X129869495Y-119877638D01*
X129869495Y-121558383D01*
X129530574Y-121558383D01*
X129530998Y-120647532D01*
X129531421Y-119736682D01*
X129679786Y-119492400D01*
X129828151Y-119248118D01*
X130357181Y-119227446D01*
X130886211Y-119206774D01*
X130886211Y-121445399D01*
G36*
X130886211Y-121445399D02*
G01*
X130829719Y-121501891D01*
X130829765Y-121501887D01*
X130773273Y-121558379D01*
X130547332Y-121558379D01*
X130547332Y-120172362D01*
X130445583Y-119890975D01*
X130343829Y-119609587D01*
X129972354Y-119609587D01*
X129920924Y-119743613D01*
X129869495Y-119877638D01*
X129869495Y-121558383D01*
X129530574Y-121558383D01*
X129530998Y-120647532D01*
X129531421Y-119736682D01*
X129679786Y-119492400D01*
X129828151Y-119248118D01*
X130357181Y-119227446D01*
X130886211Y-119206774D01*
X130886211Y-121445399D01*
G37*
X169290225Y-93273789D02*
X169480869Y-93300870D01*
X169473769Y-93449147D01*
X169466670Y-93597424D01*
X169452550Y-94723126D01*
X169438520Y-95848843D01*
X169099599Y-95848843D01*
X169099599Y-94329678D01*
X168996455Y-94044440D01*
X168893310Y-93759200D01*
X168678716Y-93784230D01*
X168464120Y-93809260D01*
X168379380Y-95842784D01*
X168040460Y-95842784D01*
X167992398Y-94025485D01*
X168170863Y-93675667D01*
X168349326Y-93325850D01*
X168724454Y-93382100D01*
X169099582Y-93438349D01*
X169099582Y-93246720D01*
X169290225Y-93273789D01*
G36*
X169290225Y-93273789D02*
G01*
X169480869Y-93300870D01*
X169473769Y-93449147D01*
X169466670Y-93597424D01*
X169452550Y-94723126D01*
X169438520Y-95848843D01*
X169099599Y-95848843D01*
X169099599Y-94329678D01*
X168996455Y-94044440D01*
X168893310Y-93759200D01*
X168678716Y-93784230D01*
X168464120Y-93809260D01*
X168379380Y-95842784D01*
X168040460Y-95842784D01*
X167992398Y-94025485D01*
X168170863Y-93675667D01*
X168349326Y-93325850D01*
X168724454Y-93382100D01*
X169099582Y-93438349D01*
X169099582Y-93246720D01*
X169290225Y-93273789D01*
G37*
X166316278Y-114631651D02*
X166286727Y-115754363D01*
X166113246Y-115966185D01*
X165371423Y-115966185D01*
X165368823Y-115860274D01*
X165366224Y-115754363D01*
X165277133Y-115907515D01*
X165188098Y-116060664D01*
X165046760Y-116033545D01*
X164905421Y-116006426D01*
X164881971Y-114757720D01*
X164858520Y-113509013D01*
X165286700Y-113509013D01*
X165286700Y-114956179D01*
X165457883Y-115291724D01*
X165629066Y-115627268D01*
X165964544Y-115627268D01*
X165964544Y-113509013D01*
X166155185Y-113508978D01*
X166345828Y-113508944D01*
X166316278Y-114631651D01*
G36*
X166316278Y-114631651D02*
G01*
X166286727Y-115754363D01*
X166113246Y-115966185D01*
X165371423Y-115966185D01*
X165368823Y-115860274D01*
X165366224Y-115754363D01*
X165277133Y-115907515D01*
X165188098Y-116060664D01*
X165046760Y-116033545D01*
X164905421Y-116006426D01*
X164881971Y-114757720D01*
X164858520Y-113509013D01*
X165286700Y-113509013D01*
X165286700Y-114956179D01*
X165457883Y-115291724D01*
X165629066Y-115627268D01*
X165964544Y-115627268D01*
X165964544Y-113509013D01*
X166155185Y-113508978D01*
X166345828Y-113508944D01*
X166316278Y-114631651D01*
G37*
X159948673Y-95490511D02*
X159808440Y-95645461D01*
X159668212Y-95800410D01*
X158946025Y-95800410D01*
X158903285Y-95694497D01*
X158860545Y-95588584D01*
X158853847Y-95736861D01*
X158853873Y-95736868D01*
X158847175Y-95885146D01*
X158508254Y-95885146D01*
X158508254Y-93611291D01*
X158456825Y-93477265D01*
X158405395Y-93343239D01*
X158847175Y-93343239D01*
X158847175Y-94790402D01*
X159018359Y-95125947D01*
X159189540Y-95461491D01*
X159525020Y-95461491D01*
X159525020Y-93343236D01*
X159948673Y-93343236D01*
X159948673Y-95490511D01*
G36*
X159948673Y-95490511D02*
G01*
X159808440Y-95645461D01*
X159668212Y-95800410D01*
X158946025Y-95800410D01*
X158903285Y-95694497D01*
X158860545Y-95588584D01*
X158853847Y-95736861D01*
X158853873Y-95736868D01*
X158847175Y-95885146D01*
X158508254Y-95885146D01*
X158508254Y-93611291D01*
X158456825Y-93477265D01*
X158405395Y-93343239D01*
X158847175Y-93343239D01*
X158847175Y-94790402D01*
X159018359Y-95125947D01*
X159189540Y-95461491D01*
X159525020Y-95461491D01*
X159525020Y-93343236D01*
X159948673Y-93343236D01*
X159948673Y-95490511D01*
G37*
X115123695Y-120175620D02*
X115120994Y-121177092D01*
X115008437Y-121325369D01*
X114895881Y-121473647D01*
X114208503Y-121473647D01*
X114165763Y-121367735D01*
X114123023Y-121261824D01*
X114116325Y-121410101D01*
X114116325Y-121410109D01*
X114109626Y-121558386D01*
X113770705Y-121558386D01*
X113770705Y-119185942D01*
X114109626Y-119185942D01*
X114109626Y-120563986D01*
X114288696Y-120853724D01*
X114467765Y-121143462D01*
X114745109Y-121088744D01*
X114745109Y-119228308D01*
X114935752Y-119201228D01*
X115126395Y-119174147D01*
X115123695Y-120175620D01*
G36*
X115123695Y-120175620D02*
G01*
X115120994Y-121177092D01*
X115008437Y-121325369D01*
X114895881Y-121473647D01*
X114208503Y-121473647D01*
X114165763Y-121367735D01*
X114123023Y-121261824D01*
X114116325Y-121410101D01*
X114116325Y-121410109D01*
X114109626Y-121558386D01*
X113770705Y-121558386D01*
X113770705Y-119185942D01*
X114109626Y-119185942D01*
X114109626Y-120563986D01*
X114288696Y-120853724D01*
X114467765Y-121143462D01*
X114745109Y-121088744D01*
X114745109Y-119228308D01*
X114935752Y-119201228D01*
X115126395Y-119174147D01*
X115123695Y-120175620D01*
G37*
X160647750Y-113439578D02*
X160838392Y-113466647D01*
X160824193Y-113763201D01*
X160810073Y-114888899D01*
X160796035Y-116014624D01*
X160457114Y-116014624D01*
X160457114Y-114495459D01*
X160353969Y-114210219D01*
X160250823Y-113924979D01*
X160036231Y-113950007D01*
X159821635Y-113975035D01*
X159779277Y-114991797D01*
X159736907Y-116008559D01*
X159397987Y-116008559D01*
X159373958Y-115099909D01*
X159349929Y-114191260D01*
X159528392Y-113841445D01*
X159706855Y-113491625D01*
X160081981Y-113547877D01*
X160457107Y-113604128D01*
X160457107Y-113412497D01*
X160647750Y-113439578D01*
G36*
X160647750Y-113439578D02*
G01*
X160838392Y-113466647D01*
X160824193Y-113763201D01*
X160810073Y-114888899D01*
X160796035Y-116014624D01*
X160457114Y-116014624D01*
X160457114Y-114495459D01*
X160353969Y-114210219D01*
X160250823Y-113924979D01*
X160036231Y-113950007D01*
X159821635Y-113975035D01*
X159779277Y-114991797D01*
X159736907Y-116008559D01*
X159397987Y-116008559D01*
X159373958Y-115099909D01*
X159349929Y-114191260D01*
X159528392Y-113841445D01*
X159706855Y-113491625D01*
X160081981Y-113547877D01*
X160457107Y-113604128D01*
X160457107Y-113412497D01*
X160647750Y-113439578D01*
G37*
X156750159Y-103441407D02*
X156940803Y-103468487D01*
X156933704Y-103616765D01*
X156926604Y-103765042D01*
X156912486Y-104890744D01*
X156898448Y-106016461D01*
X156559528Y-106016461D01*
X156559528Y-104497296D01*
X156456382Y-104212058D01*
X156353236Y-103926817D01*
X156138641Y-103951848D01*
X155924045Y-103976878D01*
X155881686Y-104993640D01*
X155839317Y-106010401D01*
X155500396Y-106010401D01*
X155452338Y-104193102D01*
X155630801Y-103843285D01*
X155809264Y-103493468D01*
X156184390Y-103549718D01*
X156559516Y-103605967D01*
X156559516Y-103414338D01*
X156750159Y-103441407D01*
G36*
X156750159Y-103441407D02*
G01*
X156940803Y-103468487D01*
X156933704Y-103616765D01*
X156926604Y-103765042D01*
X156912486Y-104890744D01*
X156898448Y-106016461D01*
X156559528Y-106016461D01*
X156559528Y-104497296D01*
X156456382Y-104212058D01*
X156353236Y-103926817D01*
X156138641Y-103951848D01*
X155924045Y-103976878D01*
X155881686Y-104993640D01*
X155839317Y-106010401D01*
X155500396Y-106010401D01*
X155452338Y-104193102D01*
X155630801Y-103843285D01*
X155809264Y-103493468D01*
X156184390Y-103549718D01*
X156559516Y-103605967D01*
X156559516Y-103414338D01*
X156750159Y-103441407D01*
G37*
X152984985Y-102896565D02*
X152956763Y-103044842D01*
X152470390Y-103070252D01*
X151984016Y-103095662D01*
X151984016Y-103729878D01*
X152428848Y-103726279D01*
X152873683Y-103722680D01*
X152873683Y-104061600D01*
X152428848Y-104087210D01*
X151984016Y-104112820D01*
X151984016Y-105629107D01*
X152916045Y-105629107D01*
X152916045Y-105798567D01*
X152916049Y-105798575D01*
X152916049Y-105968035D01*
X151560367Y-105968035D01*
X151560367Y-104019242D01*
X151735790Y-104019242D01*
X151560367Y-103691460D01*
X151560367Y-102748288D01*
X153013206Y-102748288D01*
X152984985Y-102896565D01*
G36*
X152984985Y-102896565D02*
G01*
X152956763Y-103044842D01*
X152470390Y-103070252D01*
X151984016Y-103095662D01*
X151984016Y-103729878D01*
X152428848Y-103726279D01*
X152873683Y-103722680D01*
X152873683Y-104061600D01*
X152428848Y-104087210D01*
X151984016Y-104112820D01*
X151984016Y-105629107D01*
X152916045Y-105629107D01*
X152916045Y-105798567D01*
X152916049Y-105798575D01*
X152916049Y-105968035D01*
X151560367Y-105968035D01*
X151560367Y-104019242D01*
X151735790Y-104019242D01*
X151560367Y-103691460D01*
X151560367Y-102748288D01*
X153013206Y-102748288D01*
X152984985Y-102896565D01*
G37*
X142632415Y-92771310D02*
X142581325Y-92961953D01*
X142580123Y-94381182D01*
X142580173Y-94381184D01*
X142578971Y-95800416D01*
X142240051Y-95800416D01*
X142240051Y-94432307D01*
X142103088Y-94459706D01*
X141966125Y-94487095D01*
X141525680Y-95800412D01*
X141120467Y-95800412D01*
X141159477Y-95694499D01*
X141198478Y-95588585D01*
X141429416Y-94890380D01*
X141660354Y-94192172D01*
X141389487Y-93718747D01*
X141118621Y-93245322D01*
X141360519Y-93273091D01*
X141602416Y-93300871D01*
X141800510Y-93660975D01*
X141998599Y-94021079D01*
X142240093Y-94021079D01*
X142240093Y-92580667D01*
X142683505Y-92580667D01*
X142632415Y-92771310D01*
G36*
X142632415Y-92771310D02*
G01*
X142581325Y-92961953D01*
X142580123Y-94381182D01*
X142580173Y-94381184D01*
X142578971Y-95800416D01*
X142240051Y-95800416D01*
X142240051Y-94432307D01*
X142103088Y-94459706D01*
X141966125Y-94487095D01*
X141525680Y-95800412D01*
X141120467Y-95800412D01*
X141159477Y-95694499D01*
X141198478Y-95588585D01*
X141429416Y-94890380D01*
X141660354Y-94192172D01*
X141389487Y-93718747D01*
X141118621Y-93245322D01*
X141360519Y-93273091D01*
X141602416Y-93300871D01*
X141800510Y-93660975D01*
X141998599Y-94021079D01*
X142240093Y-94021079D01*
X142240093Y-92580667D01*
X142683505Y-92580667D01*
X142632415Y-92771310D01*
G37*
X174914605Y-102938925D02*
X174863515Y-103129569D01*
X174862315Y-104548798D01*
X174862489Y-104548798D01*
X174861289Y-105968030D01*
X174522369Y-105968030D01*
X174520469Y-105269005D01*
X174518569Y-104569981D01*
X174355111Y-104209878D01*
X174191653Y-103849774D01*
X173990226Y-103849774D01*
X173877668Y-103998051D01*
X173765109Y-104146329D01*
X173762408Y-105057177D01*
X173759708Y-105968028D01*
X173420787Y-105968028D01*
X173420787Y-103992865D01*
X173628555Y-103720469D01*
X173836322Y-103448071D01*
X174073388Y-103490832D01*
X174310455Y-103533593D01*
X174416368Y-103617323D01*
X174522281Y-103701064D01*
X174522281Y-102748282D01*
X174965696Y-102748282D01*
X174914605Y-102938925D01*
G36*
X174914605Y-102938925D02*
G01*
X174863515Y-103129569D01*
X174862315Y-104548798D01*
X174862489Y-104548798D01*
X174861289Y-105968030D01*
X174522369Y-105968030D01*
X174520469Y-105269005D01*
X174518569Y-104569981D01*
X174355111Y-104209878D01*
X174191653Y-103849774D01*
X173990226Y-103849774D01*
X173877668Y-103998051D01*
X173765109Y-104146329D01*
X173762408Y-105057177D01*
X173759708Y-105968028D01*
X173420787Y-105968028D01*
X173420787Y-103992865D01*
X173628555Y-103720469D01*
X173836322Y-103448071D01*
X174073388Y-103490832D01*
X174310455Y-103533593D01*
X174416368Y-103617323D01*
X174522281Y-103701064D01*
X174522281Y-102748282D01*
X174965696Y-102748282D01*
X174914605Y-102938925D01*
G37*
X166303411Y-105606253D02*
X166127801Y-105829505D01*
X165952193Y-106052760D01*
X165148578Y-106052760D01*
X165005788Y-105753329D01*
X164863000Y-105453900D01*
X164863000Y-104146329D01*
X165232415Y-104146329D01*
X165268226Y-104887717D01*
X165304042Y-105629107D01*
X165861634Y-105629107D01*
X165964494Y-105361056D01*
X165964494Y-104117823D01*
X165913064Y-103983800D01*
X165861634Y-103849774D01*
X165377345Y-103849774D01*
X165304876Y-103998051D01*
X165232415Y-104146329D01*
X164863000Y-104146329D01*
X164863000Y-104010819D01*
X164992271Y-103760836D01*
X165121543Y-103510853D01*
X166106752Y-103510853D01*
X166205081Y-103726666D01*
X166303411Y-103942479D01*
X166303411Y-105361056D01*
X166303411Y-105606253D01*
G36*
X166303411Y-105606253D02*
G01*
X166127801Y-105829505D01*
X165952193Y-106052760D01*
X165148578Y-106052760D01*
X165005788Y-105753329D01*
X164863000Y-105453900D01*
X164863000Y-104146329D01*
X165232415Y-104146329D01*
X165268226Y-104887717D01*
X165304042Y-105629107D01*
X165861634Y-105629107D01*
X165964494Y-105361056D01*
X165964494Y-104117823D01*
X165913064Y-103983800D01*
X165861634Y-103849774D01*
X165377345Y-103849774D01*
X165304876Y-103998051D01*
X165232415Y-104146329D01*
X164863000Y-104146329D01*
X164863000Y-104010819D01*
X164992271Y-103760836D01*
X165121543Y-103510853D01*
X166106752Y-103510853D01*
X166205081Y-103726666D01*
X166303411Y-103942479D01*
X166303411Y-105361056D01*
X166303411Y-105606253D01*
G37*
X146137630Y-95438635D02*
X145962020Y-95661887D01*
X145786411Y-95885142D01*
X144982791Y-95885142D01*
X144840003Y-95585711D01*
X144697215Y-95286282D01*
X144697215Y-93978711D01*
X145066638Y-93978711D01*
X145102447Y-94720099D01*
X145138271Y-95461489D01*
X145695861Y-95461489D01*
X145798721Y-95193438D01*
X145798721Y-93950205D01*
X145747291Y-93816182D01*
X145695861Y-93682156D01*
X145211570Y-93682156D01*
X145139098Y-93830433D01*
X145066638Y-93978711D01*
X144697215Y-93978711D01*
X144697215Y-93843201D01*
X144826488Y-93593218D01*
X144955760Y-93343236D01*
X145940967Y-93343236D01*
X146039298Y-93559048D01*
X146137630Y-93774861D01*
X146137630Y-95193438D01*
X146137630Y-95438635D01*
G36*
X146137630Y-95438635D02*
G01*
X145962020Y-95661887D01*
X145786411Y-95885142D01*
X144982791Y-95885142D01*
X144840003Y-95585711D01*
X144697215Y-95286282D01*
X144697215Y-93978711D01*
X145066638Y-93978711D01*
X145102447Y-94720099D01*
X145138271Y-95461489D01*
X145695861Y-95461489D01*
X145798721Y-95193438D01*
X145798721Y-93950205D01*
X145747291Y-93816182D01*
X145695861Y-93682156D01*
X145211570Y-93682156D01*
X145139098Y-93830433D01*
X145066638Y-93978711D01*
X144697215Y-93978711D01*
X144697215Y-93843201D01*
X144826488Y-93593218D01*
X144955760Y-93343236D01*
X145940967Y-93343236D01*
X146039298Y-93559048D01*
X146137630Y-93774861D01*
X146137630Y-95193438D01*
X146137630Y-95438635D01*
G37*
X109703666Y-121111880D02*
X109528053Y-121335131D01*
X109352439Y-121558386D01*
X108638709Y-121558386D01*
X108347984Y-121066222D01*
X108347984Y-120866683D01*
X108686904Y-120866683D01*
X108738334Y-121000708D01*
X108789756Y-121134738D01*
X109251762Y-121134738D01*
X109308250Y-121078246D01*
X109364738Y-121021754D01*
X109364738Y-119792903D01*
X109261878Y-119524851D01*
X108890250Y-119524851D01*
X108788573Y-119626528D01*
X108686904Y-119728205D01*
X108686904Y-120866683D01*
X108347984Y-120866683D01*
X108347984Y-119685904D01*
X108477256Y-119435919D01*
X108606529Y-119185938D01*
X109445121Y-119185938D01*
X109574393Y-119435919D01*
X109703666Y-119685904D01*
X109703666Y-121021754D01*
X109703666Y-121111880D01*
G36*
X109703666Y-121111880D02*
G01*
X109528053Y-121335131D01*
X109352439Y-121558386D01*
X108638709Y-121558386D01*
X108347984Y-121066222D01*
X108347984Y-120866683D01*
X108686904Y-120866683D01*
X108738334Y-121000708D01*
X108789756Y-121134738D01*
X109251762Y-121134738D01*
X109308250Y-121078246D01*
X109364738Y-121021754D01*
X109364738Y-119792903D01*
X109261878Y-119524851D01*
X108890250Y-119524851D01*
X108788573Y-119626528D01*
X108686904Y-119728205D01*
X108686904Y-120866683D01*
X108347984Y-120866683D01*
X108347984Y-119685904D01*
X108477256Y-119435919D01*
X108606529Y-119185938D01*
X109445121Y-119185938D01*
X109574393Y-119435919D01*
X109703666Y-119685904D01*
X109703666Y-121021754D01*
X109703666Y-121111880D01*
G37*
X163846236Y-95392964D02*
X163671008Y-95639052D01*
X163495778Y-95885138D01*
X162664369Y-95885138D01*
X162535098Y-95635155D01*
X162405828Y-95385172D01*
X162405828Y-95193438D01*
X162744746Y-95193438D01*
X162796176Y-95327464D01*
X162847594Y-95461491D01*
X163343164Y-95461491D01*
X163386384Y-95348874D01*
X163429605Y-95236254D01*
X163380224Y-93724524D01*
X163135225Y-93696555D01*
X162890228Y-93668585D01*
X162818788Y-93781283D01*
X162747348Y-93893981D01*
X162746047Y-94543709D01*
X162744746Y-95193438D01*
X162405828Y-95193438D01*
X162405828Y-93774859D01*
X162602487Y-93343234D01*
X163587695Y-93343234D01*
X163716966Y-93593216D01*
X163846236Y-93843199D01*
X163846236Y-95236254D01*
X163846236Y-95392964D01*
G36*
X163846236Y-95392964D02*
G01*
X163671008Y-95639052D01*
X163495778Y-95885138D01*
X162664369Y-95885138D01*
X162535098Y-95635155D01*
X162405828Y-95385172D01*
X162405828Y-95193438D01*
X162744746Y-95193438D01*
X162796176Y-95327464D01*
X162847594Y-95461491D01*
X163343164Y-95461491D01*
X163386384Y-95348874D01*
X163429605Y-95236254D01*
X163380224Y-93724524D01*
X163135225Y-93696555D01*
X162890228Y-93668585D01*
X162818788Y-93781283D01*
X162747348Y-93893981D01*
X162746047Y-94543709D01*
X162744746Y-95193438D01*
X162405828Y-95193438D01*
X162405828Y-93774859D01*
X162602487Y-93343234D01*
X163587695Y-93343234D01*
X163716966Y-93593216D01*
X163846236Y-93843199D01*
X163846236Y-95236254D01*
X163846236Y-95392964D01*
G37*
X113347068Y-121473651D02*
X112197379Y-121473651D01*
X112052016Y-121227568D01*
X111906654Y-120981486D01*
X111906654Y-120931376D01*
X112245567Y-120931376D01*
X112347244Y-121033053D01*
X112448928Y-121134726D01*
X112659621Y-121134726D01*
X112791518Y-120946414D01*
X112923415Y-120758101D01*
X112923415Y-120123713D01*
X112780624Y-119824282D01*
X112637832Y-119524851D01*
X112420982Y-119524851D01*
X112333274Y-119688742D01*
X112245567Y-119852633D01*
X112245567Y-120931376D01*
X111906654Y-120931376D01*
X111906654Y-119708048D01*
X112203208Y-119176051D01*
X112563316Y-119202792D01*
X112923415Y-119229521D01*
X112923415Y-118508093D01*
X113347060Y-118508093D01*
X113347060Y-119990870D01*
X113347064Y-120758101D01*
X113347068Y-121473651D01*
G36*
X113347068Y-121473651D02*
G01*
X112197379Y-121473651D01*
X112052016Y-121227568D01*
X111906654Y-120981486D01*
X111906654Y-120931376D01*
X112245567Y-120931376D01*
X112347244Y-121033053D01*
X112448928Y-121134726D01*
X112659621Y-121134726D01*
X112791518Y-120946414D01*
X112923415Y-120758101D01*
X112923415Y-120123713D01*
X112780624Y-119824282D01*
X112637832Y-119524851D01*
X112420982Y-119524851D01*
X112333274Y-119688742D01*
X112245567Y-119852633D01*
X112245567Y-120931376D01*
X111906654Y-120931376D01*
X111906654Y-119708048D01*
X112203208Y-119176051D01*
X112563316Y-119202792D01*
X112923415Y-119229521D01*
X112923415Y-118508093D01*
X113347060Y-118508093D01*
X113347060Y-119990870D01*
X113347064Y-120758101D01*
X113347068Y-121473651D01*
G37*
X162829475Y-115480166D02*
X162653104Y-115765540D01*
X162476732Y-116050913D01*
X161646695Y-116050913D01*
X161475513Y-115715369D01*
X161304330Y-115379824D01*
X161304330Y-114229781D01*
X161720105Y-114229781D01*
X161745225Y-114907340D01*
X161770347Y-115584883D01*
X162046302Y-115611483D01*
X162322257Y-115638072D01*
X162367547Y-115520041D01*
X162412837Y-115402011D01*
X162388147Y-114646147D01*
X162363456Y-113890280D01*
X162090989Y-113863951D01*
X161818525Y-113837622D01*
X161769315Y-114033701D01*
X161720105Y-114229781D01*
X161304330Y-114229781D01*
X161304330Y-114107867D01*
X161447118Y-113808436D01*
X161589908Y-113509005D01*
X162570934Y-113509005D01*
X162700204Y-113758990D01*
X162829475Y-114008975D01*
X162829475Y-115402011D01*
X162829475Y-115480166D01*
G36*
X162829475Y-115480166D02*
G01*
X162653104Y-115765540D01*
X162476732Y-116050913D01*
X161646695Y-116050913D01*
X161475513Y-115715369D01*
X161304330Y-115379824D01*
X161304330Y-114229781D01*
X161720105Y-114229781D01*
X161745225Y-114907340D01*
X161770347Y-115584883D01*
X162046302Y-115611483D01*
X162322257Y-115638072D01*
X162367547Y-115520041D01*
X162412837Y-115402011D01*
X162388147Y-114646147D01*
X162363456Y-113890280D01*
X162090989Y-113863951D01*
X161818525Y-113837622D01*
X161769315Y-114033701D01*
X161720105Y-114229781D01*
X161304330Y-114229781D01*
X161304330Y-114107867D01*
X161447118Y-113808436D01*
X161589908Y-113509005D01*
X162570934Y-113509005D01*
X162700204Y-113758990D01*
X162829475Y-114008975D01*
X162829475Y-115402011D01*
X162829475Y-115480166D01*
G37*
X153509158Y-95492938D02*
X153324928Y-95689042D01*
X153324973Y-95689044D01*
X153140743Y-95885148D01*
X152405215Y-95885148D01*
X152237319Y-95609774D01*
X152069423Y-95334401D01*
X152069083Y-94588803D01*
X152069075Y-94571822D01*
X152534759Y-94571822D01*
X152534766Y-95419110D01*
X152791999Y-95444310D01*
X153049236Y-95469510D01*
X153109737Y-95409010D01*
X153170238Y-95348511D01*
X153168937Y-94621243D01*
X153167636Y-93893977D01*
X153096194Y-93781279D01*
X153024753Y-93668582D01*
X152779754Y-93696551D01*
X152534759Y-93724520D01*
X152534759Y-94571822D01*
X152069075Y-94571822D01*
X152068744Y-93843205D01*
X152198016Y-93593222D01*
X152327289Y-93343239D01*
X153312495Y-93343239D01*
X153509158Y-93774865D01*
X153509158Y-95348511D01*
X153509158Y-95492938D01*
G36*
X153509158Y-95492938D02*
G01*
X153324928Y-95689042D01*
X153324973Y-95689044D01*
X153140743Y-95885148D01*
X152405215Y-95885148D01*
X152237319Y-95609774D01*
X152069423Y-95334401D01*
X152069083Y-94588803D01*
X152069075Y-94571822D01*
X152534759Y-94571822D01*
X152534766Y-95419110D01*
X152791999Y-95444310D01*
X153049236Y-95469510D01*
X153109737Y-95409010D01*
X153170238Y-95348511D01*
X153168937Y-94621243D01*
X153167636Y-93893977D01*
X153096194Y-93781279D01*
X153024753Y-93668582D01*
X152779754Y-93696551D01*
X152534759Y-93724520D01*
X152534759Y-94571822D01*
X152069075Y-94571822D01*
X152068744Y-93843205D01*
X152198016Y-93593222D01*
X152327289Y-93343239D01*
X153312495Y-93343239D01*
X153509158Y-93774865D01*
X153509158Y-95348511D01*
X153509158Y-95492938D01*
G37*
X170878839Y-105968028D02*
X169639272Y-105968028D01*
X169496484Y-105668597D01*
X169353696Y-105369168D01*
X169353696Y-105197484D01*
X169692621Y-105197484D01*
X169790950Y-105413296D01*
X169790961Y-105413298D01*
X169889291Y-105629111D01*
X170196660Y-105629111D01*
X170325931Y-105379128D01*
X170455203Y-105129145D01*
X170455203Y-104448638D01*
X170312413Y-104149207D01*
X170169626Y-103849776D01*
X169923139Y-103849776D01*
X169810580Y-103998053D01*
X169698022Y-104146330D01*
X169695321Y-104671908D01*
X169692621Y-105197484D01*
X169353696Y-105197484D01*
X169353696Y-104028920D01*
X169531526Y-103727521D01*
X169709356Y-103426123D01*
X170251836Y-103426123D01*
X170353513Y-103527800D01*
X170455190Y-103629477D01*
X170455190Y-102748282D01*
X170878841Y-102748282D01*
X170878841Y-104358155D01*
X170878840Y-105129145D01*
X170878839Y-105968028D01*
G36*
X170878839Y-105968028D02*
G01*
X169639272Y-105968028D01*
X169496484Y-105668597D01*
X169353696Y-105369168D01*
X169353696Y-105197484D01*
X169692621Y-105197484D01*
X169790950Y-105413296D01*
X169790961Y-105413298D01*
X169889291Y-105629111D01*
X170196660Y-105629111D01*
X170325931Y-105379128D01*
X170455203Y-105129145D01*
X170455203Y-104448638D01*
X170312413Y-104149207D01*
X170169626Y-103849776D01*
X169923139Y-103849776D01*
X169810580Y-103998053D01*
X169698022Y-104146330D01*
X169695321Y-104671908D01*
X169692621Y-105197484D01*
X169353696Y-105197484D01*
X169353696Y-104028920D01*
X169531526Y-103727521D01*
X169709356Y-103426123D01*
X170251836Y-103426123D01*
X170353513Y-103527800D01*
X170455190Y-103629477D01*
X170455190Y-102748282D01*
X170878841Y-102748282D01*
X170878841Y-104358155D01*
X170878840Y-105129145D01*
X170878839Y-105968028D01*
G37*
X125209281Y-107408440D02*
X123260490Y-107408440D01*
X123260490Y-108425204D01*
X122328452Y-108425204D01*
X122328452Y-109357230D01*
X124192512Y-109357230D01*
X124192512Y-108425202D01*
X125209281Y-108425202D01*
X125209281Y-112238059D01*
X124192519Y-112238059D01*
X124192519Y-110289263D01*
X123260490Y-110289263D01*
X123260490Y-111221297D01*
X121396415Y-111221297D01*
X121396415Y-110289267D01*
X120464378Y-110289267D01*
X120464378Y-112238059D01*
X117583564Y-112238059D01*
X117583564Y-111221297D01*
X119447623Y-111221297D01*
X119447623Y-109357230D01*
X121396415Y-109357230D01*
X121396415Y-108425200D01*
X122328452Y-108425200D01*
X122328452Y-107408442D01*
X123260474Y-107408442D01*
X123260474Y-106476410D01*
X124192512Y-106476410D01*
X124192512Y-105544377D01*
X125209281Y-105544377D01*
X125209281Y-107408440D01*
G36*
X125209281Y-107408440D02*
G01*
X123260490Y-107408440D01*
X123260490Y-108425204D01*
X122328452Y-108425204D01*
X122328452Y-109357230D01*
X124192512Y-109357230D01*
X124192512Y-108425202D01*
X125209281Y-108425202D01*
X125209281Y-112238059D01*
X124192519Y-112238059D01*
X124192519Y-110289263D01*
X123260490Y-110289263D01*
X123260490Y-111221297D01*
X121396415Y-111221297D01*
X121396415Y-110289267D01*
X120464378Y-110289267D01*
X120464378Y-112238059D01*
X117583564Y-112238059D01*
X117583564Y-111221297D01*
X119447623Y-111221297D01*
X119447623Y-109357230D01*
X121396415Y-109357230D01*
X121396415Y-108425200D01*
X122328452Y-108425200D01*
X122328452Y-107408442D01*
X123260474Y-107408442D01*
X123260474Y-106476410D01*
X124192512Y-106476410D01*
X124192512Y-105544377D01*
X125209281Y-105544377D01*
X125209281Y-107408440D01*
G37*
X167404905Y-95211283D02*
X167404880Y-96647708D01*
X167065961Y-96647708D01*
X167063361Y-96033465D01*
X167060661Y-95419173D01*
X166886817Y-95652180D01*
X166712974Y-95885188D01*
X166216237Y-95885188D01*
X166048339Y-95609814D01*
X165880441Y-95334441D01*
X165880101Y-94673386D01*
X165879767Y-94022690D01*
X166296582Y-94022690D01*
X166321182Y-94719969D01*
X166345771Y-95417241D01*
X166480417Y-95442950D01*
X166615060Y-95468659D01*
X166844455Y-95122019D01*
X167073850Y-94775382D01*
X167023610Y-93724516D01*
X166484121Y-93672255D01*
X166390352Y-93847472D01*
X166296582Y-94022690D01*
X165879767Y-94022690D01*
X165879762Y-94012332D01*
X166070405Y-93678460D01*
X166261049Y-93344588D01*
X166734647Y-93343911D01*
X167208246Y-93343234D01*
X167306575Y-93559046D01*
X167404905Y-93774859D01*
X167404905Y-94775382D01*
X167404905Y-95211283D01*
G36*
X167404905Y-95211283D02*
G01*
X167404880Y-96647708D01*
X167065961Y-96647708D01*
X167063361Y-96033465D01*
X167060661Y-95419173D01*
X166886817Y-95652180D01*
X166712974Y-95885188D01*
X166216237Y-95885188D01*
X166048339Y-95609814D01*
X165880441Y-95334441D01*
X165880101Y-94673386D01*
X165879767Y-94022690D01*
X166296582Y-94022690D01*
X166321182Y-94719969D01*
X166345771Y-95417241D01*
X166480417Y-95442950D01*
X166615060Y-95468659D01*
X166844455Y-95122019D01*
X167073850Y-94775382D01*
X167023610Y-93724516D01*
X166484121Y-93672255D01*
X166390352Y-93847472D01*
X166296582Y-94022690D01*
X165879767Y-94022690D01*
X165879762Y-94012332D01*
X166070405Y-93678460D01*
X166261049Y-93344588D01*
X166734647Y-93343911D01*
X167208246Y-93343234D01*
X167306575Y-93559046D01*
X167404905Y-93774859D01*
X167404905Y-94775382D01*
X167404905Y-95211283D01*
G37*
X161811147Y-95464562D02*
X161640119Y-95799796D01*
X161048574Y-95790795D01*
X160457031Y-95781794D01*
X160457031Y-94353247D01*
X160795873Y-94353247D01*
X160797773Y-94547265D01*
X160799672Y-94741284D01*
X160963130Y-95101388D01*
X160963052Y-95101391D01*
X161126510Y-95461495D01*
X161383023Y-95461495D01*
X161470733Y-95297604D01*
X161558442Y-95133713D01*
X161558442Y-94113783D01*
X161460113Y-93897971D01*
X161361783Y-93682158D01*
X161138238Y-93682158D01*
X160967056Y-94017703D01*
X160795873Y-94353247D01*
X160457031Y-94353247D01*
X160457031Y-92580664D01*
X160868438Y-92580664D01*
X160831569Y-93067862D01*
X160794700Y-93555060D01*
X160844751Y-93449149D01*
X160894801Y-93343236D01*
X161609485Y-93343236D01*
X161795829Y-93726788D01*
X161982173Y-94110341D01*
X161982173Y-95129321D01*
X161979932Y-95133713D01*
X161811147Y-95464562D01*
G36*
X161811147Y-95464562D02*
G01*
X161640119Y-95799796D01*
X161048574Y-95790795D01*
X160457031Y-95781794D01*
X160457031Y-94353247D01*
X160795873Y-94353247D01*
X160797773Y-94547265D01*
X160799672Y-94741284D01*
X160963130Y-95101388D01*
X160963052Y-95101391D01*
X161126510Y-95461495D01*
X161383023Y-95461495D01*
X161470733Y-95297604D01*
X161558442Y-95133713D01*
X161558442Y-94113783D01*
X161460113Y-93897971D01*
X161361783Y-93682158D01*
X161138238Y-93682158D01*
X160967056Y-94017703D01*
X160795873Y-94353247D01*
X160457031Y-94353247D01*
X160457031Y-92580664D01*
X160868438Y-92580664D01*
X160831569Y-93067862D01*
X160794700Y-93555060D01*
X160844751Y-93449149D01*
X160894801Y-93343236D01*
X161609485Y-93343236D01*
X161795829Y-93726788D01*
X161982173Y-94110341D01*
X161982173Y-95129321D01*
X161979932Y-95133713D01*
X161811147Y-95464562D01*
G37*
X168336597Y-114679968D02*
X168336936Y-115300177D01*
X168078675Y-115675547D01*
X168078616Y-115675547D01*
X167820356Y-116050917D01*
X166896463Y-116050917D01*
X166896463Y-115627265D01*
X167682718Y-115627265D01*
X167907834Y-115330710D01*
X167910535Y-115055338D01*
X167913236Y-114779967D01*
X166811786Y-114779967D01*
X166814586Y-114335135D01*
X166816104Y-114093981D01*
X167136722Y-114093981D01*
X167166032Y-114246329D01*
X167195344Y-114398676D01*
X167554315Y-114412348D01*
X167913285Y-114426020D01*
X167913285Y-114115985D01*
X167861856Y-113981959D01*
X167810426Y-113847933D01*
X167340924Y-113847933D01*
X167238822Y-113970957D01*
X167136722Y-114093981D01*
X166816104Y-114093981D01*
X166817386Y-113890299D01*
X166976426Y-113699656D01*
X167135467Y-113509013D01*
X168000463Y-113509013D01*
X168168359Y-113784384D01*
X168336257Y-114059760D01*
X168336458Y-114426020D01*
X168336597Y-114679968D01*
G36*
X168336597Y-114679968D02*
G01*
X168336936Y-115300177D01*
X168078675Y-115675547D01*
X168078616Y-115675547D01*
X167820356Y-116050917D01*
X166896463Y-116050917D01*
X166896463Y-115627265D01*
X167682718Y-115627265D01*
X167907834Y-115330710D01*
X167910535Y-115055338D01*
X167913236Y-114779967D01*
X166811786Y-114779967D01*
X166814586Y-114335135D01*
X166816104Y-114093981D01*
X167136722Y-114093981D01*
X167166032Y-114246329D01*
X167195344Y-114398676D01*
X167554315Y-114412348D01*
X167913285Y-114426020D01*
X167913285Y-114115985D01*
X167861856Y-113981959D01*
X167810426Y-113847933D01*
X167340924Y-113847933D01*
X167238822Y-113970957D01*
X167136722Y-114093981D01*
X166816104Y-114093981D01*
X166817386Y-113890299D01*
X166976426Y-113699656D01*
X167135467Y-113509013D01*
X168000463Y-113509013D01*
X168168359Y-113784384D01*
X168336257Y-114059760D01*
X168336458Y-114426020D01*
X168336597Y-114679968D01*
G37*
X146740772Y-93357443D02*
X146936801Y-93385604D01*
X147069476Y-94232905D01*
X147202152Y-95080206D01*
X147312808Y-94296452D01*
X147423465Y-93512698D01*
X147898578Y-93512698D01*
X147945998Y-93703341D01*
X147993419Y-93893984D01*
X148051837Y-94468110D01*
X148110255Y-95042233D01*
X148164134Y-94988354D01*
X148255466Y-94356436D01*
X148346797Y-93724518D01*
X148387676Y-93533875D01*
X148428554Y-93343232D01*
X148764247Y-93343232D01*
X148765262Y-93470334D01*
X148582038Y-94635373D01*
X148582015Y-94635369D01*
X148398792Y-95800410D01*
X147928363Y-95800410D01*
X147885474Y-95652133D01*
X147842586Y-95503855D01*
X147783046Y-94912135D01*
X147723506Y-94320412D01*
X147659145Y-94494395D01*
X147594783Y-94668379D01*
X147534164Y-95234395D01*
X147473552Y-95800412D01*
X146988139Y-95800412D01*
X146945449Y-95609768D01*
X146902759Y-95419125D01*
X146772239Y-94614188D01*
X146641719Y-93809252D01*
X146593230Y-93569268D01*
X146544742Y-93329283D01*
X146740772Y-93357443D01*
G36*
X146740772Y-93357443D02*
G01*
X146936801Y-93385604D01*
X147069476Y-94232905D01*
X147202152Y-95080206D01*
X147312808Y-94296452D01*
X147423465Y-93512698D01*
X147898578Y-93512698D01*
X147945998Y-93703341D01*
X147993419Y-93893984D01*
X148051837Y-94468110D01*
X148110255Y-95042233D01*
X148164134Y-94988354D01*
X148255466Y-94356436D01*
X148346797Y-93724518D01*
X148387676Y-93533875D01*
X148428554Y-93343232D01*
X148764247Y-93343232D01*
X148765262Y-93470334D01*
X148582038Y-94635373D01*
X148582015Y-94635369D01*
X148398792Y-95800410D01*
X147928363Y-95800410D01*
X147885474Y-95652133D01*
X147842586Y-95503855D01*
X147783046Y-94912135D01*
X147723506Y-94320412D01*
X147659145Y-94494395D01*
X147594783Y-94668379D01*
X147534164Y-95234395D01*
X147473552Y-95800412D01*
X146988139Y-95800412D01*
X146945449Y-95609768D01*
X146902759Y-95419125D01*
X146772239Y-94614188D01*
X146641719Y-93809252D01*
X146593230Y-93569268D01*
X146544742Y-93329283D01*
X146740772Y-93357443D01*
G37*
X164354621Y-103505538D02*
X164354621Y-105939789D01*
X164295202Y-105999199D01*
X164295190Y-105999186D01*
X164235770Y-106058606D01*
X164104543Y-106033625D01*
X163973315Y-106008645D01*
X163927596Y-105119849D01*
X163881877Y-104231053D01*
X163812618Y-104082776D01*
X163743358Y-103934498D01*
X163501979Y-103934498D01*
X163445810Y-104080865D01*
X163389640Y-104227229D01*
X163384940Y-105076443D01*
X163380241Y-105925658D01*
X163041320Y-105925658D01*
X162998950Y-104969092D01*
X162956580Y-104012528D01*
X162829484Y-103932448D01*
X162702390Y-103852368D01*
X162602491Y-103849766D01*
X162497895Y-104079331D01*
X162393300Y-104308894D01*
X162416490Y-105159640D01*
X162439679Y-106010386D01*
X162253295Y-106037455D01*
X162066913Y-106064536D01*
X162066913Y-104081593D01*
X162243284Y-103796219D01*
X162419654Y-103510846D01*
X162902108Y-103510846D01*
X163039539Y-103648276D01*
X163176971Y-103785706D01*
X163287067Y-103635140D01*
X163397163Y-103484576D01*
X163906261Y-103586398D01*
X164089042Y-103403617D01*
X164354621Y-103505538D01*
G36*
X164354621Y-103505538D02*
G01*
X164354621Y-105939789D01*
X164295202Y-105999199D01*
X164295190Y-105999186D01*
X164235770Y-106058606D01*
X164104543Y-106033625D01*
X163973315Y-106008645D01*
X163927596Y-105119849D01*
X163881877Y-104231053D01*
X163812618Y-104082776D01*
X163743358Y-103934498D01*
X163501979Y-103934498D01*
X163445810Y-104080865D01*
X163389640Y-104227229D01*
X163384940Y-105076443D01*
X163380241Y-105925658D01*
X163041320Y-105925658D01*
X162998950Y-104969092D01*
X162956580Y-104012528D01*
X162829484Y-103932448D01*
X162702390Y-103852368D01*
X162602491Y-103849766D01*
X162497895Y-104079331D01*
X162393300Y-104308894D01*
X162416490Y-105159640D01*
X162439679Y-106010386D01*
X162253295Y-106037455D01*
X162066913Y-106064536D01*
X162066913Y-104081593D01*
X162243284Y-103796219D01*
X162419654Y-103510846D01*
X162902108Y-103510846D01*
X163039539Y-103648276D01*
X163176971Y-103785706D01*
X163287067Y-103635140D01*
X163397163Y-103484576D01*
X163906261Y-103586398D01*
X164089042Y-103403617D01*
X164354621Y-103505538D01*
G37*
X121226936Y-121123702D02*
X121061683Y-121558386D01*
X120475799Y-121558386D01*
X120364181Y-121206694D01*
X120324592Y-121246283D01*
X120285003Y-121285872D01*
X120412734Y-121591586D01*
X120540473Y-121897299D01*
X121057502Y-121897299D01*
X121057502Y-122066760D01*
X121057487Y-122236216D01*
X120326102Y-122236216D01*
X120141052Y-121789744D01*
X119956001Y-121343276D01*
X119956001Y-120383109D01*
X120294929Y-120383109D01*
X120474822Y-120801283D01*
X120474815Y-120801291D01*
X120654708Y-121219466D01*
X120775069Y-121219466D01*
X120831558Y-121162974D01*
X120888046Y-121106482D01*
X120885345Y-120463946D01*
X120882644Y-119821410D01*
X120770087Y-119673132D01*
X120657531Y-119524855D01*
X120399497Y-119524855D01*
X120348411Y-119715499D01*
X120297324Y-119906142D01*
X120296127Y-120144625D01*
X120294929Y-120383109D01*
X119956001Y-120383109D01*
X119956001Y-119841071D01*
X120054137Y-119513503D01*
X120152274Y-119185935D01*
X120884574Y-119185935D01*
X121055755Y-119521479D01*
X121226936Y-119857024D01*
X121226936Y-121106482D01*
X121226936Y-121123702D01*
G36*
X121226936Y-121123702D02*
G01*
X121061683Y-121558386D01*
X120475799Y-121558386D01*
X120364181Y-121206694D01*
X120324592Y-121246283D01*
X120285003Y-121285872D01*
X120412734Y-121591586D01*
X120540473Y-121897299D01*
X121057502Y-121897299D01*
X121057502Y-122066760D01*
X121057487Y-122236216D01*
X120326102Y-122236216D01*
X120141052Y-121789744D01*
X119956001Y-121343276D01*
X119956001Y-120383109D01*
X120294929Y-120383109D01*
X120474822Y-120801283D01*
X120474815Y-120801291D01*
X120654708Y-121219466D01*
X120775069Y-121219466D01*
X120831558Y-121162974D01*
X120888046Y-121106482D01*
X120885345Y-120463946D01*
X120882644Y-119821410D01*
X120770087Y-119673132D01*
X120657531Y-119524855D01*
X120399497Y-119524855D01*
X120348411Y-119715499D01*
X120297324Y-119906142D01*
X120296127Y-120144625D01*
X120294929Y-120383109D01*
X119956001Y-120383109D01*
X119956001Y-119841071D01*
X120054137Y-119513503D01*
X120152274Y-119185935D01*
X120884574Y-119185935D01*
X121055755Y-119521479D01*
X121226936Y-119857024D01*
X121226936Y-121106482D01*
X121226936Y-121123702D01*
G37*
X179521330Y-105618071D02*
X179438700Y-105835412D01*
X179356070Y-106052748D01*
X178764177Y-106052748D01*
X178637768Y-105819741D01*
X178511360Y-105586733D01*
X178507961Y-105689772D01*
X178504561Y-105792811D01*
X178647349Y-106092242D01*
X178790138Y-106391673D01*
X179341861Y-106391673D01*
X179396731Y-106480464D01*
X179451600Y-106569254D01*
X179404391Y-106692294D01*
X179404380Y-106692294D01*
X179357170Y-106815331D01*
X178587167Y-106815331D01*
X178376410Y-106338772D01*
X178165653Y-105862214D01*
X178165653Y-104760722D01*
X178504555Y-104760722D01*
X178715312Y-105237280D01*
X178926072Y-105713841D01*
X179079532Y-105713841D01*
X179130962Y-105579815D01*
X179182391Y-105445790D01*
X179182391Y-104281401D01*
X178985732Y-103849776D01*
X178679976Y-103849776D01*
X178592265Y-104013667D01*
X178504555Y-104177558D01*
X178504555Y-104760722D01*
X178165653Y-104760722D01*
X178165653Y-104165993D01*
X178263792Y-103838423D01*
X178361932Y-103510855D01*
X179165671Y-103510855D01*
X179343500Y-103812255D01*
X179521330Y-104113652D01*
X179521330Y-105445790D01*
X179521330Y-105618071D01*
G36*
X179521330Y-105618071D02*
G01*
X179438700Y-105835412D01*
X179356070Y-106052748D01*
X178764177Y-106052748D01*
X178637768Y-105819741D01*
X178511360Y-105586733D01*
X178507961Y-105689772D01*
X178504561Y-105792811D01*
X178647349Y-106092242D01*
X178790138Y-106391673D01*
X179341861Y-106391673D01*
X179396731Y-106480464D01*
X179451600Y-106569254D01*
X179404391Y-106692294D01*
X179404380Y-106692294D01*
X179357170Y-106815331D01*
X178587167Y-106815331D01*
X178376410Y-106338772D01*
X178165653Y-105862214D01*
X178165653Y-104760722D01*
X178504555Y-104760722D01*
X178715312Y-105237280D01*
X178926072Y-105713841D01*
X179079532Y-105713841D01*
X179130962Y-105579815D01*
X179182391Y-105445790D01*
X179182391Y-104281401D01*
X178985732Y-103849776D01*
X178679976Y-103849776D01*
X178592265Y-104013667D01*
X178504555Y-104177558D01*
X178504555Y-104760722D01*
X178165653Y-104760722D01*
X178165653Y-104165993D01*
X178263792Y-103838423D01*
X178361932Y-103510855D01*
X179165671Y-103510855D01*
X179343500Y-103812255D01*
X179521330Y-104113652D01*
X179521330Y-105445790D01*
X179521330Y-105618071D01*
G37*
X174691934Y-94550641D02*
X174691924Y-94550589D01*
X174691671Y-95800358D01*
X173350471Y-95800358D01*
X173128455Y-95403128D01*
X172906440Y-95005898D01*
X172991740Y-94783597D01*
X173172240Y-94783597D01*
X173347213Y-95080151D01*
X173522186Y-95376708D01*
X174352748Y-95376708D01*
X174352409Y-94847144D01*
X174352069Y-94317580D01*
X174239606Y-94487101D01*
X174103053Y-94692935D01*
X173854038Y-95068287D01*
X173700948Y-94799382D01*
X173547858Y-94530476D01*
X173145391Y-94529969D01*
X172742923Y-94529460D01*
X172742923Y-93757458D01*
X173481014Y-93757458D01*
X173587091Y-94013554D01*
X173693172Y-94269656D01*
X173956554Y-94487101D01*
X173907163Y-94116740D01*
X173857772Y-93746377D01*
X173674934Y-93563538D01*
X173481014Y-93757458D01*
X172742923Y-93757458D01*
X172742923Y-93242634D01*
X173166560Y-93242634D01*
X173336021Y-93198315D01*
X173505481Y-93154006D01*
X173505481Y-93347144D01*
X173719951Y-93206616D01*
X173934421Y-93066090D01*
X173962791Y-93098750D01*
X173991252Y-93131405D01*
X174163118Y-93682152D01*
X174334983Y-94232899D01*
X174343883Y-93826224D01*
X174352782Y-93419549D01*
X174223512Y-93169566D01*
X174094241Y-92919583D01*
X173166560Y-92919583D01*
X173166560Y-93242634D01*
X172742923Y-93242634D01*
X172742923Y-92580665D01*
X174310722Y-92580665D01*
X174501455Y-92940768D01*
X174692189Y-93300871D01*
X174692165Y-93419549D01*
X174691934Y-94550641D01*
G36*
X174691934Y-94550641D02*
G01*
X174691924Y-94550589D01*
X174691671Y-95800358D01*
X173350471Y-95800358D01*
X173128455Y-95403128D01*
X172906440Y-95005898D01*
X172991740Y-94783597D01*
X173172240Y-94783597D01*
X173347213Y-95080151D01*
X173522186Y-95376708D01*
X174352748Y-95376708D01*
X174352409Y-94847144D01*
X174352069Y-94317580D01*
X174239606Y-94487101D01*
X174103053Y-94692935D01*
X173854038Y-95068287D01*
X173700948Y-94799382D01*
X173547858Y-94530476D01*
X173145391Y-94529969D01*
X172742923Y-94529460D01*
X172742923Y-93757458D01*
X173481014Y-93757458D01*
X173587091Y-94013554D01*
X173693172Y-94269656D01*
X173956554Y-94487101D01*
X173907163Y-94116740D01*
X173857772Y-93746377D01*
X173674934Y-93563538D01*
X173481014Y-93757458D01*
X172742923Y-93757458D01*
X172742923Y-93242634D01*
X173166560Y-93242634D01*
X173336021Y-93198315D01*
X173505481Y-93154006D01*
X173505481Y-93347144D01*
X173719951Y-93206616D01*
X173934421Y-93066090D01*
X173962791Y-93098750D01*
X173991252Y-93131405D01*
X174163118Y-93682152D01*
X174334983Y-94232899D01*
X174343883Y-93826224D01*
X174352782Y-93419549D01*
X174223512Y-93169566D01*
X174094241Y-92919583D01*
X173166560Y-92919583D01*
X173166560Y-93242634D01*
X172742923Y-93242634D01*
X172742923Y-92580665D01*
X174310722Y-92580665D01*
X174501455Y-92940768D01*
X174692189Y-93300871D01*
X174692165Y-93419549D01*
X174691934Y-94550641D01*
G37*
X179436588Y-114409690D02*
X179436588Y-114689150D01*
X179436548Y-114689150D01*
X179436548Y-115973342D01*
X178783191Y-115948592D01*
X178129833Y-115923842D01*
X177877463Y-115515116D01*
X177625091Y-115106394D01*
X177747066Y-115029215D01*
X177869041Y-114952036D01*
X177957601Y-114949435D01*
X178117307Y-115245989D01*
X178277012Y-115542544D01*
X179097629Y-115542544D01*
X179097290Y-115012980D01*
X179096952Y-114483416D01*
X178852684Y-114851595D01*
X178608417Y-115219775D01*
X178453492Y-114957507D01*
X178298567Y-114695239D01*
X177572532Y-114695239D01*
X177572532Y-114186858D01*
X177897320Y-114186858D01*
X177940060Y-114292769D01*
X177982800Y-114398680D01*
X177982800Y-113975028D01*
X177940060Y-114080939D01*
X177897320Y-114186858D01*
X177572532Y-114186858D01*
X177572532Y-113911505D01*
X178232234Y-113911505D01*
X178253360Y-113975028D01*
X178285064Y-114070361D01*
X178285066Y-114070361D01*
X178337896Y-114229216D01*
X178651462Y-114635802D01*
X178689152Y-114522746D01*
X178726832Y-114409690D01*
X178640552Y-114086447D01*
X178554272Y-113763205D01*
X178508232Y-113764506D01*
X178462193Y-113765807D01*
X178347214Y-113838656D01*
X178232234Y-113911505D01*
X177572532Y-113911505D01*
X177572532Y-113408412D01*
X177911446Y-113408412D01*
X178080906Y-113364100D01*
X178250367Y-113319789D01*
X178250367Y-113512919D01*
X178464837Y-113372393D01*
X178679307Y-113231867D01*
X178722758Y-113275317D01*
X178722713Y-113275313D01*
X178766163Y-113318762D01*
X178925416Y-113858718D01*
X179084669Y-114398673D01*
X179097670Y-113461981D01*
X178965770Y-113273669D01*
X178833870Y-113085356D01*
X177911446Y-113085356D01*
X177911446Y-113408412D01*
X177572532Y-113408412D01*
X177572532Y-113276007D01*
X177519572Y-113011225D01*
X177466611Y-112746443D01*
X179066462Y-112746443D01*
X179251525Y-113075717D01*
X179436588Y-113404990D01*
X179436588Y-113461981D01*
X179436588Y-114409690D01*
G36*
X179436588Y-114409690D02*
G01*
X179436588Y-114689150D01*
X179436548Y-114689150D01*
X179436548Y-115973342D01*
X178783191Y-115948592D01*
X178129833Y-115923842D01*
X177877463Y-115515116D01*
X177625091Y-115106394D01*
X177747066Y-115029215D01*
X177869041Y-114952036D01*
X177957601Y-114949435D01*
X178117307Y-115245989D01*
X178277012Y-115542544D01*
X179097629Y-115542544D01*
X179097290Y-115012980D01*
X179096952Y-114483416D01*
X178852684Y-114851595D01*
X178608417Y-115219775D01*
X178453492Y-114957507D01*
X178298567Y-114695239D01*
X177572532Y-114695239D01*
X177572532Y-114186858D01*
X177897320Y-114186858D01*
X177940060Y-114292769D01*
X177982800Y-114398680D01*
X177982800Y-113975028D01*
X177940060Y-114080939D01*
X177897320Y-114186858D01*
X177572532Y-114186858D01*
X177572532Y-113911505D01*
X178232234Y-113911505D01*
X178253360Y-113975028D01*
X178285064Y-114070361D01*
X178285066Y-114070361D01*
X178337896Y-114229216D01*
X178651462Y-114635802D01*
X178689152Y-114522746D01*
X178726832Y-114409690D01*
X178640552Y-114086447D01*
X178554272Y-113763205D01*
X178508232Y-113764506D01*
X178462193Y-113765807D01*
X178347214Y-113838656D01*
X178232234Y-113911505D01*
X177572532Y-113911505D01*
X177572532Y-113408412D01*
X177911446Y-113408412D01*
X178080906Y-113364100D01*
X178250367Y-113319789D01*
X178250367Y-113512919D01*
X178464837Y-113372393D01*
X178679307Y-113231867D01*
X178722758Y-113275317D01*
X178722713Y-113275313D01*
X178766163Y-113318762D01*
X178925416Y-113858718D01*
X179084669Y-114398673D01*
X179097670Y-113461981D01*
X178965770Y-113273669D01*
X178833870Y-113085356D01*
X177911446Y-113085356D01*
X177911446Y-113408412D01*
X177572532Y-113408412D01*
X177572532Y-113276007D01*
X177519572Y-113011225D01*
X177466611Y-112746443D01*
X179066462Y-112746443D01*
X179251525Y-113075717D01*
X179436588Y-113404990D01*
X179436588Y-113461981D01*
X179436588Y-114409690D01*
G37*
X125209281Y-97918660D02*
X123260490Y-97918660D01*
X123260490Y-97918662D01*
X123260490Y-98935422D01*
X126141319Y-98935422D01*
X126141319Y-97918660D01*
X130886207Y-97918660D01*
X130886207Y-98935422D01*
X131818237Y-98935422D01*
X131818237Y-97918660D01*
X132750266Y-97918660D01*
X132750266Y-98935425D01*
X132750266Y-99867455D01*
X130886199Y-99867455D01*
X130886199Y-100799489D01*
X129954170Y-100799489D01*
X129954170Y-101731520D01*
X131818237Y-101731520D01*
X131818237Y-102663552D01*
X132750266Y-102663552D01*
X132750266Y-106476414D01*
X131818229Y-106476414D01*
X131818229Y-103680317D01*
X130886199Y-103680317D01*
X130886199Y-102663558D01*
X129954170Y-102663558D01*
X129954170Y-101731524D01*
X129022140Y-101731524D01*
X129022140Y-100799492D01*
X126141311Y-100799492D01*
X126141311Y-99867459D01*
X127073348Y-99867459D01*
X129022140Y-99867459D01*
X129954170Y-99867459D01*
X129954170Y-98935425D01*
X129022140Y-98935425D01*
X129022140Y-99867459D01*
X127073348Y-99867459D01*
X127073348Y-98935425D01*
X126141311Y-98935425D01*
X126141311Y-99867457D01*
X125209281Y-99867457D01*
X125209281Y-100799489D01*
X123260490Y-100799489D01*
X123260490Y-101731520D01*
X122328460Y-101731520D01*
X122328460Y-102663552D01*
X125209289Y-102663552D01*
X125209289Y-101731520D01*
X127073348Y-101731520D01*
X127073348Y-102663552D01*
X129022140Y-102663552D01*
X129022140Y-102663554D01*
X129022140Y-104612353D01*
X129954170Y-104612353D01*
X129954170Y-106476414D01*
X129022144Y-106476414D01*
X129022144Y-105544381D01*
X128005378Y-105544381D01*
X128005378Y-103680317D01*
X127073341Y-103680317D01*
X127073341Y-104612351D01*
X123260490Y-104612351D01*
X123260490Y-103680317D01*
X122328452Y-103680317D01*
X122328452Y-103680314D01*
X125209289Y-103680314D01*
X127073348Y-103680314D01*
X127073348Y-102663554D01*
X125209289Y-102663554D01*
X125209289Y-103680314D01*
X122328452Y-103680314D01*
X122328452Y-102663556D01*
X121396415Y-102663556D01*
X121396415Y-103680317D01*
X120464378Y-103680317D01*
X120464378Y-102663556D01*
X119447608Y-102663556D01*
X119447608Y-105544381D01*
X121396400Y-105544381D01*
X121396400Y-104612347D01*
X122328437Y-104612347D01*
X122328437Y-107408438D01*
X120464393Y-107408438D01*
X120464393Y-106476407D01*
X117583564Y-106476407D01*
X117583564Y-106476409D01*
X117583564Y-108425200D01*
X118515601Y-108425200D01*
X118515601Y-110289263D01*
X117583564Y-110289263D01*
X117583564Y-111221293D01*
X116651550Y-111221293D01*
X116651550Y-110289263D01*
X115719512Y-110289263D01*
X115719512Y-111221293D01*
X114702743Y-111221293D01*
X114702743Y-110289263D01*
X113770705Y-110289263D01*
X113770705Y-111221297D01*
X112838676Y-111221297D01*
X112838676Y-112238059D01*
X114702735Y-112238059D01*
X114702735Y-113170088D01*
X115719505Y-113170088D01*
X115719505Y-112238059D01*
X117583564Y-112238059D01*
X117583564Y-113170088D01*
X120464393Y-113170088D01*
X120464393Y-112238059D01*
X121396415Y-112238059D01*
X121396415Y-113170096D01*
X122328452Y-113170096D01*
X122328452Y-114102122D01*
X117583564Y-114102122D01*
X117583564Y-113170092D01*
X116651534Y-113170092D01*
X116651534Y-114102118D01*
X109025832Y-114102118D01*
X109025832Y-111221297D01*
X109957847Y-111221297D01*
X109957847Y-112195693D01*
X109957862Y-113170088D01*
X111906654Y-113170088D01*
X111906654Y-112238059D01*
X110889884Y-112238059D01*
X110889884Y-111221297D01*
X109957847Y-111221297D01*
X109025832Y-111221297D01*
X109025832Y-110289263D01*
X111906646Y-110289263D01*
X112838683Y-110289263D01*
X112838683Y-109357234D01*
X113770705Y-109357234D01*
X116651534Y-109357234D01*
X116651534Y-106476409D01*
X113770705Y-106476409D01*
X113770705Y-109357234D01*
X112838683Y-109357234D01*
X111906646Y-109357234D01*
X111906646Y-110289263D01*
X109025832Y-110289263D01*
X109025832Y-110289260D01*
X110889892Y-110289260D01*
X110889892Y-109357230D01*
X111906661Y-109357230D01*
X111906661Y-108425202D01*
X112838683Y-108425202D01*
X112838683Y-107408440D01*
X111906661Y-107408440D01*
X111906661Y-106476409D01*
X112838699Y-106476409D01*
X112838699Y-105544381D01*
X114702728Y-105544381D01*
X117583556Y-105544381D01*
X117583556Y-104612347D01*
X115719497Y-104612347D01*
X115719497Y-103680314D01*
X118515594Y-103680314D01*
X118515594Y-102663552D01*
X114702743Y-102663552D01*
X114702743Y-104103964D01*
X114702728Y-105544381D01*
X112838699Y-105544381D01*
X112838699Y-104612345D01*
X111906661Y-104612345D01*
X111906661Y-102663554D01*
X112838683Y-102663554D01*
X112838683Y-103171935D01*
X112838699Y-103680317D01*
X113770736Y-103680317D01*
X113770736Y-102663560D01*
X114702728Y-102663560D01*
X114702728Y-100799496D01*
X117583556Y-100799496D01*
X117583556Y-99867463D01*
X118515594Y-99867463D01*
X118515594Y-101731526D01*
X122328445Y-101731526D01*
X122328445Y-100799494D01*
X123260482Y-100799494D01*
X123260482Y-99867461D01*
X119447631Y-99867461D01*
X119447631Y-98935427D01*
X118515594Y-98935427D01*
X118515594Y-98935423D01*
X120464393Y-98935423D01*
X121396430Y-98935423D01*
X121396430Y-97918662D01*
X120464393Y-97918662D01*
X120464393Y-98935423D01*
X118515594Y-98935423D01*
X118515594Y-97918665D01*
X120464385Y-97918665D01*
X120464385Y-96054602D01*
X121396423Y-96054602D01*
X121396423Y-96986630D01*
X122328460Y-96986630D01*
X123260490Y-96986630D01*
X124192527Y-96986630D01*
X124192527Y-96054596D01*
X123260490Y-96054596D01*
X123260490Y-96986630D01*
X122328460Y-96986630D01*
X122328460Y-96054596D01*
X121396423Y-96054596D01*
X121396423Y-94105807D01*
X119447631Y-94105807D01*
X119447631Y-96986632D01*
X118515601Y-96986632D01*
X118515601Y-96054598D01*
X117583564Y-96054598D01*
X117583564Y-95122567D01*
X116651527Y-95122567D01*
X116651527Y-94105805D01*
X117583564Y-94105805D01*
X117583564Y-95122565D01*
X118515601Y-95122565D01*
X118515601Y-94105803D01*
X117583564Y-94105803D01*
X117583564Y-93173773D01*
X116651527Y-93173773D01*
X116651527Y-90377678D01*
X117583564Y-90377678D01*
X117583564Y-91309709D01*
X118515601Y-91309709D01*
X118515601Y-92241741D01*
X117583564Y-92241741D01*
X117583564Y-93173771D01*
X118515601Y-93173771D01*
X118515601Y-92241741D01*
X119447639Y-92241741D01*
X119447639Y-93173771D01*
X121396415Y-93173771D01*
X121396415Y-94105803D01*
X122328452Y-94105803D01*
X122328452Y-94614184D01*
X122328437Y-95122565D01*
X123260474Y-95122565D01*
X123260474Y-93173771D01*
X121396430Y-93173771D01*
X121396430Y-90377677D01*
X123260490Y-90377677D01*
X123260490Y-91309708D01*
X122328452Y-91309708D01*
X122328452Y-92241740D01*
X125209281Y-92241740D01*
X125209281Y-96054596D01*
X125209281Y-97918660D01*
G36*
X125209281Y-97918660D02*
G01*
X123260490Y-97918660D01*
X123260490Y-97918662D01*
X123260490Y-98935422D01*
X126141319Y-98935422D01*
X126141319Y-97918660D01*
X130886207Y-97918660D01*
X130886207Y-98935422D01*
X131818237Y-98935422D01*
X131818237Y-97918660D01*
X132750266Y-97918660D01*
X132750266Y-98935425D01*
X132750266Y-99867455D01*
X130886199Y-99867455D01*
X130886199Y-100799489D01*
X129954170Y-100799489D01*
X129954170Y-101731520D01*
X131818237Y-101731520D01*
X131818237Y-102663552D01*
X132750266Y-102663552D01*
X132750266Y-106476414D01*
X131818229Y-106476414D01*
X131818229Y-103680317D01*
X130886199Y-103680317D01*
X130886199Y-102663558D01*
X129954170Y-102663558D01*
X129954170Y-101731524D01*
X129022140Y-101731524D01*
X129022140Y-100799492D01*
X126141311Y-100799492D01*
X126141311Y-99867459D01*
X127073348Y-99867459D01*
X129022140Y-99867459D01*
X129954170Y-99867459D01*
X129954170Y-98935425D01*
X129022140Y-98935425D01*
X129022140Y-99867459D01*
X127073348Y-99867459D01*
X127073348Y-98935425D01*
X126141311Y-98935425D01*
X126141311Y-99867457D01*
X125209281Y-99867457D01*
X125209281Y-100799489D01*
X123260490Y-100799489D01*
X123260490Y-101731520D01*
X122328460Y-101731520D01*
X122328460Y-102663552D01*
X125209289Y-102663552D01*
X125209289Y-101731520D01*
X127073348Y-101731520D01*
X127073348Y-102663552D01*
X129022140Y-102663552D01*
X129022140Y-102663554D01*
X129022140Y-104612353D01*
X129954170Y-104612353D01*
X129954170Y-106476414D01*
X129022144Y-106476414D01*
X129022144Y-105544381D01*
X128005378Y-105544381D01*
X128005378Y-103680317D01*
X127073341Y-103680317D01*
X127073341Y-104612351D01*
X123260490Y-104612351D01*
X123260490Y-103680317D01*
X122328452Y-103680317D01*
X122328452Y-103680314D01*
X125209289Y-103680314D01*
X127073348Y-103680314D01*
X127073348Y-102663554D01*
X125209289Y-102663554D01*
X125209289Y-103680314D01*
X122328452Y-103680314D01*
X122328452Y-102663556D01*
X121396415Y-102663556D01*
X121396415Y-103680317D01*
X120464378Y-103680317D01*
X120464378Y-102663556D01*
X119447608Y-102663556D01*
X119447608Y-105544381D01*
X121396400Y-105544381D01*
X121396400Y-104612347D01*
X122328437Y-104612347D01*
X122328437Y-107408438D01*
X120464393Y-107408438D01*
X120464393Y-106476407D01*
X117583564Y-106476407D01*
X117583564Y-106476409D01*
X117583564Y-108425200D01*
X118515601Y-108425200D01*
X118515601Y-110289263D01*
X117583564Y-110289263D01*
X117583564Y-111221293D01*
X116651550Y-111221293D01*
X116651550Y-110289263D01*
X115719512Y-110289263D01*
X115719512Y-111221293D01*
X114702743Y-111221293D01*
X114702743Y-110289263D01*
X113770705Y-110289263D01*
X113770705Y-111221297D01*
X112838676Y-111221297D01*
X112838676Y-112238059D01*
X114702735Y-112238059D01*
X114702735Y-113170088D01*
X115719505Y-113170088D01*
X115719505Y-112238059D01*
X117583564Y-112238059D01*
X117583564Y-113170088D01*
X120464393Y-113170088D01*
X120464393Y-112238059D01*
X121396415Y-112238059D01*
X121396415Y-113170096D01*
X122328452Y-113170096D01*
X122328452Y-114102122D01*
X117583564Y-114102122D01*
X117583564Y-113170092D01*
X116651534Y-113170092D01*
X116651534Y-114102118D01*
X109025832Y-114102118D01*
X109025832Y-111221297D01*
X109957847Y-111221297D01*
X109957847Y-112195693D01*
X109957862Y-113170088D01*
X111906654Y-113170088D01*
X111906654Y-112238059D01*
X110889884Y-112238059D01*
X110889884Y-111221297D01*
X109957847Y-111221297D01*
X109025832Y-111221297D01*
X109025832Y-110289263D01*
X111906646Y-110289263D01*
X112838683Y-110289263D01*
X112838683Y-109357234D01*
X113770705Y-109357234D01*
X116651534Y-109357234D01*
X116651534Y-106476409D01*
X113770705Y-106476409D01*
X113770705Y-109357234D01*
X112838683Y-109357234D01*
X111906646Y-109357234D01*
X111906646Y-110289263D01*
X109025832Y-110289263D01*
X109025832Y-110289260D01*
X110889892Y-110289260D01*
X110889892Y-109357230D01*
X111906661Y-109357230D01*
X111906661Y-108425202D01*
X112838683Y-108425202D01*
X112838683Y-107408440D01*
X111906661Y-107408440D01*
X111906661Y-106476409D01*
X112838699Y-106476409D01*
X112838699Y-105544381D01*
X114702728Y-105544381D01*
X117583556Y-105544381D01*
X117583556Y-104612347D01*
X115719497Y-104612347D01*
X115719497Y-103680314D01*
X118515594Y-103680314D01*
X118515594Y-102663552D01*
X114702743Y-102663552D01*
X114702743Y-104103964D01*
X114702728Y-105544381D01*
X112838699Y-105544381D01*
X112838699Y-104612345D01*
X111906661Y-104612345D01*
X111906661Y-102663554D01*
X112838683Y-102663554D01*
X112838683Y-103171935D01*
X112838699Y-103680317D01*
X113770736Y-103680317D01*
X113770736Y-102663560D01*
X114702728Y-102663560D01*
X114702728Y-100799496D01*
X117583556Y-100799496D01*
X117583556Y-99867463D01*
X118515594Y-99867463D01*
X118515594Y-101731526D01*
X122328445Y-101731526D01*
X122328445Y-100799494D01*
X123260482Y-100799494D01*
X123260482Y-99867461D01*
X119447631Y-99867461D01*
X119447631Y-98935427D01*
X118515594Y-98935427D01*
X118515594Y-98935423D01*
X120464393Y-98935423D01*
X121396430Y-98935423D01*
X121396430Y-97918662D01*
X120464393Y-97918662D01*
X120464393Y-98935423D01*
X118515594Y-98935423D01*
X118515594Y-97918665D01*
X120464385Y-97918665D01*
X120464385Y-96054602D01*
X121396423Y-96054602D01*
X121396423Y-96986630D01*
X122328460Y-96986630D01*
X123260490Y-96986630D01*
X124192527Y-96986630D01*
X124192527Y-96054596D01*
X123260490Y-96054596D01*
X123260490Y-96986630D01*
X122328460Y-96986630D01*
X122328460Y-96054596D01*
X121396423Y-96054596D01*
X121396423Y-94105807D01*
X119447631Y-94105807D01*
X119447631Y-96986632D01*
X118515601Y-96986632D01*
X118515601Y-96054598D01*
X117583564Y-96054598D01*
X117583564Y-95122567D01*
X116651527Y-95122567D01*
X116651527Y-94105805D01*
X117583564Y-94105805D01*
X117583564Y-95122565D01*
X118515601Y-95122565D01*
X118515601Y-94105803D01*
X117583564Y-94105803D01*
X117583564Y-93173773D01*
X116651527Y-93173773D01*
X116651527Y-90377678D01*
X117583564Y-90377678D01*
X117583564Y-91309709D01*
X118515601Y-91309709D01*
X118515601Y-92241741D01*
X117583564Y-92241741D01*
X117583564Y-93173771D01*
X118515601Y-93173771D01*
X118515601Y-92241741D01*
X119447639Y-92241741D01*
X119447639Y-93173771D01*
X121396415Y-93173771D01*
X121396415Y-94105803D01*
X122328452Y-94105803D01*
X122328452Y-94614184D01*
X122328437Y-95122565D01*
X123260474Y-95122565D01*
X123260474Y-93173771D01*
X121396430Y-93173771D01*
X121396430Y-90377677D01*
X123260490Y-90377677D01*
X123260490Y-91309708D01*
X122328452Y-91309708D01*
X122328452Y-92241740D01*
X125209281Y-92241740D01*
X125209281Y-96054596D01*
X125209281Y-97918660D01*
G37*
D12*
%TO.C,J1*%
X156195000Y-82550000D02*
X157465000Y-82550000D01*
X157465000Y-82550000D02*
X157465000Y-81280000D01*
X138035000Y-80237071D02*
X138035000Y-79840000D01*
X138795000Y-80237071D02*
X138795000Y-79840000D01*
X140575000Y-80237071D02*
X140575000Y-79840000D01*
X141335000Y-80237071D02*
X141335000Y-79840000D01*
X143115000Y-80237071D02*
X143115000Y-79840000D01*
X143875000Y-80237071D02*
X143875000Y-79840000D01*
X145655000Y-80237071D02*
X145655000Y-79840000D01*
X146415000Y-80237071D02*
X146415000Y-79840000D01*
X148195000Y-80237071D02*
X148195000Y-79840000D01*
X148955000Y-80237071D02*
X148955000Y-79840000D01*
X150735000Y-80237071D02*
X150735000Y-79840000D01*
X151495000Y-80237071D02*
X151495000Y-79840000D01*
X153275000Y-80237071D02*
X153275000Y-79840000D01*
X154035000Y-80237071D02*
X154035000Y-79840000D01*
X155815000Y-80170000D02*
X155815000Y-79840000D01*
X156575000Y-80170000D02*
X156575000Y-79840000D01*
X137085000Y-79840000D02*
X137085000Y-77180000D01*
X139685000Y-79840000D02*
X139685000Y-77180000D01*
X142225000Y-79840000D02*
X142225000Y-77180000D01*
X144765000Y-79840000D02*
X144765000Y-77180000D01*
X147305000Y-79840000D02*
X147305000Y-77180000D01*
X149845000Y-79840000D02*
X149845000Y-77180000D01*
X152385000Y-79840000D02*
X152385000Y-77180000D01*
X154925000Y-79840000D02*
X154925000Y-77180000D01*
X157525000Y-79840000D02*
X137085000Y-79840000D01*
X137085000Y-77180000D02*
X157525000Y-77180000D01*
X138795000Y-77180000D02*
X138795000Y-71180000D01*
X141335000Y-77180000D02*
X141335000Y-71180000D01*
X143875000Y-77180000D02*
X143875000Y-71180000D01*
X146415000Y-77180000D02*
X146415000Y-71180000D01*
X148955000Y-77180000D02*
X148955000Y-71180000D01*
X151495000Y-77180000D02*
X151495000Y-71180000D01*
X154035000Y-77180000D02*
X154035000Y-71180000D01*
X155915000Y-77180000D02*
X155915000Y-71180000D01*
X156035000Y-77180000D02*
X156035000Y-71180000D01*
X156155000Y-77180000D02*
X156155000Y-71180000D01*
X156275000Y-77180000D02*
X156275000Y-71180000D01*
X156395000Y-77180000D02*
X156395000Y-71180000D01*
X156515000Y-77180000D02*
X156515000Y-71180000D01*
X156575000Y-77180000D02*
X156575000Y-71180000D01*
X157525000Y-77180000D02*
X157525000Y-79840000D01*
X138035000Y-71180000D02*
X138035000Y-77180000D01*
X138795000Y-71180000D02*
X138035000Y-71180000D01*
X140575000Y-71180000D02*
X140575000Y-77180000D01*
X141335000Y-71180000D02*
X140575000Y-71180000D01*
X143115000Y-71180000D02*
X143115000Y-77180000D01*
X143875000Y-71180000D02*
X143115000Y-71180000D01*
X145655000Y-71180000D02*
X145655000Y-77180000D01*
X146415000Y-71180000D02*
X145655000Y-71180000D01*
X148195000Y-71180000D02*
X148195000Y-77180000D01*
X148955000Y-71180000D02*
X148195000Y-71180000D01*
X150735000Y-71180000D02*
X150735000Y-77180000D01*
X151495000Y-71180000D02*
X150735000Y-71180000D01*
X153275000Y-71180000D02*
X153275000Y-77180000D01*
X154035000Y-71180000D02*
X153275000Y-71180000D01*
X155815000Y-71180000D02*
X155815000Y-77180000D01*
X156575000Y-71180000D02*
X155815000Y-71180000D01*
%TO.C,J3*%
X163770000Y-128330000D02*
X163770000Y-125670000D01*
X179070000Y-128330000D02*
X163770000Y-128330000D01*
X179070000Y-128330000D02*
X179070000Y-125670000D01*
X180340000Y-128330000D02*
X181670000Y-128330000D01*
X181670000Y-128330000D02*
X181670000Y-127000000D01*
X179070000Y-125670000D02*
X163770000Y-125670000D01*
%TO.C,J4*%
X112970000Y-128330000D02*
X112970000Y-125670000D01*
X128270000Y-128330000D02*
X112970000Y-128330000D01*
X128270000Y-128330000D02*
X128270000Y-125670000D01*
X129540000Y-128330000D02*
X130870000Y-128330000D01*
X130870000Y-128330000D02*
X130870000Y-127000000D01*
X128270000Y-125670000D02*
X112970000Y-125670000D01*
%TD*%
M02*
