%TF.GenerationSoftware,KiCad,Pcbnew,7.0.2*%
%TF.CreationDate,2023-06-07T16:09:15+09:00*%
%TF.ProjectId,JinBoard,4a696e42-6f61-4726-942e-6b696361645f,rev?*%
%TF.SameCoordinates,Original*%
%TF.FileFunction,Copper,L2,Bot*%
%TF.FilePolarity,Positive*%
%FSLAX46Y46*%
G04 Gerber Fmt 4.6, Leading zero omitted, Abs format (unit mm)*
G04 Created by KiCad (PCBNEW 7.0.2) date 2023-06-07 16:09:15*
%MOMM*%
%LPD*%
G01*
G04 APERTURE LIST*
G04 Aperture macros list*
%AMOutline4P*
0 Free polygon, 4 corners , with rotation*
0 The origin of the aperture is its center*
0 number of corners: always 4*
0 $1 to $8 corner X, Y*
0 $9 Rotation angle, in degrees counterclockwise*
0 create outline with 4 corners*
4,1,4,$1,$2,$3,$4,$5,$6,$7,$8,$1,$2,$9*%
G04 Aperture macros list end*
%TA.AperFunction,ComponentPad*%
%ADD10Outline4P,-1.270000X0.000000X0.000000X1.270000X1.270000X0.000000X0.000000X-1.270000X180.000000*%
%TD*%
%TA.AperFunction,ComponentPad*%
%ADD11R,1.600000X1.600000*%
%TD*%
%TA.AperFunction,ComponentPad*%
%ADD12C,1.600000*%
%TD*%
%TA.AperFunction,ComponentPad*%
%ADD13R,1.700000X1.700000*%
%TD*%
%TA.AperFunction,ComponentPad*%
%ADD14O,1.700000X1.700000*%
%TD*%
%TA.AperFunction,ViaPad*%
%ADD15C,0.800000*%
%TD*%
%TA.AperFunction,Conductor*%
%ADD16C,0.800000*%
%TD*%
%TA.AperFunction,Conductor*%
%ADD17C,0.250000*%
%TD*%
G04 APERTURE END LIST*
D10*
%TO.P,REF\u002A\u002A,1*%
%TO.N,+5V*%
X138888002Y-87714107D03*
X138863002Y-120889107D03*
%TD*%
D11*
%TO.P,C2,1*%
%TO.N,+5V*%
X184110000Y-109855000D03*
D12*
%TO.P,C2,2*%
%TO.N,GND*%
X181610000Y-109855000D03*
%TD*%
D13*
%TO.P,J1,1,Pin_1*%
%TO.N,/RA3*%
X156195000Y-81280000D03*
D14*
%TO.P,J1,2,Pin_2*%
%TO.N,+5V*%
X153655000Y-81280000D03*
%TO.P,J1,3,Pin_3*%
%TO.N,GND*%
X151115000Y-81280000D03*
%TO.P,J1,4,Pin_4*%
%TO.N,/RA0*%
X148575000Y-81280000D03*
%TO.P,J1,5,Pin_5*%
%TO.N,/RA1*%
X146035000Y-81280000D03*
%TO.P,J1,6,Pin_6*%
%TO.N,unconnected-(J1-Pin_6-Pad6)*%
X143495000Y-81280000D03*
%TO.P,J1,7,Pin_7*%
%TO.N,unconnected-(J1-Pin_7-Pad7)*%
X140955000Y-81280000D03*
%TO.P,J1,8,Pin_8*%
%TO.N,unconnected-(J1-Pin_8-Pad8)*%
X138415000Y-81280000D03*
%TD*%
D13*
%TO.P,J3,1,Pin_1*%
%TO.N,/RA0*%
X180340000Y-127000000D03*
D14*
%TO.P,J3,2,Pin_2*%
%TO.N,/RA1*%
X177800000Y-127000000D03*
%TO.P,J3,3,Pin_3*%
%TO.N,/RA2*%
X175260000Y-127000000D03*
%TO.P,J3,4,Pin_4*%
%TO.N,/RA3*%
X172720000Y-127000000D03*
%TO.P,J3,5,Pin_5*%
%TO.N,/RA4*%
X170180000Y-127000000D03*
%TO.P,J3,6,Pin_6*%
%TO.N,/RA5*%
X167640000Y-127000000D03*
%TO.P,J3,7,Pin_7*%
%TO.N,+5V*%
X165100000Y-127000000D03*
%TD*%
D13*
%TO.P,J4,1,Pin_1*%
%TO.N,/RC0*%
X129540000Y-127000000D03*
D14*
%TO.P,J4,2,Pin_2*%
%TO.N,/RC1*%
X127000000Y-127000000D03*
%TO.P,J4,3,Pin_3*%
%TO.N,/RC2*%
X124460000Y-127000000D03*
%TO.P,J4,4,Pin_4*%
%TO.N,/RC3*%
X121920000Y-127000000D03*
%TO.P,J4,5,Pin_5*%
%TO.N,/RC4*%
X119380000Y-127000000D03*
%TO.P,J4,6,Pin_6*%
%TO.N,/RC5*%
X116840000Y-127000000D03*
%TO.P,J4,7,Pin_7*%
%TO.N,GND*%
X114300000Y-127000000D03*
%TD*%
D15*
%TO.N,+5V*%
X140970000Y-130175000D03*
%TO.N,GND*%
X187706000Y-123952000D03*
X135890000Y-121920000D03*
X135890000Y-116840000D03*
X187706000Y-126238000D03*
%TO.N,/RA5*%
X143256000Y-102870000D03*
%TO.N,/RA4*%
X132588000Y-102870000D03*
%TO.N,/RA2*%
X119126000Y-103378000D03*
%TD*%
D16*
%TO.N,+5V*%
X138863002Y-120889107D02*
X138863002Y-87739107D01*
X165100000Y-127000000D02*
X161925000Y-130175000D01*
X161925000Y-130175000D02*
X140970000Y-130175000D01*
X138863002Y-87739107D02*
X138888002Y-87714107D01*
D17*
%TO.N,GND*%
X135890000Y-121920000D02*
X135890000Y-116840000D01*
X187706000Y-123952000D02*
X187706000Y-126238000D01*
%TO.N,/RA5*%
X143510000Y-102870000D02*
X143256000Y-102870000D01*
X167640000Y-127000000D02*
X143510000Y-102870000D01*
%TO.N,/RA4*%
X136906000Y-127136305D02*
X136906000Y-121412000D01*
X140669695Y-130900000D02*
X136906000Y-127136305D01*
X132588000Y-102870000D02*
X136906000Y-107188000D01*
X136906000Y-107188000D02*
X136906000Y-121412000D01*
X170180000Y-127000000D02*
X166280000Y-130900000D01*
X166280000Y-130900000D02*
X140669695Y-130900000D01*
%TO.N,/RA3*%
X172720000Y-127000000D02*
X172720000Y-93345000D01*
X156195000Y-87615000D02*
X156195000Y-81280000D01*
X156210000Y-87630000D02*
X156195000Y-87615000D01*
X156210000Y-90805000D02*
X156210000Y-87630000D01*
X170815000Y-91440000D02*
X156845000Y-91440000D01*
X156845000Y-91440000D02*
X156210000Y-90805000D01*
X172720000Y-93345000D02*
X170815000Y-91440000D01*
%TO.N,/RA2*%
X131307299Y-122174000D02*
X140483299Y-131350000D01*
X119126000Y-121666000D02*
X119634000Y-122174000D01*
X119126000Y-103378000D02*
X119126000Y-121666000D01*
X175260000Y-127000000D02*
X170910000Y-131350000D01*
X170910000Y-131350000D02*
X141732000Y-131350000D01*
X140483299Y-131350000D02*
X141732000Y-131350000D01*
X119634000Y-122174000D02*
X131307299Y-122174000D01*
%TO.N,/RA1*%
X177800000Y-90805000D02*
X166185000Y-79190000D01*
X149320000Y-82455000D02*
X147210000Y-82455000D01*
X149750000Y-82025000D02*
X149320000Y-82455000D01*
X151315000Y-79190000D02*
X149750000Y-80755000D01*
X166185000Y-79190000D02*
X151315000Y-79190000D01*
X149750000Y-80755000D02*
X149750000Y-82025000D01*
X177800000Y-127000000D02*
X177800000Y-90805000D01*
X147210000Y-82455000D02*
X146035000Y-81280000D01*
%TO.N,/RA0*%
X180340000Y-127000000D02*
X180340000Y-88900000D01*
X170180000Y-78740000D02*
X151115000Y-78740000D01*
X151115000Y-78740000D02*
X148575000Y-81280000D01*
X180340000Y-88900000D02*
X170180000Y-78740000D01*
%TD*%
M02*
