%TF.GenerationSoftware,KiCad,Pcbnew,7.0.2*%
%TF.CreationDate,2023-06-07T16:09:15+09:00*%
%TF.ProjectId,JinBoard,4a696e42-6f61-4726-942e-6b696361645f,rev?*%
%TF.SameCoordinates,Original*%
%TF.FileFunction,Paste,Top*%
%TF.FilePolarity,Positive*%
%FSLAX46Y46*%
G04 Gerber Fmt 4.6, Leading zero omitted, Abs format (unit mm)*
G04 Created by KiCad (PCBNEW 7.0.2) date 2023-06-07 16:09:15*
%MOMM*%
%LPD*%
G01*
G04 APERTURE LIST*
G04 Aperture macros list*
%AMRoundRect*
0 Rectangle with rounded corners*
0 $1 Rounding radius*
0 $2 $3 $4 $5 $6 $7 $8 $9 X,Y pos of 4 corners*
0 Add a 4 corners polygon primitive as box body*
4,1,4,$2,$3,$4,$5,$6,$7,$8,$9,$2,$3,0*
0 Add four circle primitives for the rounded corners*
1,1,$1+$1,$2,$3*
1,1,$1+$1,$4,$5*
1,1,$1+$1,$6,$7*
1,1,$1+$1,$8,$9*
0 Add four rect primitives between the rounded corners*
20,1,$1+$1,$2,$3,$4,$5,0*
20,1,$1+$1,$4,$5,$6,$7,0*
20,1,$1+$1,$6,$7,$8,$9,0*
20,1,$1+$1,$8,$9,$2,$3,0*%
G04 Aperture macros list end*
%ADD10RoundRect,0.218750X0.256250X-0.218750X0.256250X0.218750X-0.256250X0.218750X-0.256250X-0.218750X0*%
%ADD11R,0.650000X1.500000*%
%ADD12RoundRect,0.200000X-0.275000X0.200000X-0.275000X-0.200000X0.275000X-0.200000X0.275000X0.200000X0*%
%ADD13RoundRect,0.218750X-0.218750X-0.256250X0.218750X-0.256250X0.218750X0.256250X-0.218750X0.256250X0*%
%ADD14RoundRect,0.225000X0.225000X0.250000X-0.225000X0.250000X-0.225000X-0.250000X0.225000X-0.250000X0*%
%ADD15RoundRect,0.200000X0.275000X-0.200000X0.275000X0.200000X-0.275000X0.200000X-0.275000X-0.200000X0*%
%ADD16RoundRect,0.200000X-0.200000X-0.275000X0.200000X-0.275000X0.200000X0.275000X-0.200000X0.275000X0*%
%ADD17RoundRect,0.200000X0.200000X0.275000X-0.200000X0.275000X-0.200000X-0.275000X0.200000X-0.275000X0*%
%ADD18R,1.200000X0.700000*%
%ADD19R,1.200000X0.760000*%
%ADD20R,1.200000X0.800000*%
%ADD21R,1.350000X1.800000*%
%ADD22R,1.500000X1.800000*%
G04 APERTURE END LIST*
D10*
%TO.C,D3*%
X140970000Y-104673500D03*
X140970000Y-103098500D03*
%TD*%
%TO.C,D1*%
X116078000Y-104902000D03*
X116078000Y-103327000D03*
%TD*%
D11*
%TO.C,IC1*%
X140716000Y-126652000D03*
X141986000Y-126652000D03*
X143256000Y-126652000D03*
X144526000Y-126652000D03*
X145796000Y-126652000D03*
X147066000Y-126652000D03*
X148336000Y-126652000D03*
X148336000Y-121252000D03*
X147066000Y-121252000D03*
X145796000Y-121252000D03*
X144526000Y-121252000D03*
X143256000Y-121252000D03*
X141986000Y-121252000D03*
X140716000Y-121252000D03*
%TD*%
D12*
%TO.C,R6*%
X140970000Y-106363000D03*
X140970000Y-108013000D03*
%TD*%
D13*
%TO.C,D4*%
X158724500Y-111760000D03*
X160299500Y-111760000D03*
%TD*%
D12*
%TO.C,R7*%
X157861000Y-113221000D03*
X157861000Y-114871000D03*
%TD*%
D14*
%TO.C,C1*%
X140729000Y-128524000D03*
X139179000Y-128524000D03*
%TD*%
D13*
%TO.C,D5*%
X171805500Y-108204000D03*
X173380500Y-108204000D03*
%TD*%
D15*
%TO.C,R1*%
X183118500Y-119380000D03*
X183118500Y-117730000D03*
%TD*%
D16*
%TO.C,R3*%
X153607000Y-84074000D03*
X155257000Y-84074000D03*
%TD*%
D17*
%TO.C,R8*%
X171767000Y-110871000D03*
X170117000Y-110871000D03*
%TD*%
D10*
%TO.C,D2*%
X128524000Y-104648000D03*
X128524000Y-103073000D03*
%TD*%
D18*
%TO.C,J2*%
X185928000Y-120388000D03*
D19*
X185928000Y-118368000D03*
D20*
X185928000Y-117138000D03*
D18*
X185928000Y-119388000D03*
D19*
X185928000Y-121408000D03*
D20*
X185928000Y-122638000D03*
D21*
X185983000Y-125013000D03*
D22*
X189563000Y-125013000D03*
D21*
X185983000Y-114763000D03*
D22*
X189563000Y-114763000D03*
%TD*%
D12*
%TO.C,R4*%
X116078000Y-106617000D03*
X116078000Y-108267000D03*
%TD*%
%TO.C,R2*%
X183118500Y-120904000D03*
X183118500Y-122554000D03*
%TD*%
%TO.C,R5*%
X128524000Y-106363000D03*
X128524000Y-108013000D03*
%TD*%
M02*
